M48
;Layer_Color=9474304
;FILE_FORMAT=4:4
METRIC,LZ
;TYPE=PLATED
T1F00S00C0.3000
T2F00S00C0.6500
T3F00S00C0.8000
T4F00S00C1.0000
T5F00S00C1.1000
T6F00S00C1.3000
T7F00S00C1.4000
;TYPE=NON_PLATED
T8F00S00C3.2000
T9F00S00C3.5000
%
T01
X0121717Y0100138
Y0101538
X0125017
Y0100138
X0130272Y010003
Y010153
X0130397Y0105705
X0129697
X0131497
X0132197
X0135672Y010573
X0136372
X0137472
X0138172
X0137672Y010153
Y010003
X0144232Y009763
Y009623
X0147532
Y009763
X0147522Y010263
Y010403
X0144222
Y010263
X0152777Y010153
Y010003
X0152902Y0105705
X0152202
X0154002
X0154702
X0158177Y010573
X0157372Y0111055
Y0111955
X0156472
Y0111055
X0155572
Y0111955
Y0112855
X0156472
X0157372
X0155477Y011633
X0152707Y0115905
X0152282Y011543
Y0116405
X0153622Y011463
X0152377Y011093
X0147507Y011373
Y0114405
Y0115405
Y0116405
X0146477Y011798
X01421257Y01161801
X0142177Y0114563
X0141152Y0113355
X0140452
X0139447Y0116713
X0132972Y011633
X0133072Y0112855
X0133972
Y0111955
X0134872
Y0112855
Y0111055
X0133972
X0133072
Y0111955
X0129872Y011093
X0128122Y011453
X0127122
X0127622Y011553
X0128322Y011703
X0125072Y011878
X0119672Y011863
X0119672Y0116988
X0121707Y0107938
Y0106538
X0125007
Y0107938
X0138372Y011053
X0160877Y011053
X01629783Y0113355
X01636783
X0164722Y01145629
X01646707Y011618
X0161952Y0116713
X0169022Y011798
X0170052Y0116405
Y0115405
Y0114405
Y011373
X0174827Y011543
X0175252Y0115905
X0174827Y0116405
X0176122Y011473
X0178022Y011633
X0178122Y0112855
X0179022
Y0111955
X0179922
Y0112855
Y0111055
X0179022
X0178122
Y0111955
X0174922Y011093
X0174747Y0105705
X0175447
X0176547
X0177247
X0180722Y010573
X0181422
X0182522
X0183222
X0182722Y010153
Y010003
X0175322
Y010153
X0170067Y010263
Y010403
X0166767
Y010263
X0166777Y009763
Y009623
X0170077
Y009763
X0160177Y010003
Y010153
X0159977Y010573
X0160677
X0158877
X0183422Y011053
X0185502Y0113355
X0186202
X0187167Y0114563
X01871157Y011618
X0184497Y01167129
X0191467Y011798
X0192497Y0116405
Y0115405
Y0114405
Y011373
X0197272Y011543
X0197697Y0115905
X0197272Y0116405
X0196767Y0111463
X0197192Y0105705
X0197892
X0197767Y010153
Y010003
X0192522Y009763
Y009623
X0189222
Y009763
X0189212Y010263
Y010403
X0192512
Y010263
X0198992Y0105705
X0199692
X0203167Y010573
X0203867
X0204967
X0205667
X0205167Y010153
Y010003
X0205867Y011053
X0202372Y01110551
Y01119551
X0201472
Y01110551
X0200572
Y01119551
Y01128551
X0201472
X0202372
X0200467Y011633
X0198722Y011463
X0206942Y0116713
X0207772Y011828
X0207947Y0113355
X0208647
X0212822Y011373
X0212222Y012273
X0207672Y012273
X0205892Y0119588
X0202317Y01215379
X0200717
X0199117Y01215129
X0199942Y012413
X0201322Y012403
X0202022Y0126255
X0204422
X0205462Y012929
X0201422Y012813
X02015866Y0131957
X0203247Y0140055
X0201022Y015158
X0203322Y0153905
X0200722Y015628
X0210722Y013103
X0210922Y0126655
X0197922Y012473
X0196767Y012413
X0194967
X01930657Y0123105
X0195867Y01214879
X0197567Y01216129
X0189812Y012148
X0188422Y012433
X0182822Y012413
X0180122Y012423
X0177497Y012413
X0175822Y012423
X0174322Y012413
X0175122Y01216129
X0176672Y01215129
X0178272Y01215379
X0179872
X0183447Y0119588
X0173422Y01214879
X01706207Y0123105
X0167367Y012148
X0160902Y0119588
X0164722Y012728
X0163422Y013203
X01616221
X01621221Y013813
X0163022
X01641221
X0163972Y013938
X01653221Y013923
X0165822Y014093
X01643221Y014163
X01641221Y014303
X0164222Y014453
X0165422Y014523
X01656221Y014353
X01614971Y014383
X01623221Y014623
X01607471Y0147105
X01603221Y014153
X01593221Y014103
X0160122Y013973
X0159822Y013773
X0161022Y013813
X0162922Y014013
X01628221Y014153
X0167922Y013633
X0167222Y013433
X0171522Y013273
X0171722Y013653
X0171622Y013753
Y013933
X0176222Y013983
X0175472Y013678
X0179522Y0140905
X0178222Y014533
X0176697Y0144805
X0175372Y014613
X01716221Y014633
Y014453
X0172322Y014783
X0171322Y014883
X0168722Y014843
X0173722Y014978
X0176072Y015313
X0179722Y015293
X0182372Y015628
X0183622
X0184872
X0186122Y015453
Y015353
Y015253
X0187122
Y015353
Y015453
X0188122Y015753
X0189122
Y015853
X0188122
X0195722Y015778
X0196622Y015433
X0196822Y015183
X01960302Y01485882
X0191782Y014707
X0191722Y014478
X01914446Y013983
X01912244Y01371776
Y01355776
X0194172Y013478
X01930365Y01320786
X0197622Y013573
X01958244Y01383276
X01946246Y01419468
X0189097Y0140605
X0184622Y0141755
X0166422Y015343
X0164722
X0163897Y015273
X01621221
X01613221Y015353
X01598221
X0159122Y015273
X0159022Y015663
X0161022Y015683
X0162822Y015683
X0166847Y015793
X0157122Y015678
X01573221Y015273
X0158022Y014733
X0156522Y014623
X0157497Y0145205
X0157497Y0144205
X0156422Y014403
X0156497Y0140705
X01573221Y014003
X01581221Y014073
X0157497Y0138705
X0156297Y0138705
X01578221Y01377301
X0154772Y013253
X01529719Y01326299
X0155322Y012843
X0154952Y012363
X0155727Y01215379
X0157327
X0154127Y01215129
X0152577Y01216129
X0150877Y0121488
X01480757Y0123105
X0144822Y012148
X0143222Y012478
X0137772Y012413
X0135849Y0126657
X01371325Y0129153
X0138222Y012823
X0138849Y01304405
X01328862Y013133
X0130222Y013278
X0133422Y013683
X0137222Y013923
X0137022Y014143
X01368825Y0142907
X0137449Y01482905
X0139722Y015098
X0141022Y015343
X0140822Y015533
X0139222Y015433
X0138122Y015333
X0136522Y015413
X0137322Y015583
X0138422Y015643
X01431254Y01538266
X01461221Y015641
X0147422Y015643
X0148222
X01496221Y0156455
X01513221Y015641
X0151722Y015103
X0152022Y014853
X01528221Y014783
X01543221Y014833
X0150922Y014733
X0147177Y014613
Y015133
X0150422Y014223
X0144249Y01415905
X01458221Y013408
X0157222Y012478
X0138397Y0119588
X0134822Y01215379
X0133222Y01215379
X0131622Y01215129
X0130072Y01216129
X0128372Y012148
X0128122Y012413
X0129272
X01288612Y012593
X0126722Y012628
X0125722Y012593
X01223683Y012413
X0124022Y011948
X0132447Y012413
X0119322Y012813
X0119622Y012953
X0128972Y013953
X0129522Y0147805
X0131822Y014558
X0128247Y015268
Y015628
Y015988
Y016348
X0131622Y016353
X0132672Y016778
X0130272
Y017688
X0132672
X0134772Y017948
X0137172
Y018858
X0134772
X0128472Y018883
X0128472Y018098
X0148122Y017853
X0149122
X0150122
Y017753
Y017653
Y017553
Y017453
Y017353
X0149122
X0148122
Y017453
Y017553
Y017653
Y017753
X0149122
Y017653
Y017553
Y017453
X0148722Y017128
Y017028
X0149722
Y017128
X0150722Y017028
X0151722
X0152722
X0153722
Y016928
Y016828
X0152722
X0151722
X0150722
Y016928
X0151722
X0152722
X0149722
Y016828
X0148722
Y016928
X0157522Y017113
X0157122Y017353
X0158122
Y017453
X0157122
Y017553
Y017653
X0158122
Y017553
Y017753
X0157122
Y017853
X0158122
X0157122Y016148
X0154222Y015928
X0143347Y0161605
X0137122Y016143
X0159022Y016133
X0161022Y016153
X0162922Y016153
X0166922Y016263
X0166847Y015973
X0170122Y016173
X0175722Y016303
X0176497Y0164905
X0176222Y016778
Y016878
X0177222
Y016778
X0178222
X0179222
Y016878
X0178222
X0180222
Y016778
X0175222
Y016878
Y016978
X0176222
X0176622Y017203
Y017303
Y017403
Y017503
Y017603
Y017703
X0175622
X0174622
Y017603
Y017503
Y017403
Y017303
Y017203
X0175622
Y017303
Y017403
Y017503
Y017603
X0183622
Y017703
X0184622
X0185622
Y017603
X0184622
Y017503
X0183622
Y017403
Y017303
X0184622
Y017403
X0185622
Y017303
Y017203
X0184622
X0183622
Y017003
X0184622
X0186722Y017043
X0187822
X0188922
X0189922
X0186622Y016943
X0185622Y017503
X0194922Y01713
X0195622
X0194922Y0169895
Y0168895
X0194872Y016778
X0188372Y016178
X0187122
X0185872
X0188122Y015953
X0189122
X0179672Y016073
X0178922
X0166022Y016573
X0164472Y016978
X0169472
X0164472Y017728
X0159122Y017753
Y017653
Y017553
Y017453
Y017353
Y017853
X0201022Y017543
X0201372Y017103
X0200372Y016703
X0200922Y016548
T02
X01237362Y0133305
Y0137755
T03
X0120782Y011243
X0123322Y010989
Y011497
X0143232Y010943
X0145772Y010689
Y011197
X0165782Y010943
X0168322Y010689
Y011197
X0188232Y010943
X0190772Y010689
Y011197
T04
X0215422Y010146
Y0104
Y010846
Y0111
X0198522Y012929
Y013183
Y013437
Y013691
Y013945
Y014199
Y014453
Y014707
Y014961
Y015215
Y015469
Y015723
X0206232Y0156775
X0208772Y0158045
X0208772Y0149125
Y0146585
Y0144045
X0206232Y0145315
Y0147855
Y0142775
X0184822Y013363
Y012863
X0135022Y012929
Y013183
Y013437
Y013691
Y013945
Y014199
Y014453
Y014707
Y014961
Y015215
Y015469
Y015723
X0125212Y015713
X0122672
Y015459
X0125212
Y015205
X0122672
Y015967
Y016221
Y016475
Y016729
Y016983
Y017237
Y017491
X0125212
Y017237
Y016983
Y016729
Y016475
Y016221
Y015967
X0135022Y015977
Y016231
Y016485
X0198522
Y016231
Y015977
X0206232Y0159315
Y0161855
X0208772Y0160585
Y0163125
X0208772Y0171945
Y0174485
Y0177025
X0206232Y0175755
Y0173215
Y0170675
T05
X0130157Y0093305
X0132697
X0135237
X0137777
X0152662Y0093305
X0155202
X0157742
X0160282
X0175207Y0093305
X0177747
X0180287
X0182827
X0197687Y0093305
X0200227
X0202767
X0205307
T06
X01207362Y0131355
Y0139705
T07
X0146227Y018553
X0151307
X0156387
X0161467
X01704719
X01755519
X01806319
X01857119
X01915271
X01966071
X02016871
X02067671
T08
X0215122Y014087
Y015103
X0215122Y015487
Y016503
X0215122Y016877
Y017893
T09
X0123222Y009463
X0214122Y009453
X0123122Y018553
X0214122Y018553
M30
