%FSLAX44Y44*%
%MOMM*%
G71*
G01*
G75*
G04 Layer_Color=65535*
%ADD10C,0.2000*%
%ADD11R,1.5000X1.5000*%
%ADD12R,1.3500X0.4000*%
%ADD13R,1.2000X2.0000*%
%ADD14R,2.0500X0.2500*%
%ADD15R,0.2500X2.0500*%
%ADD16R,1.7500X2.2500*%
%ADD17R,1.4000X2.1000*%
%ADD18R,0.7000X0.8000*%
%ADD19C,0.1000*%
%ADD20R,1.5000X0.5000*%
%ADD21R,0.6000X1.8000*%
%ADD22R,3.3000X2.7000*%
%ADD23R,1.0000X2.7000*%
%ADD24R,2.5000X0.7000*%
%ADD25R,1.4500X0.5500*%
%ADD26R,1.7000X2.5000*%
%ADD27R,1.9000X1.5000*%
%ADD28R,1.1000X1.1000*%
%ADD29R,2.5000X2.5000*%
%ADD30R,0.2500X1.1500*%
%ADD31R,1.1500X0.2500*%
%ADD32R,1.8500X1.2500*%
%ADD33R,1.7500X6.0000*%
%ADD34R,1.2000X1.1000*%
%ADD35R,1.5000X1.9000*%
%ADD36R,1.6000X1.5000*%
%ADD37R,0.8500X3.3500*%
%ADD38R,1.6000X3.2000*%
%ADD39R,1.4000X1.9000*%
%ADD40R,1.9000X1.4000*%
%ADD41R,2.9000X0.8000*%
%ADD42R,1.1000X1.1000*%
%ADD43R,1.1000X1.2000*%
%ADD44R,1.2500X1.8500*%
%ADD45R,0.5000X1.5000*%
%ADD46R,1.5000X1.6000*%
%ADD47C,0.9000*%
%ADD48C,0.8000*%
%ADD49C,0.5000*%
%ADD50C,0.2500*%
%ADD51C,0.1500*%
%ADD52C,0.7500*%
%ADD53C,0.3000*%
%ADD54C,0.2540*%
%ADD55C,0.0254*%
%ADD56C,0.1905*%
%ADD57C,0.1194*%
%ADD58C,1.1000*%
%ADD59C,1.9000*%
%ADD60C,1.4000*%
%ADD61O,1.3500X2.3500*%
%ADD62C,1.6000*%
%ADD63C,2.9500*%
%ADD64R,1.6000X1.6000*%
%ADD65C,0.5500*%
%ADD66R,3.3000X1.1000*%
%ADD67R,9.0000X3.0000*%
%ADD68C,0.6000*%
%ADD69C,0.1778*%
%ADD70C,0.2032*%
%ADD71C,0.4000*%
%ADD72R,2.4000X0.5500*%
%ADD73R,2.4000X0.5500*%
G36*
X2161220Y980300D02*
X2170220Y973300D01*
X2177220Y964300D01*
X2181220Y954300D01*
Y945300D01*
X2141220D01*
Y985300D01*
X2150220D01*
X2161220Y980300D01*
D02*
G37*
G36*
X1232220Y946300D02*
X1272220D01*
Y937300D01*
X1267220Y926300D01*
X1260220Y917300D01*
X1251220Y910300D01*
X1241220Y906300D01*
X1232220D01*
Y946300D01*
X1192220D01*
Y955300D01*
X1197220Y966300D01*
X1204220Y975300D01*
X1213220Y982300D01*
X1223220Y986300D01*
X1232220D01*
Y946300D01*
D02*
G37*
G36*
X2141220Y905300D02*
X2132220D01*
X2121220Y910300D01*
X2112220Y917300D01*
X2105220Y926300D01*
X2101220Y936300D01*
Y945300D01*
X2141220D01*
Y905300D01*
D02*
G37*
G36*
X1251220Y1890300D02*
X1260220Y1883300D01*
X1267220Y1874300D01*
X1271220Y1864300D01*
Y1855300D01*
X1231220D01*
Y1895300D01*
X1240220D01*
X1251220Y1890300D01*
D02*
G37*
G36*
X1231220Y1815300D02*
X1222220D01*
X1211220Y1820300D01*
X1202220Y1827300D01*
X1195220Y1836300D01*
X1191220Y1846300D01*
Y1855300D01*
X1231220D01*
Y1815300D01*
D02*
G37*
G36*
X2141220Y1855300D02*
X2181220D01*
Y1846300D01*
X2176220Y1835300D01*
X2169220Y1826300D01*
X2160220Y1819300D01*
X2150220Y1815300D01*
X2141220D01*
Y1855300D01*
X2101220D01*
Y1864300D01*
X2106220Y1875300D01*
X2113220Y1884300D01*
X2122220Y1891300D01*
X2132220Y1895300D01*
X2141220D01*
Y1855300D01*
D02*
G37*
G36*
X1478806Y661497D02*
X1479639Y661404D01*
X1480565Y661312D01*
X1481676Y661219D01*
X1482787Y660941D01*
X1485194Y660386D01*
X1487694Y659460D01*
X1488898Y658905D01*
X1490009Y658257D01*
X1491120Y657516D01*
X1492138Y656590D01*
X1492231Y656497D01*
X1492323Y656405D01*
X1492601Y656127D01*
X1492971Y655757D01*
X1493342Y655201D01*
X1493712Y654646D01*
X1494175Y653998D01*
X1494731Y653257D01*
X1495656Y651405D01*
X1496397Y649369D01*
X1497045Y646962D01*
X1497138Y645665D01*
X1497230Y644277D01*
Y644184D01*
Y643999D01*
Y643721D01*
Y643258D01*
X1497138Y642795D01*
X1497045Y642147D01*
X1496860Y640666D01*
X1496582Y638907D01*
X1496027Y636870D01*
X1495379Y634740D01*
X1494453Y632426D01*
Y632333D01*
X1494268Y632148D01*
X1494082Y631778D01*
X1493805Y631130D01*
X1493434Y630389D01*
X1492879Y629463D01*
X1492231Y628352D01*
X1491398Y627056D01*
X1490472Y625482D01*
X1489361Y623631D01*
X1488065Y621686D01*
X1486491Y619372D01*
X1484824Y616872D01*
X1482972Y614095D01*
X1480843Y611039D01*
X1478436Y607706D01*
X1495842D01*
Y595300D01*
X1459271D01*
Y605392D01*
X1459364Y605484D01*
X1459456Y605670D01*
X1459642Y606040D01*
X1459919Y606503D01*
X1460290Y607058D01*
X1460753Y607799D01*
X1461215Y608540D01*
X1461771Y609465D01*
X1462975Y611502D01*
X1464363Y613724D01*
X1465845Y616224D01*
X1467419Y618816D01*
X1470566Y624186D01*
X1472140Y626778D01*
X1473622Y629278D01*
X1474918Y631593D01*
X1476121Y633629D01*
X1476584Y634555D01*
X1477047Y635389D01*
X1477417Y636037D01*
X1477695Y636685D01*
Y636777D01*
X1477788Y636963D01*
X1477973Y637240D01*
X1478158Y637703D01*
X1478621Y638722D01*
X1479176Y640018D01*
X1479732Y641499D01*
X1480195Y643073D01*
X1480565Y644554D01*
X1480658Y645851D01*
Y645943D01*
Y646221D01*
Y646684D01*
X1480565Y647147D01*
X1480380Y648258D01*
X1480195Y648721D01*
X1479917Y649184D01*
Y649276D01*
X1479825Y649369D01*
X1479454Y649739D01*
X1478806Y650017D01*
X1478343Y650202D01*
X1477695D01*
X1477140Y650017D01*
X1476492Y649739D01*
X1476121Y649369D01*
X1475844Y648998D01*
Y648906D01*
X1475751Y648813D01*
X1475658Y648443D01*
X1475566Y647980D01*
X1475381Y647332D01*
X1475288Y646406D01*
X1475195Y645295D01*
Y643999D01*
Y637148D01*
X1459271D01*
Y640295D01*
Y640388D01*
Y640573D01*
Y640851D01*
Y641221D01*
Y642147D01*
X1459364Y643443D01*
Y644740D01*
X1459549Y646221D01*
X1459642Y647610D01*
X1459827Y648813D01*
Y648998D01*
X1459919Y649369D01*
X1460104Y650017D01*
X1460382Y650757D01*
X1460753Y651776D01*
X1461215Y652794D01*
X1461864Y653905D01*
X1462604Y655109D01*
X1462697Y655294D01*
X1463067Y655664D01*
X1463530Y656220D01*
X1464178Y656868D01*
X1465104Y657701D01*
X1466122Y658442D01*
X1467233Y659275D01*
X1468530Y659923D01*
X1468715Y660016D01*
X1469178Y660201D01*
X1470011Y660479D01*
X1471029Y660756D01*
X1472325Y661034D01*
X1473807Y661312D01*
X1475381Y661497D01*
X1477232Y661590D01*
X1478158D01*
X1478806Y661497D01*
D02*
G37*
G36*
X1432700Y660293D02*
X1435107D01*
X1437792Y660108D01*
X1440477Y659923D01*
X1441773Y659830D01*
X1442884Y659738D01*
X1443902Y659553D01*
X1444828Y659368D01*
X1445013D01*
X1445569Y659183D01*
X1446310Y658905D01*
X1447328Y658442D01*
X1448439Y657794D01*
X1449643Y656868D01*
X1450846Y655850D01*
X1451957Y654461D01*
X1452050Y654276D01*
X1452235Y654090D01*
X1452420Y653720D01*
X1452605Y653350D01*
X1452883Y652794D01*
X1453068Y652146D01*
X1453346Y651498D01*
X1453624Y650665D01*
X1453901Y649832D01*
X1454087Y648813D01*
X1454272Y647702D01*
X1454457Y646499D01*
X1454642Y645202D01*
X1454735Y643814D01*
Y642332D01*
Y642240D01*
Y641962D01*
Y641592D01*
Y641129D01*
X1454642Y640481D01*
Y639740D01*
X1454457Y638166D01*
X1454179Y636407D01*
X1453809Y634648D01*
X1453346Y633074D01*
X1452976Y632333D01*
X1452605Y631778D01*
X1452513Y631685D01*
X1452235Y631315D01*
X1451679Y630852D01*
X1450939Y630389D01*
X1450013Y629834D01*
X1448809Y629371D01*
X1447328Y629093D01*
X1445569Y628908D01*
X1445754D01*
X1446310Y628815D01*
X1447143Y628723D01*
X1448069Y628537D01*
X1449087Y628260D01*
X1450198Y627797D01*
X1451124Y627241D01*
X1451957Y626501D01*
X1452050Y626408D01*
X1452235Y626130D01*
X1452605Y625667D01*
X1452976Y625205D01*
X1453716Y623816D01*
X1454087Y623168D01*
X1454272Y622427D01*
Y622334D01*
X1454364Y622057D01*
X1454457Y621501D01*
X1454550Y620575D01*
Y620020D01*
Y619372D01*
X1454642Y618539D01*
Y617705D01*
X1454735Y616687D01*
Y615576D01*
Y614280D01*
Y612891D01*
Y595300D01*
X1437699D01*
Y617242D01*
Y617335D01*
Y617427D01*
Y617983D01*
Y618816D01*
X1437607Y619742D01*
X1437514Y620760D01*
X1437422Y621686D01*
X1437236Y622427D01*
X1437051Y622982D01*
Y623075D01*
X1436959Y623168D01*
X1436774Y623353D01*
X1436496Y623538D01*
X1436125Y623723D01*
X1435663Y623816D01*
X1435107Y624001D01*
X1434366D01*
Y595300D01*
X1416220D01*
Y660386D01*
X1431589D01*
X1432700Y660293D01*
D02*
G37*
G36*
X1565464Y661497D02*
X1566297Y661404D01*
X1567223Y661312D01*
X1568334Y661219D01*
X1569445Y660941D01*
X1571852Y660386D01*
X1574352Y659460D01*
X1575555Y658905D01*
X1576666Y658257D01*
X1577777Y657516D01*
X1578796Y656590D01*
X1578888Y656497D01*
X1578981Y656405D01*
X1579259Y656127D01*
X1579629Y655757D01*
X1579999Y655201D01*
X1580370Y654646D01*
X1580833Y653998D01*
X1581388Y653257D01*
X1582314Y651405D01*
X1583055Y649369D01*
X1583703Y646962D01*
X1583795Y645665D01*
X1583888Y644277D01*
Y644184D01*
Y643999D01*
Y643721D01*
Y643258D01*
X1583795Y642795D01*
X1583703Y642147D01*
X1583518Y640666D01*
X1583240Y638907D01*
X1582684Y636870D01*
X1582036Y634740D01*
X1581110Y632426D01*
Y632333D01*
X1580925Y632148D01*
X1580740Y631778D01*
X1580462Y631130D01*
X1580092Y630389D01*
X1579536Y629463D01*
X1578888Y628352D01*
X1578055Y627056D01*
X1577129Y625482D01*
X1576018Y623631D01*
X1574722Y621686D01*
X1573148Y619372D01*
X1571482Y616872D01*
X1569630Y614095D01*
X1567501Y611039D01*
X1565094Y607706D01*
X1582499D01*
Y595300D01*
X1545929D01*
Y605392D01*
X1546022Y605484D01*
X1546114Y605670D01*
X1546299Y606040D01*
X1546577Y606503D01*
X1546947Y607058D01*
X1547410Y607799D01*
X1547873Y608540D01*
X1548429Y609465D01*
X1549632Y611502D01*
X1551021Y613724D01*
X1552502Y616224D01*
X1554076Y618816D01*
X1557224Y624186D01*
X1558798Y626778D01*
X1560279Y629278D01*
X1561575Y631593D01*
X1562779Y633629D01*
X1563242Y634555D01*
X1563705Y635389D01*
X1564075Y636037D01*
X1564353Y636685D01*
Y636777D01*
X1564445Y636963D01*
X1564631Y637240D01*
X1564816Y637703D01*
X1565279Y638722D01*
X1565834Y640018D01*
X1566390Y641499D01*
X1566853Y643073D01*
X1567223Y644554D01*
X1567316Y645851D01*
Y645943D01*
Y646221D01*
Y646684D01*
X1567223Y647147D01*
X1567038Y648258D01*
X1566853Y648721D01*
X1566575Y649184D01*
Y649276D01*
X1566482Y649369D01*
X1566112Y649739D01*
X1565464Y650017D01*
X1565001Y650202D01*
X1564353D01*
X1563797Y650017D01*
X1563149Y649739D01*
X1562779Y649369D01*
X1562501Y648998D01*
Y648906D01*
X1562409Y648813D01*
X1562316Y648443D01*
X1562224Y647980D01*
X1562038Y647332D01*
X1561946Y646406D01*
X1561853Y645295D01*
Y643999D01*
Y637148D01*
X1545929D01*
Y640295D01*
Y640388D01*
Y640573D01*
Y640851D01*
Y641221D01*
Y642147D01*
X1546022Y643443D01*
Y644740D01*
X1546207Y646221D01*
X1546299Y647610D01*
X1546484Y648813D01*
Y648998D01*
X1546577Y649369D01*
X1546762Y650017D01*
X1547040Y650757D01*
X1547410Y651776D01*
X1547873Y652794D01*
X1548521Y653905D01*
X1549262Y655109D01*
X1549355Y655294D01*
X1549725Y655664D01*
X1550188Y656220D01*
X1550836Y656868D01*
X1551762Y657701D01*
X1552780Y658442D01*
X1553891Y659275D01*
X1555187Y659923D01*
X1555372Y660016D01*
X1555835Y660201D01*
X1556669Y660479D01*
X1557687Y660756D01*
X1558983Y661034D01*
X1560464Y661312D01*
X1562038Y661497D01*
X1563890Y661590D01*
X1564816D01*
X1565464Y661497D01*
D02*
G37*
G36*
X1523154Y661682D02*
X1523987Y661590D01*
X1525653Y661404D01*
X1527690Y661034D01*
X1529727Y660571D01*
X1531856Y659830D01*
X1533801Y658812D01*
X1533893D01*
X1533986Y658719D01*
X1534634Y658257D01*
X1535467Y657608D01*
X1536485Y656775D01*
X1537596Y655664D01*
X1538707Y654461D01*
X1539633Y652979D01*
X1540374Y651405D01*
Y651313D01*
X1540466Y651220D01*
X1540559Y650943D01*
X1540652Y650572D01*
X1540744Y650109D01*
X1540837Y649554D01*
X1541022Y648906D01*
X1541207Y648073D01*
X1541300Y647239D01*
X1541485Y646221D01*
X1541577Y645110D01*
X1541670Y643906D01*
X1541763Y642610D01*
X1541855Y641221D01*
X1541948Y639740D01*
Y638074D01*
Y631222D01*
X1523802D01*
Y643073D01*
Y643166D01*
Y643258D01*
Y643814D01*
Y644554D01*
X1523709Y645480D01*
Y646406D01*
X1523616Y647332D01*
X1523524Y648073D01*
X1523339Y648535D01*
X1523246Y648721D01*
X1522968Y648998D01*
X1522505Y649276D01*
X1521672Y649461D01*
X1521394D01*
X1520839Y649369D01*
X1520191Y648998D01*
X1519913Y648721D01*
X1519728Y648350D01*
Y648258D01*
X1519635Y648073D01*
Y647795D01*
X1519543Y647239D01*
X1519450Y646406D01*
Y645388D01*
X1519358Y644091D01*
Y642517D01*
Y612984D01*
Y612891D01*
Y612798D01*
Y612243D01*
Y611502D01*
X1519450Y610576D01*
Y609650D01*
X1519543Y608725D01*
X1519635Y607892D01*
X1519728Y607336D01*
X1519821Y607151D01*
X1520098Y606873D01*
X1520746Y606503D01*
X1521117Y606410D01*
X1521580Y606318D01*
X1521765D01*
X1522320Y606503D01*
X1522876Y606781D01*
X1523154Y607058D01*
X1523339Y607429D01*
Y607521D01*
X1523431Y607706D01*
X1523524Y608077D01*
X1523616Y608632D01*
Y609465D01*
X1523709Y610484D01*
X1523802Y611872D01*
Y612706D01*
Y613632D01*
Y622427D01*
X1541948D01*
Y619187D01*
Y619094D01*
Y618724D01*
Y618261D01*
Y617520D01*
Y616779D01*
X1541855Y615761D01*
Y614743D01*
X1541763Y613632D01*
X1541577Y611317D01*
X1541300Y608910D01*
X1540929Y606688D01*
X1540744Y605762D01*
X1540466Y604836D01*
Y604744D01*
X1540374Y604651D01*
X1540189Y604096D01*
X1539726Y603262D01*
X1539078Y602244D01*
X1538244Y601040D01*
X1537133Y599837D01*
X1535745Y598541D01*
X1533986Y597244D01*
X1533893D01*
X1533801Y597152D01*
X1533523Y596967D01*
X1533060Y596782D01*
X1532597Y596504D01*
X1532041Y596226D01*
X1531393Y595948D01*
X1530560Y595671D01*
X1528801Y595022D01*
X1526764Y594560D01*
X1524357Y594189D01*
X1521765Y594004D01*
X1520561D01*
X1519913Y594097D01*
X1519172Y594189D01*
X1517413Y594374D01*
X1515376Y594652D01*
X1513340Y595115D01*
X1511210Y595763D01*
X1509266Y596689D01*
X1509173D01*
X1509081Y596782D01*
X1508433Y597244D01*
X1507599Y597800D01*
X1506581Y598726D01*
X1505563Y599744D01*
X1504452Y601040D01*
X1503526Y602614D01*
X1502785Y604281D01*
Y604373D01*
X1502693Y604558D01*
X1502600Y604836D01*
X1502507Y605207D01*
X1502415Y605670D01*
X1502322Y606318D01*
X1502137Y607058D01*
X1502045Y607892D01*
X1501859Y608910D01*
X1501674Y609928D01*
X1501582Y611132D01*
X1501489Y612428D01*
X1501396Y613817D01*
X1501304Y615391D01*
X1501211Y616965D01*
Y618724D01*
Y637240D01*
Y637333D01*
Y637518D01*
Y637888D01*
Y638351D01*
Y638999D01*
Y639647D01*
X1501304Y641129D01*
Y642888D01*
X1501396Y644554D01*
X1501489Y646221D01*
X1501674Y647702D01*
Y647887D01*
X1501767Y648350D01*
X1501952Y648998D01*
X1502230Y649924D01*
X1502600Y650943D01*
X1503063Y652054D01*
X1503711Y653350D01*
X1504544Y654553D01*
X1504637Y654738D01*
X1505007Y655109D01*
X1505563Y655757D01*
X1506303Y656497D01*
X1507322Y657331D01*
X1508525Y658164D01*
X1509821Y659090D01*
X1511395Y659830D01*
X1511488D01*
X1511581Y659923D01*
X1511858Y660016D01*
X1512136Y660108D01*
X1513062Y660479D01*
X1514265Y660849D01*
X1515747Y661127D01*
X1517413Y661497D01*
X1519265Y661682D01*
X1521302Y661775D01*
X1522598D01*
X1523154Y661682D01*
D02*
G37*
%LPC*%
G36*
X1434366Y647980D02*
Y635481D01*
X1434922D01*
X1435292Y635574D01*
X1436033Y635759D01*
X1436774Y636037D01*
X1436959Y636222D01*
X1437051Y636407D01*
X1437236Y636777D01*
X1437422Y637333D01*
X1437514Y638074D01*
X1437699Y639092D01*
Y640388D01*
Y643906D01*
Y643999D01*
Y644369D01*
Y644740D01*
X1437607Y645295D01*
X1437329Y646406D01*
X1437144Y646869D01*
X1436866Y647239D01*
X1436681Y647332D01*
X1436218Y647610D01*
X1435477Y647887D01*
X1434366Y647980D01*
D02*
G37*
%LPD*%
D10*
X1504456Y1348486D02*
G03*
X1504456Y1348486I-2236J0D01*
G01*
X2181220Y1855300D02*
G03*
X2181220Y1855300I-40000J0D01*
G01*
X1272220Y946300D02*
G03*
X1272220Y946300I-40000J0D01*
G01*
X2181220Y945300D02*
G03*
X2181220Y945300I-40000J0D01*
G01*
X1271220Y1855300D02*
G03*
X1271220Y1855300I-40000J0D01*
G01*
X1230362Y1399300D02*
X1239362D01*
Y1390300D02*
Y1399300D01*
X1230362Y1311300D02*
X1239362D01*
Y1320300D01*
X1480220Y1410486D02*
X1486221D01*
X1480220Y1355486D02*
X1486221D01*
X1501221Y1376486D02*
Y1388486D01*
X1465220Y1376486D02*
Y1388486D01*
X1545721Y1489550D02*
X1555721D01*
X1545721Y1479550D02*
Y1489550D01*
Y1479550D02*
X1555721Y1489550D01*
X1665720D02*
X1675720D01*
Y1479550D02*
Y1489550D01*
Y1359550D02*
Y1369550D01*
X1665720Y1359550D02*
X1675720D01*
X1545721D02*
X1555721D01*
X1545721D02*
Y1369550D01*
X1198220Y1109300D02*
X1200220D01*
X1198220Y1089300D02*
X1268220D01*
X1198220Y1159300D02*
X1268220D01*
Y1089300D02*
Y1159300D01*
X1198220Y1139300D02*
Y1159300D01*
Y1089300D02*
Y1109300D01*
Y1139300D02*
X1200220D01*
Y1109300D02*
Y1139300D01*
X1436470Y1810300D02*
X1640470D01*
X1436470D02*
Y1900300D01*
X1640470D01*
Y1810300D02*
Y1900300D01*
X1623470Y1890300D02*
Y1900300D01*
X1603470Y1890300D02*
X1623470D01*
X1603470D02*
Y1900300D01*
X1553470Y1890300D02*
Y1900300D01*
Y1890300D02*
X1573470D01*
Y1900300D01*
X1503470Y1890300D02*
Y1900300D01*
Y1890300D02*
X1523470D01*
Y1900300D01*
X1453470Y1890300D02*
Y1900300D01*
Y1890300D02*
X1473470D01*
Y1900300D01*
X1286584Y900550D02*
Y965550D01*
Y900550D02*
X1392756D01*
Y965550D01*
X1286584D02*
X1392756D01*
X1294670Y900550D02*
Y908050D01*
X1306670D01*
Y900550D02*
Y908050D01*
X1331670Y900550D02*
Y908050D01*
X1319670D02*
X1331670D01*
X1319670Y900550D02*
Y908050D01*
X1356670Y900550D02*
Y908050D01*
X1344670D02*
X1356670D01*
X1344670Y900550D02*
Y908050D01*
X1383670Y900550D02*
Y908050D01*
X1371670D02*
X1383670D01*
X1371670Y900550D02*
Y908050D01*
X1938744Y1347526D02*
Y1380026D01*
X1307220Y1692300D02*
Y1752300D01*
X1367220D01*
Y1692300D02*
Y1752300D01*
X1307220Y1692300D02*
X1367220D01*
X1509220Y1709300D02*
X1516220D01*
X1509220D02*
Y1716300D01*
X1556220Y1709300D02*
X1563220D01*
Y1716300D01*
X1509220Y1778300D02*
X1516220D01*
X1509220Y1771300D02*
Y1778300D01*
X1556220D02*
X1563220D01*
Y1771300D02*
Y1778300D01*
X1726470Y1608300D02*
X1731470D01*
X1726470D02*
Y1612800D01*
Y1630300D02*
X1731470D01*
X1726470Y1625800D02*
Y1630300D01*
X1321362Y1308550D02*
X1329362D01*
Y1304550D02*
Y1308550D01*
X1299362D02*
X1307362D01*
X1299362Y1304550D02*
Y1308550D01*
X1801720Y1581300D02*
X1868720D01*
X1801720Y1555300D02*
X1868720D01*
Y1581300D01*
X1801720Y1555300D02*
Y1581300D01*
X1941220Y1668950D02*
Y1718950D01*
X1957220Y1668950D02*
Y1718950D01*
X1941220D02*
X1957220D01*
X1941220Y1668950D02*
X1957220D01*
X1814720Y1632800D02*
X1818720D01*
Y1634800D01*
Y1632800D02*
Y1634800D01*
X1814720Y1632800D02*
Y1634800D01*
X1818720Y1619800D02*
Y1621800D01*
X1814720Y1619800D02*
Y1621800D01*
Y1632800D02*
Y1634800D01*
Y1619800D02*
X1833720D01*
X1814720Y1634800D02*
X1833720D01*
X1814720Y1619800D02*
Y1621800D01*
X1818720D01*
X1893970Y1744301D02*
Y1756301D01*
X1869970Y1744301D02*
Y1756301D01*
X1893970D01*
X1431470Y1855300D02*
Y1867300D01*
X1407470Y1855300D02*
Y1867300D01*
X1431470D01*
X2001920Y1019299D02*
Y1027300D01*
X1984919Y1019299D02*
Y1027300D01*
X1510720Y1649050D02*
Y1653050D01*
X1519720Y1649050D02*
Y1653050D01*
X1365720Y1139800D02*
Y1145550D01*
X1359970D02*
X1365720D01*
X1313720D02*
X1319470D01*
X1313720Y1139800D02*
Y1145550D01*
Y1093550D02*
Y1099300D01*
Y1093550D02*
X1319470D01*
X1359970D02*
X1365720D01*
Y1099300D01*
X2048320Y1666000D02*
X2138430D01*
X2048320Y1533000D02*
X2138430D01*
X2048320D02*
Y1666000D01*
X2184220Y1067300D02*
X2184220Y1127300D01*
X2124220Y1067300D02*
X2184220D01*
X2137220D02*
X2137220Y1127300D01*
X2124220Y1067300D02*
Y1127300D01*
X2124220D02*
X2184220D01*
X2021220Y1728300D02*
X2045220D01*
X1932220Y1790300D02*
X1942220D01*
Y1725300D02*
Y1790300D01*
X1932220Y1725300D02*
X1942220D01*
X1932220D02*
Y1790300D01*
X1620220Y1639800D02*
Y1648801D01*
X1272120Y1660500D02*
X1284120D01*
X1272120Y1610500D02*
Y1660500D01*
Y1610500D02*
X1284120D01*
Y1464500D02*
Y1804500D01*
X1194120D02*
X1284120D01*
X1194120Y1464500D02*
Y1804500D01*
Y1464500D02*
X1284120D01*
X1972520Y1661200D02*
X1997920D01*
X1972520Y1280200D02*
X1997920D01*
X1972520D02*
Y1299250D01*
Y1661200D01*
X1997920Y1280200D02*
Y1661200D01*
X1994720Y1765800D02*
X2006720D01*
X1994720Y1783800D02*
X2006720D01*
X1583220Y1587300D02*
Y1589300D01*
X1597220Y1587300D02*
Y1589300D01*
X1926720Y1658800D02*
X1928720D01*
X1926720Y1648800D02*
X1928720D01*
X1916220Y1597800D02*
X1940970D01*
X1874970D02*
X1899720D01*
X1940970Y1546800D02*
Y1597800D01*
X1888970Y1531800D02*
X1899720D01*
X1874970Y1545800D02*
X1888970Y1531800D01*
X1874970Y1545800D02*
Y1597800D01*
X1925970Y1531800D02*
X1940970Y1546800D01*
X1916220Y1531800D02*
X1925970D01*
X1428270Y966300D02*
X1446270D01*
X1471270D02*
X1489270D01*
X2024970Y1387550D02*
X2158970D01*
X2024970Y1332550D02*
Y1387550D01*
Y1275550D02*
Y1307550D01*
Y1240550D02*
Y1249550D01*
Y1240550D02*
X2149970D01*
X2172970Y1258550D02*
Y1339550D01*
X2181970Y1348550D01*
Y1370550D01*
X2040720Y1139801D02*
Y1145551D01*
X2034970D02*
X2040720D01*
X1988720D02*
X1994470D01*
X1988720Y1139801D02*
Y1145551D01*
Y1093551D02*
Y1099301D01*
Y1093551D02*
X1994470D01*
X2034970D02*
X2040720D01*
Y1099301D01*
X1816220Y1139800D02*
Y1145550D01*
X1810470D02*
X1816220D01*
X1764220D02*
X1769970D01*
X1764220Y1139800D02*
Y1145550D01*
Y1093550D02*
Y1099300D01*
Y1093550D02*
X1769970D01*
X1810470D02*
X1816220D01*
Y1099300D01*
X1590720Y1139800D02*
Y1145550D01*
X1584970D02*
X1590720D01*
X1538720D02*
X1544470D01*
X1538720Y1139800D02*
Y1145550D01*
Y1093550D02*
Y1099300D01*
Y1093550D02*
X1544470D01*
X1584970D02*
X1590720D01*
Y1099300D01*
X1875720Y1670050D02*
X1887720D01*
X1875720Y1688050D02*
X1887720D01*
X1827220Y1680050D02*
X1831220D01*
X1827220Y1689050D02*
X1831220D01*
X1808220Y1668800D02*
X1812220D01*
X1808220Y1659800D02*
X1812220D01*
X1563220Y1694800D02*
X1567220D01*
X1563220Y1703800D02*
X1567220D01*
X1540970Y1665051D02*
X1544970D01*
X1540970Y1656050D02*
X1544970D01*
X1773220Y1695300D02*
X1780220D01*
X1773220D02*
Y1702300D01*
X1820220Y1695300D02*
X1827220D01*
Y1702300D01*
X1773220Y1764300D02*
X1780220D01*
X1773220Y1757300D02*
Y1764300D01*
X1820220D02*
X1827220D01*
Y1757300D02*
Y1764300D01*
X1949220Y1342800D02*
X1953220D01*
X1949220Y1333800D02*
X1953220D01*
X1765220Y1550800D02*
Y1554800D01*
X1756220Y1550800D02*
Y1554800D01*
X1769720Y1540050D02*
X1793720D01*
X1889471Y1810300D02*
X2093471D01*
X1889471D02*
Y1900300D01*
X2093471D01*
Y1810300D02*
Y1900300D01*
X2076471Y1890300D02*
Y1900300D01*
X2056471Y1890300D02*
X2076471D01*
X2056471D02*
Y1900300D01*
X2006471Y1890300D02*
Y1900300D01*
Y1890300D02*
X2026471D01*
Y1900300D01*
X1956471Y1890300D02*
Y1900300D01*
Y1890300D02*
X1976471D01*
Y1900300D01*
X1906471Y1890300D02*
Y1900300D01*
Y1890300D02*
X1926471D01*
Y1900300D01*
X1837257Y1134566D02*
Y1136566D01*
X1847257Y1134566D02*
Y1136566D01*
X2034720Y1505300D02*
Y1509300D01*
X2043720Y1505300D02*
Y1509300D01*
X2017720Y1504300D02*
Y1508300D01*
X2026720Y1504300D02*
Y1508300D01*
X1313112Y1276050D02*
X1317112D01*
X1313112Y1267050D02*
X1317112D01*
X1705720Y1348800D02*
X1709720D01*
X1705720Y1357800D02*
X1709720D01*
X1759220Y1064550D02*
X1761220D01*
X1759220Y1074550D02*
X1761220D01*
X2071707Y1134566D02*
Y1136566D01*
X2061707Y1134566D02*
Y1136566D01*
X1225220Y1257300D02*
Y1281300D01*
X1671970Y1854550D02*
Y1866550D01*
X1647970Y1854550D02*
Y1866550D01*
X1671970D01*
X2048320Y1805000D02*
X2138430D01*
X2048320Y1672000D02*
X2138430D01*
X2048320D02*
Y1805000D01*
X2048320Y1526000D02*
X2138430D01*
X2048320Y1393000D02*
X2138430D01*
X2048320D02*
Y1526000D01*
X1343720Y1191879D02*
Y1195879D01*
X1352720Y1191879D02*
Y1195879D01*
X1794220Y1191879D02*
Y1195879D01*
X1803220Y1191879D02*
Y1195879D01*
X1778220Y1191879D02*
Y1195879D01*
X1787220Y1191879D02*
Y1195879D01*
X1762220Y1191629D02*
Y1195629D01*
X1771220Y1191629D02*
Y1195629D01*
X1575720Y1586300D02*
Y1590300D01*
X1566720Y1586300D02*
Y1590300D01*
X2016720Y1643300D02*
Y1647300D01*
X2025720Y1643300D02*
Y1647300D01*
X1534971Y1541300D02*
Y1545300D01*
X1525970Y1541300D02*
Y1545300D01*
X2032720Y1643300D02*
Y1647300D01*
X2041720Y1643300D02*
Y1647300D01*
X1375720Y1642300D02*
Y1646300D01*
X1366720Y1642300D02*
Y1646300D01*
X1550971Y1541300D02*
Y1545300D01*
X1541971Y1541300D02*
Y1545300D01*
X2024220Y1678800D02*
X2028220D01*
X2024220Y1687800D02*
X2028220D01*
X1575720Y1633300D02*
Y1637300D01*
X1566720Y1633300D02*
Y1637300D01*
X1581221Y1520300D02*
X1583221D01*
X1581221Y1510300D02*
X1583221D01*
X1583220Y1634300D02*
Y1636300D01*
X1597220Y1634300D02*
Y1636300D01*
X1367220Y1809300D02*
Y1869300D01*
X1307220Y1809300D02*
X1367220D01*
X1307220D02*
Y1869300D01*
X1367220D01*
X1869220Y1425050D02*
Y1429050D01*
X1878220Y1425050D02*
Y1429050D01*
X1890657Y1184301D02*
X1894657D01*
X1890657Y1175300D02*
X1894657D01*
X1666207Y1184301D02*
X1670207D01*
X1666207Y1175300D02*
X1670207D01*
X1980171Y1192630D02*
Y1196630D01*
X1971170Y1192630D02*
Y1196630D01*
X1755720Y1192629D02*
Y1196629D01*
X1746720Y1192629D02*
Y1196629D01*
X1295362Y1355050D02*
X1299362D01*
X1295362Y1346050D02*
X1299362D01*
X1295362Y1371801D02*
X1299362D01*
X1295362Y1362800D02*
X1299362D01*
X1250220Y1431801D02*
X1254220D01*
X1250220Y1422800D02*
X1254220D01*
X1293862Y1321300D02*
Y1325300D01*
X1284862Y1321300D02*
Y1325300D01*
X1290720Y1642300D02*
Y1646300D01*
X1299720Y1642300D02*
Y1646300D01*
X1290720Y1606300D02*
Y1610300D01*
X1299720Y1606300D02*
Y1610300D01*
X1290720Y1570300D02*
Y1574300D01*
X1299720Y1570300D02*
Y1574300D01*
X1293112Y1279300D02*
Y1283300D01*
X1284112Y1279300D02*
Y1283300D01*
X1290720Y1534300D02*
Y1538300D01*
X1299720Y1534300D02*
Y1538300D01*
X1290720Y1498300D02*
Y1502300D01*
X1299720Y1498300D02*
Y1502300D01*
X1289220Y1829300D02*
Y1833300D01*
X1280220Y1829300D02*
Y1833300D01*
X2047420Y1179379D02*
X2051420D01*
X2047420Y1188380D02*
X2051420D01*
X1822970Y1179379D02*
X1826970D01*
X1822970Y1188379D02*
X1826970D01*
X1890657Y1157300D02*
X1894657D01*
X1890657Y1166300D02*
X1894657D01*
X1666207Y1157300D02*
X1670207D01*
X1666207Y1166300D02*
X1670207D01*
X1954170Y1191379D02*
Y1195379D01*
X1963170Y1191379D02*
Y1195379D01*
X1986670Y1191629D02*
Y1195629D01*
X1995670Y1191629D02*
Y1195629D01*
X2002670Y1191879D02*
Y1195879D01*
X2011670Y1191879D02*
Y1195879D01*
X2018670Y1191879D02*
Y1195879D01*
X2027670Y1191879D02*
Y1195879D01*
X1729720Y1191379D02*
Y1195379D01*
X1738720Y1191379D02*
Y1195379D01*
X1440757Y1184301D02*
X1444757D01*
X1440757Y1175300D02*
X1444757D01*
X1217220Y1210800D02*
X1221220D01*
X1217220Y1201800D02*
X1221220D01*
X1530270Y1192630D02*
Y1196630D01*
X1521270Y1192630D02*
Y1196630D01*
X1305220Y1192630D02*
Y1196630D01*
X1296220Y1192630D02*
Y1196630D01*
X1552020Y1019299D02*
Y1027300D01*
X1535020Y1019299D02*
Y1027300D01*
X1594020Y1019299D02*
Y1027300D01*
X1577020Y1019299D02*
Y1027300D01*
X1326970Y1019299D02*
Y1027300D01*
X1309969Y1019299D02*
Y1027300D01*
X1368970Y1019299D02*
Y1027300D01*
X1351970Y1019299D02*
Y1027300D01*
X1372471Y1179379D02*
X1376471D01*
X1372471Y1188379D02*
X1376471D01*
X1440758Y1157300D02*
X1444758D01*
X1440758Y1166300D02*
X1444758D01*
X1216220Y1181800D02*
X1220220D01*
X1216220Y1190800D02*
X1220220D01*
X1504270Y1191379D02*
Y1195379D01*
X1513270Y1191379D02*
Y1195379D01*
X1536770Y1191629D02*
Y1195630D01*
X1545770Y1191629D02*
Y1195630D01*
X1552720Y1191879D02*
Y1195879D01*
X1561720Y1191879D02*
Y1195879D01*
X1568770Y1191880D02*
Y1195879D01*
X1577770Y1191880D02*
Y1195879D01*
X1279220Y1191300D02*
Y1195300D01*
X1288220Y1191300D02*
Y1195300D01*
X1311720Y1191629D02*
Y1195629D01*
X1320720Y1191629D02*
Y1195629D01*
X1327720Y1191879D02*
Y1195879D01*
X1336720Y1191879D02*
Y1195879D01*
X1845720Y1442050D02*
X1850720D01*
Y1437550D02*
Y1442050D01*
X1845720Y1420050D02*
X1850720D01*
Y1424550D01*
X1877657Y1209800D02*
Y1214800D01*
X1882157D01*
X1899657Y1209800D02*
Y1214800D01*
X1895157D02*
X1899657D01*
X1653207Y1209800D02*
Y1214800D01*
X1657707D01*
X1675207Y1209800D02*
Y1214800D01*
X1670707D02*
X1675207D01*
X1427757Y1209800D02*
Y1214800D01*
X1432257D01*
X1449757Y1209800D02*
Y1214800D01*
X1445257D02*
X1449757D01*
X1203220Y1236300D02*
Y1241300D01*
X1207720D01*
X1225220Y1236300D02*
Y1241300D01*
X1220720D02*
X1225220D01*
X1872720Y1079300D02*
X1874720D01*
X1872720Y1059300D02*
X1942720D01*
X1872720Y1129300D02*
X1942720D01*
Y1059300D02*
Y1129300D01*
X1872720Y1109300D02*
Y1129300D01*
Y1059300D02*
Y1079300D01*
Y1109300D02*
X1874720D01*
Y1079300D02*
Y1109300D01*
X1648220Y1079300D02*
X1650220D01*
X1648220Y1059300D02*
X1718220D01*
X1648220Y1129300D02*
X1718220D01*
Y1059300D02*
Y1129300D01*
X1648220Y1109300D02*
Y1129300D01*
Y1059300D02*
Y1079300D01*
Y1109300D02*
X1650220D01*
Y1079300D02*
Y1109300D01*
X1422720Y1079300D02*
X1424720D01*
X1422720Y1059300D02*
X1492720D01*
X1422720Y1129300D02*
X1492720D01*
Y1059300D02*
Y1129300D01*
X1422720Y1109300D02*
Y1129300D01*
Y1059300D02*
Y1079300D01*
Y1109300D02*
X1424720D01*
Y1079300D02*
Y1109300D01*
X1456721Y1561100D02*
X1465721D01*
X1508721D02*
X1517721D01*
X1468770Y1456800D02*
Y1465800D01*
X1468220Y1508550D02*
Y1517550D01*
X1619220Y1574800D02*
Y1583801D01*
X1620220Y1621800D02*
Y1630801D01*
X1619220Y1592800D02*
Y1601801D01*
X1678919Y1810300D02*
X1882919D01*
X1678919D02*
Y1900300D01*
X1882919D01*
Y1810300D02*
Y1900300D01*
X1865919Y1890300D02*
Y1900300D01*
X1845919Y1890300D02*
X1865919D01*
X1845919D02*
Y1900300D01*
X1795919Y1890300D02*
Y1900300D01*
Y1890300D02*
X1815919D01*
Y1900300D01*
X1745919Y1890300D02*
Y1900300D01*
Y1890300D02*
X1765919D01*
Y1900300D01*
X1695919Y1890300D02*
Y1900300D01*
Y1890300D02*
X1715919D01*
Y1900300D01*
X1961884Y900550D02*
Y965550D01*
Y900550D02*
X2068056D01*
Y965550D01*
X1961884D02*
X2068056D01*
X1969970Y900550D02*
Y908050D01*
X1981970D01*
Y900550D02*
Y908050D01*
X2006970Y900550D02*
Y908050D01*
X1994970D02*
X2006970D01*
X1994970Y900550D02*
Y908050D01*
X2031970Y900550D02*
Y908050D01*
X2019970D02*
X2031970D01*
X2019970Y900550D02*
Y908050D01*
X2058970Y900550D02*
Y908050D01*
X2046970D02*
X2058970D01*
X2046970Y900550D02*
Y908050D01*
X1737084Y900550D02*
Y965550D01*
Y900550D02*
X1843256D01*
Y965550D01*
X1737084D02*
X1843256D01*
X1745170Y900550D02*
Y908050D01*
X1757170D01*
Y900550D02*
Y908050D01*
X1782170Y900550D02*
Y908050D01*
X1770170D02*
X1782170D01*
X1770170Y900550D02*
Y908050D01*
X1807170Y900550D02*
Y908050D01*
X1795170D02*
X1807170D01*
X1795170Y900550D02*
Y908050D01*
X1834170Y900550D02*
Y908050D01*
X1822170D02*
X1834170D01*
X1822170Y900550D02*
Y908050D01*
X1511634Y900550D02*
Y965550D01*
Y900550D02*
X1617806D01*
Y965550D01*
X1511634D02*
X1617806D01*
X1519720Y900550D02*
Y908050D01*
X1531720D01*
Y900550D02*
Y908050D01*
X1556720Y900550D02*
Y908050D01*
X1544720D02*
X1556720D01*
X1544720Y900550D02*
Y908050D01*
X1581720Y900550D02*
Y908050D01*
X1569720D02*
X1581720D01*
X1569720Y900550D02*
Y908050D01*
X1608720Y900550D02*
Y908050D01*
X1596720D02*
X1608720D01*
X1596720Y900550D02*
Y908050D01*
X1463720Y1652550D02*
Y1676550D01*
X1731470Y1648800D02*
Y1672800D01*
X2020490Y1459300D02*
X2044490D01*
X1918657Y1197800D02*
X1942657D01*
X1694207Y1197800D02*
X1718207D01*
X2021490Y1597800D02*
X2045490D01*
X1468757Y1197800D02*
X1492757D01*
X1245220Y1225300D02*
X1269220D01*
X1279720Y1866300D02*
Y1868300D01*
X1289720Y1866300D02*
Y1868300D01*
X1333220Y1643300D02*
Y1645300D01*
X1323220Y1643300D02*
Y1645300D01*
X1891670Y1140630D02*
X1893670D01*
X1891670Y1150630D02*
X1893670D01*
X1667220Y1140629D02*
X1669220D01*
X1667220Y1150629D02*
X1669220D01*
X1486221Y1528300D02*
X1488221D01*
X1486221Y1538300D02*
X1488221D01*
X1822970Y1172129D02*
X1824970D01*
X1822970Y1162129D02*
X1824970D01*
X1446221Y1486300D02*
Y1488300D01*
X1436221Y1486300D02*
Y1488300D01*
X1466221Y1486300D02*
Y1488300D01*
X1456221Y1486300D02*
Y1488300D01*
X2043420Y1074800D02*
X2045420D01*
X2043420Y1064800D02*
X2045420D01*
X1709220Y1383300D02*
Y1385300D01*
X1699220Y1383300D02*
Y1385300D01*
X1537720Y1342300D02*
X1539720D01*
X1537720Y1332300D02*
X1539720D01*
X1624220Y1327300D02*
X1626220D01*
X1624220Y1337300D02*
X1626220D01*
X1699220Y1453300D02*
Y1455300D01*
X1709220Y1453300D02*
Y1455300D01*
X1216720Y1164880D02*
X1218720D01*
X1216720Y1174880D02*
X1218720D01*
X2047420Y1172130D02*
X2049420D01*
X2047420Y1162130D02*
X2049420D01*
X1533770Y1064550D02*
X1535770D01*
X1533770Y1074550D02*
X1535770D01*
X1368470Y1064800D02*
X1370470D01*
X1368470Y1074800D02*
X1370470D01*
X1597520Y1172300D02*
X1599520D01*
X1597520Y1162300D02*
X1599520D01*
X1372470Y1172130D02*
X1374470D01*
X1372470Y1162130D02*
X1374470D01*
X1621470Y1134566D02*
Y1136566D01*
X1611470Y1134566D02*
Y1136566D01*
X1386757Y1134566D02*
Y1136566D01*
X1396757Y1134566D02*
Y1136566D01*
X1819470Y1019300D02*
Y1027300D01*
X1802470Y1019300D02*
Y1027300D01*
X1777470Y1019300D02*
Y1027300D01*
X1760470Y1019300D02*
Y1027300D01*
X2043920Y1019299D02*
Y1027300D01*
X2026919Y1019299D02*
Y1027300D01*
X1288220Y1150300D02*
Y1152300D01*
X1298220Y1150300D02*
Y1152300D01*
X1272220Y1180300D02*
Y1182300D01*
X1258220Y1180300D02*
Y1182300D01*
X1495770Y1135630D02*
X1497770D01*
X1495770Y1145630D02*
X1497770D01*
X1495770Y1166300D02*
X1497770D01*
X1495770Y1152300D02*
X1497770D01*
X1721220Y1135629D02*
X1723220D01*
X1721220Y1145629D02*
X1723220D01*
X1721220Y1166300D02*
X1723220D01*
X1721220Y1152300D02*
X1723220D01*
X1945670Y1135630D02*
X1947670D01*
X1945670Y1145630D02*
X1947670D01*
X1945670Y1166300D02*
X1947670D01*
X1945670Y1152300D02*
X1947670D01*
X1308720Y1064550D02*
X1310720D01*
X1308720Y1074550D02*
X1310720D01*
X1593520Y1074800D02*
X1595520D01*
X1593520Y1064800D02*
X1595520D01*
X1818970Y1074800D02*
X1820970D01*
X1818970Y1064800D02*
X1820970D01*
X1983670Y1064550D02*
X1985670D01*
X1983670Y1074550D02*
X1985670D01*
X1402957Y1153800D02*
Y1155800D01*
X1412957Y1153800D02*
Y1155800D01*
X1628220Y1153800D02*
Y1155800D01*
X1638220Y1153800D02*
Y1155800D01*
X1853457Y1153800D02*
Y1155800D01*
X1863457Y1153800D02*
Y1155800D01*
X2077907Y1153800D02*
Y1155800D01*
X2087907Y1153800D02*
Y1155800D01*
X1802720Y1442551D02*
X1806720D01*
X1802720Y1433550D02*
X1806720D01*
X1802720Y1425551D02*
X1806720D01*
X1802720Y1416550D02*
X1806720D01*
X1218220Y1293801D02*
X1222220D01*
X1218220Y1284800D02*
X1222220D01*
X2016720Y1730300D02*
Y1734300D01*
X2007720Y1730300D02*
Y1734300D01*
X1690708Y1203800D02*
Y1207800D01*
X1681707Y1203800D02*
Y1207800D01*
X1915157Y1203801D02*
Y1207801D01*
X1906157Y1203801D02*
Y1207801D01*
X1465258Y1203801D02*
Y1207801D01*
X1456257Y1203801D02*
Y1207801D01*
X1240720Y1230300D02*
Y1234300D01*
X1231720Y1230300D02*
Y1234300D01*
X1895471Y1425550D02*
Y1429550D01*
X1886470Y1425550D02*
Y1429550D01*
X1441770Y1150300D02*
X1443770D01*
X1441770Y1140300D02*
X1443770D01*
X2108220Y1027300D02*
Y1029300D01*
X2118220Y1027300D02*
Y1029300D01*
X1337520Y1661200D02*
X1362920D01*
X1337520Y1280200D02*
X1362920D01*
X1337520D02*
Y1299250D01*
Y1661200D01*
X1362920Y1280200D02*
Y1661200D01*
X2184220Y997300D02*
X2184220Y1057300D01*
X2124220Y997300D02*
X2184220D01*
X2137220D02*
X2137220Y1057300D01*
X2124220Y997300D02*
Y1057300D01*
X2124220D02*
X2184220D01*
X2119220Y1086300D02*
Y1098300D01*
X2101220Y1086300D02*
Y1098300D01*
X2147720Y1131800D02*
X2151720D01*
X2147720Y1129800D02*
Y1131800D01*
Y1144800D02*
X2166720D01*
X2147720Y1129800D02*
X2166720D01*
X2147720Y1142800D02*
Y1144800D01*
Y1129800D02*
Y1131800D01*
X2151720Y1129800D02*
Y1131800D01*
X2147720Y1142800D02*
Y1144800D01*
X2151720Y1142800D02*
Y1144800D01*
Y1142800D02*
Y1144800D01*
X2147720Y1142800D02*
X2151720D01*
X2102220Y1200300D02*
X2107220D01*
Y1195800D02*
Y1200300D01*
X2102220Y1178300D02*
X2107220D01*
Y1182800D01*
X2096220Y1205800D02*
X2100220D01*
X2096220Y1214800D02*
X2100220D01*
X2096220Y1231801D02*
X2100220D01*
X2096220Y1222800D02*
X2100220D01*
X1328362Y1339300D02*
Y1341300D01*
X1318362Y1339300D02*
Y1341300D01*
Y1376300D02*
Y1378300D01*
X1328362Y1376300D02*
Y1378300D01*
X1251220Y1438300D02*
X1253220D01*
X1251220Y1448300D02*
X1253220D01*
X2025220Y1704300D02*
X2027220D01*
X2025220Y1694300D02*
X2027220D01*
X2028220Y1559050D02*
Y1561050D01*
X2038220Y1559050D02*
Y1561050D01*
X2027470Y1420550D02*
Y1422550D01*
X2037470Y1420550D02*
Y1422550D01*
X1597520Y1179379D02*
X1601520D01*
X1597520Y1188380D02*
X1601520D01*
X1482220Y1348300D02*
X1484220D01*
X1482220Y1338300D02*
X1484220D01*
X1482220Y1417300D02*
X1484220D01*
X1482220Y1427300D02*
X1484220D01*
X1486221Y1547300D02*
X1488221D01*
X1486221Y1557300D02*
X1488221D01*
X1629220Y1510300D02*
X1631221D01*
X1629220Y1520300D02*
X1631221D01*
X1615220Y1587300D02*
Y1589300D01*
X1605220Y1587300D02*
Y1589300D01*
X1615220Y1634300D02*
Y1636300D01*
X1605220Y1634300D02*
Y1636300D01*
X1203120Y1005380D02*
X1221120D01*
X1246120D02*
X1264120D01*
X1878170Y966300D02*
X1896170D01*
X1921170D02*
X1939170D01*
X1653720D02*
X1671720D01*
X1696720D02*
X1714720D01*
X1926220Y1636300D02*
X1928220D01*
X1926220Y1626300D02*
X1928220D01*
X1904220Y1648550D02*
Y1650550D01*
X1894220Y1648550D02*
Y1650550D01*
X1980720Y1742300D02*
Y1746300D01*
X1989720Y1742300D02*
Y1746300D01*
X1962720Y1641300D02*
Y1645300D01*
X1953720Y1641300D02*
Y1645300D01*
X1458970Y1612300D02*
X1463970D01*
X1458970D02*
Y1616800D01*
Y1634300D02*
X1463970D01*
X1458970Y1629800D02*
Y1634300D01*
X1731470Y1645551D02*
X1735470D01*
X1731470Y1636550D02*
X1735470D01*
X1463470Y1649550D02*
X1467470D01*
X1463470Y1640550D02*
X1467470D01*
X1731470Y1603051D02*
X1735470D01*
X1731470Y1594050D02*
X1735470D01*
X1463470Y1607050D02*
X1467470D01*
X1463470Y1598050D02*
X1467470D01*
X1772720Y1668800D02*
X1776720D01*
X1772720Y1659800D02*
X1776720D01*
X2151127Y1059300D02*
X2150650Y1060252D01*
X2149222Y1061681D01*
X2159220D01*
X2151127Y989300D02*
X2150650Y990252D01*
X2149222Y991681D01*
X2159220D01*
D49*
X1375962Y1095928D02*
G03*
X1375962Y1095928I-2500J0D01*
G01*
X2050962Y1095929D02*
G03*
X2050962Y1095929I-2500J0D01*
G01*
X1826462Y1095928D02*
G03*
X1826462Y1095928I-2500J0D01*
G01*
X1600962D02*
G03*
X1600962Y1095928I-2500J0D01*
G01*
X1405029Y945292D02*
X1429785Y905300D01*
X1406933Y945292D02*
X1431690Y905300D01*
Y945292D02*
X1405029Y905300D01*
X1401220Y945292D02*
X1412646D01*
X1424072D02*
X1435499D01*
X1401220Y905300D02*
X1412646D01*
X1424072D02*
X1435499D01*
X1628029Y945292D02*
X1641359Y924344D01*
Y905300D01*
X1629933Y945292D02*
X1643264Y924344D01*
Y905300D01*
X1656594Y945292D02*
X1643264Y924344D01*
X1624220Y945292D02*
X1635646D01*
X1648977D02*
X1660403D01*
X1635646Y905300D02*
X1648977D01*
X1875977Y945292D02*
X1851220Y905300D01*
X1877881Y945292D02*
X1853125Y905300D01*
Y945292D02*
X1851220Y933866D01*
Y945292D01*
X1877881D01*
X1851220Y905300D02*
X1877881D01*
Y916726D01*
X1875977Y905300D01*
X1930933Y945292D02*
Y905300D01*
X1932838Y945292D02*
Y905300D01*
X1944264Y933866D02*
Y918631D01*
X1925220Y945292D02*
X1955690D01*
Y933866D01*
X1953785Y945292D01*
X1932838Y926248D02*
X1944264D01*
X1925220Y905300D02*
X1955690D01*
Y916726D01*
X1953785Y905300D01*
D50*
X1869970Y1597800D02*
G03*
X1869970Y1597800I-1250J0D01*
G01*
X1925969Y1722000D02*
G03*
X1925969Y1722000I-1250J0D01*
G01*
D51*
X1203219Y1423798D02*
X1200719D01*
X1201969D01*
Y1417550D01*
X1200719Y1416300D01*
X1199470D01*
X1198220Y1417550D01*
X1205718Y1416300D02*
X1208217D01*
X1206967D01*
Y1423798D01*
X1205718Y1422548D01*
X1211966Y1416300D02*
X1214465D01*
X1213215D01*
Y1423798D01*
X1211966Y1422548D01*
X1505970Y1388548D02*
X1510969Y1381050D01*
Y1388548D02*
X1505970Y1381050D01*
X1518466D02*
X1513468D01*
X1518466Y1386049D01*
Y1387298D01*
X1517217Y1388548D01*
X1514718D01*
X1513468Y1387298D01*
X1686971Y1517298D02*
Y1511050D01*
X1688220Y1509800D01*
X1690719D01*
X1691969Y1511050D01*
Y1517298D01*
X1699467D02*
X1694468D01*
Y1513549D01*
X1696967Y1514799D01*
X1698217D01*
X1699467Y1513549D01*
Y1511050D01*
X1698217Y1509800D01*
X1695718D01*
X1694468Y1511050D01*
X1272970Y1094800D02*
Y1102298D01*
X1276719D01*
X1277969Y1101048D01*
Y1098549D01*
X1276719Y1097299D01*
X1272970D01*
X1280468Y1094800D02*
X1282967D01*
X1281717D01*
Y1102298D01*
X1280468Y1101048D01*
X1645219Y1801798D02*
X1642719D01*
X1643969D01*
Y1795550D01*
X1642719Y1794300D01*
X1641470D01*
X1640220Y1795550D01*
X1647718Y1801798D02*
X1652716D01*
Y1800548D01*
X1647718Y1795550D01*
Y1794300D01*
X1302218Y977798D02*
X1299719D01*
X1300969D01*
Y971550D01*
X1299719Y970300D01*
X1298470D01*
X1297220Y971550D01*
X1304718Y970300D02*
X1307217D01*
X1305967D01*
Y977798D01*
X1304718Y976548D01*
X1761220Y1317798D02*
Y1310300D01*
X1766219D01*
X1773716Y1316548D02*
X1772466Y1317798D01*
X1769967D01*
X1768718Y1316548D01*
Y1315299D01*
X1769967Y1314049D01*
X1772466D01*
X1773716Y1312799D01*
Y1311550D01*
X1772466Y1310300D01*
X1769967D01*
X1768718Y1311550D01*
X1776215Y1310300D02*
X1778714D01*
X1777465D01*
Y1317798D01*
X1776215Y1316548D01*
X1931219Y1391548D02*
X1929969Y1392798D01*
X1927470D01*
X1926220Y1391548D01*
Y1386550D01*
X1927470Y1385300D01*
X1929969D01*
X1931219Y1386550D01*
X1938716Y1392798D02*
X1933718D01*
Y1389049D01*
X1936217Y1390299D01*
X1937466D01*
X1938716Y1389049D01*
Y1386550D01*
X1937466Y1385300D01*
X1934967D01*
X1933718Y1386550D01*
X1941215Y1392798D02*
X1946214D01*
Y1391548D01*
X1941215Y1386550D01*
Y1385300D01*
X1377218Y1680548D02*
X1375969Y1681798D01*
X1373470D01*
X1372220Y1680548D01*
Y1679299D01*
X1373470Y1678049D01*
X1375969D01*
X1377218Y1676799D01*
Y1675550D01*
X1375969Y1674300D01*
X1373470D01*
X1372220Y1675550D01*
X1379718Y1674300D02*
X1382217D01*
X1380967D01*
Y1681798D01*
X1379718Y1680548D01*
X1572218Y1721550D02*
Y1726548D01*
X1570969Y1727798D01*
X1568470D01*
X1567220Y1726548D01*
Y1721550D01*
X1568470Y1720300D01*
X1570969D01*
X1569719Y1722799D02*
X1572218Y1720300D01*
X1570969D02*
X1572218Y1721550D01*
X1574718Y1720300D02*
X1577217D01*
X1575967D01*
Y1727798D01*
X1574718Y1726548D01*
X1584715Y1720300D02*
Y1727798D01*
X1580966Y1724049D01*
X1585964D01*
X1703390Y1624469D02*
Y1629467D01*
X1702141Y1630717D01*
X1699641D01*
X1698392Y1629467D01*
Y1624469D01*
X1699641Y1623219D01*
X1702141D01*
X1700891Y1625718D02*
X1703390Y1623219D01*
X1702141D02*
X1703390Y1624469D01*
X1710888Y1630717D02*
X1708389Y1629467D01*
X1705889Y1626968D01*
Y1624469D01*
X1707139Y1623219D01*
X1709638D01*
X1710888Y1624469D01*
Y1625718D01*
X1709638Y1626968D01*
X1705889D01*
X1346219Y1269050D02*
Y1274048D01*
X1344969Y1275298D01*
X1342470D01*
X1341220Y1274048D01*
Y1269050D01*
X1342470Y1267800D01*
X1344969D01*
X1343719Y1270299D02*
X1346219Y1267800D01*
X1344969D02*
X1346219Y1269050D01*
X1348718Y1275298D02*
X1353716D01*
Y1274048D01*
X1348718Y1269050D01*
Y1267800D01*
X1829220Y1518798D02*
Y1512550D01*
X1830470Y1511300D01*
X1832969D01*
X1834218Y1512550D01*
Y1518798D01*
X1836718Y1511300D02*
X1839217D01*
X1837967D01*
Y1518798D01*
X1836718Y1517548D01*
X1842966D02*
X1844215Y1518798D01*
X1846714D01*
X1847964Y1517548D01*
Y1512550D01*
X1846714Y1511300D01*
X1844215D01*
X1842966Y1512550D01*
Y1517548D01*
X1891220Y1700298D02*
Y1694050D01*
X1892470Y1692800D01*
X1894969D01*
X1896219Y1694050D01*
Y1700298D01*
X1903716D02*
X1901217Y1699048D01*
X1898718Y1696549D01*
Y1694050D01*
X1899967Y1692800D01*
X1902466D01*
X1903716Y1694050D01*
Y1695299D01*
X1902466Y1696549D01*
X1898718D01*
X1782220Y1630524D02*
Y1623026D01*
X1785969D01*
X1787218Y1624276D01*
Y1629274D01*
X1785969Y1630524D01*
X1782220D01*
X1789718Y1623026D02*
X1792217D01*
X1790967D01*
Y1630524D01*
X1789718Y1629274D01*
X1795966Y1624276D02*
X1797215Y1623026D01*
X1799715D01*
X1800964Y1624276D01*
Y1629274D01*
X1799715Y1630524D01*
X1797215D01*
X1795966Y1629274D01*
Y1628025D01*
X1797215Y1626775D01*
X1800964D01*
X1887220Y1714798D02*
Y1707300D01*
X1890969D01*
X1892218Y1708550D01*
Y1713548D01*
X1890969Y1714798D01*
X1887220D01*
X1894718Y1707300D02*
X1897217D01*
X1895967D01*
Y1714798D01*
X1894718Y1713548D01*
X1905964Y1707300D02*
X1900966D01*
X1905964Y1712299D01*
Y1713548D01*
X1904715Y1714798D01*
X1902215D01*
X1900966Y1713548D01*
X1410220Y1822798D02*
Y1815300D01*
X1413969D01*
X1415219Y1816550D01*
Y1821548D01*
X1413969Y1822798D01*
X1410220D01*
X1417718Y1815300D02*
X1420217D01*
X1418967D01*
Y1822798D01*
X1417718Y1821548D01*
X1428964Y1822798D02*
X1426465Y1821548D01*
X1423966Y1819049D01*
Y1816550D01*
X1425215Y1815300D01*
X1427715D01*
X1428964Y1816550D01*
Y1817799D01*
X1427715Y1819049D01*
X1423966D01*
X1978770Y1024200D02*
X1971273D01*
Y1027949D01*
X1972522Y1029199D01*
X1975021D01*
X1976271Y1027949D01*
Y1024200D01*
Y1026700D02*
X1978770Y1029199D01*
X1971273Y1036696D02*
Y1031698D01*
X1975021D01*
X1973772Y1034197D01*
Y1035447D01*
X1975021Y1036696D01*
X1977521D01*
X1978770Y1035447D01*
Y1032947D01*
X1977521Y1031698D01*
X1978770Y1044194D02*
Y1039195D01*
X1973772Y1044194D01*
X1972522D01*
X1971273Y1042944D01*
Y1040445D01*
X1972522Y1039195D01*
X1505220Y1638300D02*
X1497722D01*
Y1642049D01*
X1498972Y1643299D01*
X1501471D01*
X1502721Y1642049D01*
Y1638300D01*
Y1640799D02*
X1505220Y1643299D01*
Y1645798D02*
Y1648297D01*
Y1647047D01*
X1497722D01*
X1498972Y1645798D01*
Y1652046D02*
X1497722Y1653295D01*
Y1655795D01*
X1498972Y1657044D01*
X1503970D01*
X1505220Y1655795D01*
Y1653295D01*
X1503970Y1652046D01*
X1498972D01*
X1497722Y1664542D02*
Y1659543D01*
X1501471D01*
X1500222Y1662043D01*
Y1663292D01*
X1501471Y1664542D01*
X1503970D01*
X1505220Y1663292D01*
Y1660793D01*
X1503970Y1659543D01*
X1391220Y1100798D02*
Y1094550D01*
X1392470Y1093300D01*
X1394969D01*
X1396219Y1094550D01*
Y1100798D01*
X1398718Y1093300D02*
X1401217D01*
X1399967D01*
Y1100798D01*
X1398718Y1099548D01*
X2001223Y1585299D02*
Y1582799D01*
Y1584049D01*
X2007471D01*
X2008720Y1582799D01*
Y1581550D01*
X2007471Y1580300D01*
X2001223Y1592796D02*
X2002472Y1590297D01*
X2004971Y1587798D01*
X2007471D01*
X2008720Y1589047D01*
Y1591547D01*
X2007471Y1592796D01*
X2006221D01*
X2004971Y1591547D01*
Y1587798D01*
X2112722Y1129299D02*
Y1126799D01*
Y1128049D01*
X2118970D01*
X2120220Y1126799D01*
Y1125550D01*
X2118970Y1124300D01*
X2120220Y1136796D02*
Y1131798D01*
X2115222Y1136796D01*
X2113972D01*
X2112722Y1135547D01*
Y1133047D01*
X2113972Y1131798D01*
X2120220Y1143044D02*
X2112722D01*
X2116471Y1139295D01*
Y1144294D01*
X2033723Y1760300D02*
X2041220D01*
Y1764049D01*
X2039971Y1765299D01*
X2034972D01*
X2033723Y1764049D01*
Y1760300D01*
X2041220Y1767798D02*
Y1770297D01*
Y1769047D01*
X2033723D01*
X2034972Y1767798D01*
X1968723Y1770300D02*
X1976220D01*
Y1775299D01*
Y1777798D02*
Y1780297D01*
Y1779047D01*
X1968723D01*
X1969972Y1777798D01*
Y1784046D02*
X1968723Y1785295D01*
Y1787795D01*
X1969972Y1789044D01*
X1971222D01*
X1972471Y1787795D01*
Y1786545D01*
Y1787795D01*
X1973721Y1789044D01*
X1974971D01*
X1976220Y1787795D01*
Y1785295D01*
X1974971Y1784046D01*
X1658220Y1621798D02*
Y1614300D01*
X1663219D01*
X1665718D02*
X1668217D01*
X1666967D01*
Y1621798D01*
X1665718Y1620548D01*
X1203219Y1447798D02*
X1200719D01*
X1201969D01*
Y1441550D01*
X1200719Y1440300D01*
X1199470D01*
X1198220Y1441550D01*
X1210716Y1440300D02*
X1205718D01*
X1210716Y1445299D01*
Y1446548D01*
X1209466Y1447798D01*
X1206967D01*
X1205718Y1446548D01*
X1218214Y1440300D02*
X1213215D01*
X1218214Y1445299D01*
Y1446548D01*
X1216964Y1447798D01*
X1214465D01*
X1213215Y1446548D01*
X1978719Y1275298D02*
X1976219D01*
X1977469D01*
Y1269050D01*
X1976219Y1267800D01*
X1974970D01*
X1973720Y1269050D01*
X1986216Y1267800D02*
X1981218D01*
X1986216Y1272799D01*
Y1274048D01*
X1984966Y1275298D01*
X1982467D01*
X1981218Y1274048D01*
X1988715D02*
X1989965Y1275298D01*
X1992464D01*
X1993714Y1274048D01*
Y1269050D01*
X1992464Y1267800D01*
X1989965D01*
X1988715Y1269050D01*
Y1274048D01*
X2000219Y1758548D02*
X1998969Y1759798D01*
X1996470D01*
X1995220Y1758548D01*
Y1753550D01*
X1996470Y1752300D01*
X1998969D01*
X2000219Y1753550D01*
X2007716Y1759798D02*
X2005217Y1758548D01*
X2002718Y1756049D01*
Y1753550D01*
X2003967Y1752300D01*
X2006467D01*
X2007716Y1753550D01*
Y1754799D01*
X2006467Y1756049D01*
X2002718D01*
X2010215Y1758548D02*
X2011465Y1759798D01*
X2013964D01*
X2015214Y1758548D01*
Y1757299D01*
X2013964Y1756049D01*
X2012715D01*
X2013964D01*
X2015214Y1754799D01*
Y1753550D01*
X2013964Y1752300D01*
X2011465D01*
X2010215Y1753550D01*
X1587972Y1548299D02*
X1586723Y1547049D01*
Y1544550D01*
X1587972Y1543300D01*
X1592970D01*
X1594220Y1544550D01*
Y1547049D01*
X1592970Y1548299D01*
X1594220Y1554547D02*
X1586723D01*
X1590471Y1550798D01*
Y1555796D01*
X1587972Y1558295D02*
X1586723Y1559545D01*
Y1562044D01*
X1587972Y1563294D01*
X1592970D01*
X1594220Y1562044D01*
Y1559545D01*
X1592970Y1558295D01*
X1587972D01*
X1920219Y1668048D02*
X1918969Y1669298D01*
X1916470D01*
X1915220Y1668048D01*
Y1663050D01*
X1916470Y1661800D01*
X1918969D01*
X1920219Y1663050D01*
X1927716Y1669298D02*
X1925217Y1668048D01*
X1922718Y1665549D01*
Y1663050D01*
X1923967Y1661800D01*
X1926467D01*
X1927716Y1663050D01*
Y1664299D01*
X1926467Y1665549D01*
X1922718D01*
X1930215Y1669298D02*
X1935214D01*
Y1668048D01*
X1930215Y1663050D01*
Y1661800D01*
X1903219Y1517548D02*
X1901969Y1518798D01*
X1899470D01*
X1898220Y1517548D01*
Y1512550D01*
X1899470Y1511300D01*
X1901969D01*
X1903219Y1512550D01*
X1910716Y1518798D02*
X1905718D01*
Y1515049D01*
X1908217Y1516299D01*
X1909467D01*
X1910716Y1515049D01*
Y1512550D01*
X1909467Y1511300D01*
X1906967D01*
X1905718Y1512550D01*
X1913215Y1517548D02*
X1914465Y1518798D01*
X1916964D01*
X1918214Y1517548D01*
Y1516299D01*
X1916964Y1515049D01*
X1918214Y1513799D01*
Y1512550D01*
X1916964Y1511300D01*
X1914465D01*
X1913215Y1512550D01*
Y1513799D01*
X1914465Y1515049D01*
X1913215Y1516299D01*
Y1517548D01*
X1914465Y1515049D02*
X1916964D01*
X1458719Y949048D02*
X1457469Y950298D01*
X1454970D01*
X1453720Y949048D01*
Y944050D01*
X1454970Y942800D01*
X1457469D01*
X1458719Y944050D01*
X1461218Y949048D02*
X1462467Y950298D01*
X1464966D01*
X1466216Y949048D01*
Y947799D01*
X1464966Y946549D01*
X1463717D01*
X1464966D01*
X1466216Y945299D01*
Y944050D01*
X1464966Y942800D01*
X1462467D01*
X1461218Y944050D01*
X1468715Y942800D02*
X1471214D01*
X1469965D01*
Y950298D01*
X1468715Y949048D01*
X2161219Y1236798D02*
X2158719D01*
X2159969D01*
Y1230550D01*
X2158719Y1229300D01*
X2157470D01*
X2156220Y1230550D01*
X2163718Y1229300D02*
X2166217D01*
X2164967D01*
Y1236798D01*
X2163718Y1235548D01*
X2169966D02*
X2171215Y1236798D01*
X2173714D01*
X2174964Y1235548D01*
Y1230550D01*
X2173714Y1229300D01*
X2171215D01*
X2169966Y1230550D01*
Y1235548D01*
X2058220Y1088798D02*
Y1082550D01*
X2059470Y1081300D01*
X2061969D01*
X2063219Y1082550D01*
Y1088798D01*
X2069467Y1081300D02*
Y1088798D01*
X2065718Y1085049D01*
X2070716D01*
X1834220Y1092798D02*
Y1086550D01*
X1835470Y1085300D01*
X1837969D01*
X1839218Y1086550D01*
Y1092798D01*
X1841718Y1091548D02*
X1842967Y1092798D01*
X1845466D01*
X1846716Y1091548D01*
Y1090299D01*
X1845466Y1089049D01*
X1844217D01*
X1845466D01*
X1846716Y1087799D01*
Y1086550D01*
X1845466Y1085300D01*
X1842967D01*
X1841718Y1086550D01*
X1609220Y1094798D02*
Y1088550D01*
X1610470Y1087300D01*
X1612969D01*
X1614218Y1088550D01*
Y1094798D01*
X1621716Y1087300D02*
X1616718D01*
X1621716Y1092299D01*
Y1093548D01*
X1620466Y1094798D01*
X1617967D01*
X1616718Y1093548D01*
X1871219Y1663548D02*
X1869969Y1664798D01*
X1867470D01*
X1866220Y1663548D01*
Y1658550D01*
X1867470Y1657300D01*
X1869969D01*
X1871219Y1658550D01*
X1877466Y1657300D02*
Y1664798D01*
X1873718Y1661049D01*
X1878716D01*
X1881215Y1658550D02*
X1882465Y1657300D01*
X1884964D01*
X1886214Y1658550D01*
Y1663548D01*
X1884964Y1664798D01*
X1882465D01*
X1881215Y1663548D01*
Y1662299D01*
X1882465Y1661049D01*
X1886214D01*
X1832720Y1664050D02*
Y1671548D01*
X1836469D01*
X1837719Y1670298D01*
Y1667799D01*
X1836469Y1666549D01*
X1832720D01*
X1835219D02*
X1837719Y1664050D01*
X1845216Y1671548D02*
X1840218D01*
Y1667799D01*
X1842717Y1669049D01*
X1843967D01*
X1845216Y1667799D01*
Y1665300D01*
X1843967Y1664050D01*
X1841467D01*
X1840218Y1665300D01*
X1801220Y1646300D02*
Y1653798D01*
X1804969D01*
X1806219Y1652548D01*
Y1650049D01*
X1804969Y1648799D01*
X1801220D01*
X1803719D02*
X1806219Y1646300D01*
X1808718Y1652548D02*
X1809967Y1653798D01*
X1812466D01*
X1813716Y1652548D01*
Y1651299D01*
X1812466Y1650049D01*
X1813716Y1648799D01*
Y1647550D01*
X1812466Y1646300D01*
X1809967D01*
X1808718Y1647550D01*
Y1648799D01*
X1809967Y1650049D01*
X1808718Y1651299D01*
Y1652548D01*
X1809967Y1650049D02*
X1812466D01*
X1816215Y1652548D02*
X1817465Y1653798D01*
X1819964D01*
X1821214Y1652548D01*
Y1651299D01*
X1819964Y1650049D01*
X1821214Y1648799D01*
Y1647550D01*
X1819964Y1646300D01*
X1817465D01*
X1816215Y1647550D01*
Y1648799D01*
X1817465Y1650049D01*
X1816215Y1651299D01*
Y1652548D01*
X1817465Y1650049D02*
X1819964D01*
X1589220Y1695300D02*
Y1702798D01*
X1592969D01*
X1594218Y1701548D01*
Y1699049D01*
X1592969Y1697799D01*
X1589220D01*
X1591719D02*
X1594218Y1695300D01*
X1596718D02*
X1599217D01*
X1597967D01*
Y1702798D01*
X1596718Y1701548D01*
X1606714Y1695300D02*
Y1702798D01*
X1602966Y1699049D01*
X1607964D01*
X1533220Y1642300D02*
Y1649798D01*
X1536969D01*
X1538219Y1648548D01*
Y1646049D01*
X1536969Y1644799D01*
X1533220D01*
X1535719D02*
X1538219Y1642300D01*
X1540718D02*
X1543217D01*
X1541967D01*
Y1649798D01*
X1540718Y1648548D01*
X1546966D02*
X1548215Y1649798D01*
X1550715D01*
X1551964Y1648548D01*
Y1643550D01*
X1550715Y1642300D01*
X1548215D01*
X1546966Y1643550D01*
Y1648548D01*
X1755219Y1704550D02*
Y1709548D01*
X1753969Y1710798D01*
X1751470D01*
X1750220Y1709548D01*
Y1704550D01*
X1751470Y1703300D01*
X1753969D01*
X1752719Y1705799D02*
X1755219Y1703300D01*
X1753969D02*
X1755219Y1704550D01*
X1757718Y1703300D02*
X1760217D01*
X1758967D01*
Y1710798D01*
X1757718Y1709548D01*
X1768964Y1710798D02*
X1763966D01*
Y1707049D01*
X1766465Y1708299D01*
X1767715D01*
X1768964Y1707049D01*
Y1704550D01*
X1767715Y1703300D01*
X1765215D01*
X1763966Y1704550D01*
X1946220Y1317800D02*
Y1325298D01*
X1949969D01*
X1951219Y1324048D01*
Y1321549D01*
X1949969Y1320299D01*
X1946220D01*
X1948719D02*
X1951219Y1317800D01*
X1957466D02*
Y1325298D01*
X1953718Y1321549D01*
X1958716D01*
X1748720Y1540300D02*
X1741223D01*
Y1544049D01*
X1742472Y1545299D01*
X1744971D01*
X1746221Y1544049D01*
Y1540300D01*
Y1542799D02*
X1748720Y1545299D01*
X1747471Y1547798D02*
X1748720Y1549047D01*
Y1551547D01*
X1747471Y1552796D01*
X1742472D01*
X1741223Y1551547D01*
Y1549047D01*
X1742472Y1547798D01*
X1743722D01*
X1744971Y1549047D01*
Y1552796D01*
X1742472Y1555295D02*
X1741223Y1556545D01*
Y1559044D01*
X1742472Y1560294D01*
X1743722D01*
X1744971Y1559044D01*
X1746221Y1560294D01*
X1747471D01*
X1748720Y1559044D01*
Y1556545D01*
X1747471Y1555295D01*
X1746221D01*
X1744971Y1556545D01*
X1743722Y1555295D01*
X1742472D01*
X1744971Y1556545D02*
Y1559044D01*
X1776223Y1497800D02*
X1783720D01*
Y1501549D01*
X1782471Y1502799D01*
X1777472D01*
X1776223Y1501549D01*
Y1497800D01*
X1783720Y1505298D02*
Y1507797D01*
Y1506547D01*
X1776223D01*
X1777472Y1505298D01*
Y1511546D02*
X1776223Y1512795D01*
Y1515295D01*
X1777472Y1516544D01*
X1778722D01*
X1779971Y1515295D01*
Y1514045D01*
Y1515295D01*
X1781221Y1516544D01*
X1782471D01*
X1783720Y1515295D01*
Y1512795D01*
X1782471Y1511546D01*
X2100219Y1895798D02*
X2097719D01*
X2098969D01*
Y1889550D01*
X2097719Y1888300D01*
X2096470D01*
X2095220Y1889550D01*
X2102718Y1888300D02*
X2105217D01*
X2103967D01*
Y1895798D01*
X2102718Y1894548D01*
X2113964Y1888300D02*
X2108966D01*
X2113964Y1893299D01*
Y1894548D01*
X2112715Y1895798D01*
X2110215D01*
X2108966Y1894548D01*
X1842218Y1117048D02*
X1840969Y1118298D01*
X1838470D01*
X1837220Y1117048D01*
Y1112050D01*
X1838470Y1110800D01*
X1840969D01*
X1842218Y1112050D01*
X1844718Y1110800D02*
X1847217D01*
X1845967D01*
Y1118298D01*
X1844718Y1117048D01*
X1850966Y1112050D02*
X1852215Y1110800D01*
X1854715D01*
X1855964Y1112050D01*
Y1117048D01*
X1854715Y1118298D01*
X1852215D01*
X1850966Y1117048D01*
Y1115799D01*
X1852215Y1114549D01*
X1855964D01*
X2018720Y1527800D02*
Y1535298D01*
X2022469D01*
X2023719Y1534048D01*
Y1531549D01*
X2022469Y1530299D01*
X2018720D01*
X2021219D02*
X2023719Y1527800D01*
X2026218D02*
X2028717D01*
X2027467D01*
Y1535298D01*
X2026218Y1534048D01*
X2032466D02*
X2033715Y1535298D01*
X2036214D01*
X2037464Y1534048D01*
Y1529050D01*
X2036214Y1527800D01*
X2033715D01*
X2032466Y1529050D01*
Y1534048D01*
X2043712Y1527800D02*
Y1535298D01*
X2039963Y1531549D01*
X2044962D01*
X2011220Y1495300D02*
X2003723D01*
Y1499049D01*
X2004972Y1500299D01*
X2007471D01*
X2008721Y1499049D01*
Y1495300D01*
Y1497799D02*
X2011220Y1500299D01*
Y1506547D02*
X2003723D01*
X2007471Y1502798D01*
Y1507796D01*
X2003723Y1515294D02*
Y1510295D01*
X2007471D01*
X2006222Y1512795D01*
Y1514044D01*
X2007471Y1515294D01*
X2009971D01*
X2011220Y1514044D01*
Y1511545D01*
X2009971Y1510295D01*
X1301220Y1252800D02*
Y1260298D01*
X1304969D01*
X1306219Y1259048D01*
Y1256549D01*
X1304969Y1255299D01*
X1301220D01*
X1303719D02*
X1306219Y1252800D01*
X1308718D02*
X1311217D01*
X1309967D01*
Y1260298D01*
X1308718Y1259048D01*
X1319964Y1260298D02*
X1314966D01*
Y1256549D01*
X1317465Y1257799D01*
X1318714D01*
X1319964Y1256549D01*
Y1254050D01*
X1318714Y1252800D01*
X1316215D01*
X1314966Y1254050D01*
X1702220Y1337300D02*
Y1344798D01*
X1705969D01*
X1707218Y1343548D01*
Y1341049D01*
X1705969Y1339799D01*
X1702220D01*
X1704719D02*
X1707218Y1337300D01*
X1709718D02*
X1712217D01*
X1710967D01*
Y1344798D01*
X1709718Y1343548D01*
X1715966Y1337300D02*
X1718465D01*
X1717215D01*
Y1344798D01*
X1715966Y1343548D01*
X1727212Y1344798D02*
X1722214D01*
Y1341049D01*
X1724713Y1342299D01*
X1725963D01*
X1727212Y1341049D01*
Y1338550D01*
X1725963Y1337300D01*
X1723463D01*
X1722214Y1338550D01*
X1731469Y1072798D02*
X1730219Y1074048D01*
X1727720D01*
X1726470Y1072798D01*
Y1067800D01*
X1727720Y1066550D01*
X1730219D01*
X1731469Y1067800D01*
X1738966Y1066550D02*
X1733968D01*
X1738966Y1071549D01*
Y1072798D01*
X1737717Y1074048D01*
X1735217D01*
X1733968Y1072798D01*
X1746464Y1074048D02*
X1741465D01*
Y1070299D01*
X1743965Y1071549D01*
X1745214D01*
X1746464Y1070299D01*
Y1067800D01*
X1745214Y1066550D01*
X1742715D01*
X1741465Y1067800D01*
X2064972Y1100299D02*
X2063723Y1099049D01*
Y1096550D01*
X2064972Y1095300D01*
X2069971D01*
X2071220Y1096550D01*
Y1099049D01*
X2069971Y1100299D01*
X2071220Y1107796D02*
Y1102798D01*
X2066222Y1107796D01*
X2064972D01*
X2063723Y1106547D01*
Y1104047D01*
X2064972Y1102798D01*
Y1110295D02*
X2063723Y1111545D01*
Y1114044D01*
X2064972Y1115294D01*
X2069971D01*
X2071220Y1114044D01*
Y1111545D01*
X2069971Y1110295D01*
X2064972D01*
X1248220Y1275798D02*
Y1268300D01*
X1251969D01*
X1253219Y1269550D01*
Y1274548D01*
X1251969Y1275798D01*
X1248220D01*
X1255718Y1268300D02*
X1258217D01*
X1256967D01*
Y1275798D01*
X1255718Y1274548D01*
X1261966D02*
X1263215Y1275798D01*
X1265714D01*
X1266964Y1274548D01*
Y1269550D01*
X1265714Y1268300D01*
X1263215D01*
X1261966Y1269550D01*
Y1274548D01*
X1651220Y1818798D02*
Y1811300D01*
X1654969D01*
X1656219Y1812550D01*
Y1817548D01*
X1654969Y1818798D01*
X1651220D01*
X1658718Y1811300D02*
X1661217D01*
X1659967D01*
Y1818798D01*
X1658718Y1817548D01*
X1669964Y1818798D02*
X1664966D01*
Y1815049D01*
X1667465Y1816299D01*
X1668714D01*
X1669964Y1815049D01*
Y1812550D01*
X1668714Y1811300D01*
X1666215D01*
X1664966Y1812550D01*
X2107218Y1817798D02*
X2104719D01*
X2105969D01*
Y1811550D01*
X2104719Y1810300D01*
X2103470D01*
X2102220Y1811550D01*
X2109718Y1816548D02*
X2110967Y1817798D01*
X2113466D01*
X2114716Y1816548D01*
Y1815299D01*
X2113466Y1814049D01*
X2112217D01*
X2113466D01*
X2114716Y1812799D01*
Y1811550D01*
X2113466Y1810300D01*
X2110967D01*
X2109718Y1811550D01*
X2036219Y1400298D02*
X2033719D01*
X2034969D01*
Y1394050D01*
X2033719Y1392800D01*
X2032470D01*
X2031220Y1394050D01*
X2038718D02*
X2039967Y1392800D01*
X2042466D01*
X2043716Y1394050D01*
Y1399048D01*
X2042466Y1400298D01*
X2039967D01*
X2038718Y1399048D01*
Y1397799D01*
X2039967Y1396549D01*
X2043716D01*
X1351470Y1221550D02*
X1343972D01*
Y1225299D01*
X1345222Y1226549D01*
X1347721D01*
X1348971Y1225299D01*
Y1221550D01*
Y1224049D02*
X1351470Y1226549D01*
Y1229048D02*
Y1231547D01*
Y1230297D01*
X1343972D01*
X1345222Y1229048D01*
X1801220Y1221300D02*
X1793723D01*
Y1225049D01*
X1794972Y1226299D01*
X1797471D01*
X1798721Y1225049D01*
Y1221300D01*
Y1223799D02*
X1801220Y1226299D01*
X1794972Y1228798D02*
X1793723Y1230047D01*
Y1232547D01*
X1794972Y1233796D01*
X1796222D01*
X1797471Y1232547D01*
Y1231297D01*
Y1232547D01*
X1798721Y1233796D01*
X1799971D01*
X1801220Y1232547D01*
Y1230047D01*
X1799971Y1228798D01*
X1794972Y1236295D02*
X1793723Y1237545D01*
Y1240044D01*
X1794972Y1241294D01*
X1799971D01*
X1801220Y1240044D01*
Y1237545D01*
X1799971Y1236295D01*
X1794972D01*
X1785220Y1221300D02*
X1777722D01*
Y1225049D01*
X1778972Y1226299D01*
X1781471D01*
X1782721Y1225049D01*
Y1221300D01*
Y1223799D02*
X1785220Y1226299D01*
X1778972Y1228798D02*
X1777722Y1230047D01*
Y1232547D01*
X1778972Y1233796D01*
X1780222D01*
X1781471Y1232547D01*
Y1231297D01*
Y1232547D01*
X1782721Y1233796D01*
X1783970D01*
X1785220Y1232547D01*
Y1230047D01*
X1783970Y1228798D01*
X1785220Y1236295D02*
Y1238795D01*
Y1237545D01*
X1777722D01*
X1778972Y1236295D01*
X1769220Y1221300D02*
X1761723D01*
Y1225049D01*
X1762972Y1226299D01*
X1765471D01*
X1766721Y1225049D01*
Y1221300D01*
Y1223799D02*
X1769220Y1226299D01*
X1762972Y1228798D02*
X1761723Y1230047D01*
Y1232547D01*
X1762972Y1233796D01*
X1764222D01*
X1765471Y1232547D01*
Y1231297D01*
Y1232547D01*
X1766721Y1233796D01*
X1767970D01*
X1769220Y1232547D01*
Y1230047D01*
X1767970Y1228798D01*
X1769220Y1241294D02*
Y1236295D01*
X1764222Y1241294D01*
X1762972D01*
X1761723Y1240044D01*
Y1237545D01*
X1762972Y1236295D01*
X1573720Y1545300D02*
X1566223D01*
Y1549049D01*
X1567472Y1550299D01*
X1569971D01*
X1571221Y1549049D01*
Y1545300D01*
Y1547799D02*
X1573720Y1550299D01*
X1566223Y1557796D02*
X1567472Y1555297D01*
X1569971Y1552798D01*
X1572471D01*
X1573720Y1554047D01*
Y1556547D01*
X1572471Y1557796D01*
X1571221D01*
X1569971Y1556547D01*
Y1552798D01*
X1567472Y1560295D02*
X1566223Y1561545D01*
Y1564044D01*
X1567472Y1565294D01*
X1572471D01*
X1573720Y1564044D01*
Y1561545D01*
X1572471Y1560295D01*
X1567472D01*
X2011220Y1630300D02*
X2003723D01*
Y1634049D01*
X2004972Y1635299D01*
X2007471D01*
X2008721Y1634049D01*
Y1630300D01*
Y1632799D02*
X2011220Y1635299D01*
X2009971Y1637798D02*
X2011220Y1639047D01*
Y1641547D01*
X2009971Y1642796D01*
X2004972D01*
X2003723Y1641547D01*
Y1639047D01*
X2004972Y1637798D01*
X2006222D01*
X2007471Y1639047D01*
Y1642796D01*
X2003723Y1645295D02*
Y1650294D01*
X2004972D01*
X2009971Y1645295D01*
X2011220D01*
X1531971Y1563050D02*
X1524473D01*
Y1566799D01*
X1525723Y1568049D01*
X1528222D01*
X1529471Y1566799D01*
Y1563050D01*
Y1565549D02*
X1531971Y1568049D01*
X1530721Y1570548D02*
X1531971Y1571797D01*
Y1574297D01*
X1530721Y1575546D01*
X1525723D01*
X1524473Y1574297D01*
Y1571797D01*
X1525723Y1570548D01*
X1526972D01*
X1528222Y1571797D01*
Y1575546D01*
X1524473Y1583044D02*
X1525723Y1580545D01*
X1528222Y1578045D01*
X1530721D01*
X1531971Y1579295D01*
Y1581794D01*
X1530721Y1583044D01*
X1529471D01*
X1528222Y1581794D01*
Y1578045D01*
X2023720Y1665300D02*
Y1672798D01*
X2027469D01*
X2028719Y1671548D01*
Y1669049D01*
X2027469Y1667799D01*
X2023720D01*
X2026219D02*
X2028719Y1665300D01*
X2034966D02*
Y1672798D01*
X2031218Y1669049D01*
X2036216D01*
X2043714Y1665300D02*
X2038715D01*
X2043714Y1670299D01*
Y1671548D01*
X2042464Y1672798D01*
X2039965D01*
X2038715Y1671548D01*
X1386470Y1633800D02*
X1378972D01*
Y1637549D01*
X1380222Y1638799D01*
X1382721D01*
X1383971Y1637549D01*
Y1633800D01*
Y1636299D02*
X1386470Y1638799D01*
Y1641298D02*
Y1643797D01*
Y1642547D01*
X1378972D01*
X1380222Y1641298D01*
Y1647546D02*
X1378972Y1648795D01*
Y1651295D01*
X1380222Y1652544D01*
X1385220D01*
X1386470Y1651295D01*
Y1648795D01*
X1385220Y1647546D01*
X1380222D01*
Y1655043D02*
X1378972Y1656293D01*
Y1658792D01*
X1380222Y1660042D01*
X1381472D01*
X1382721Y1658792D01*
Y1657543D01*
Y1658792D01*
X1383971Y1660042D01*
X1385220D01*
X1386470Y1658792D01*
Y1656293D01*
X1385220Y1655043D01*
X1548220Y1564050D02*
X1540723D01*
Y1567799D01*
X1541973Y1569049D01*
X1544472D01*
X1545721Y1567799D01*
Y1564050D01*
Y1566549D02*
X1548220Y1569049D01*
Y1575297D02*
X1540723D01*
X1544472Y1571548D01*
Y1576546D01*
X1548220Y1582794D02*
X1540723D01*
X1544472Y1579045D01*
Y1584044D01*
X2003720Y1670300D02*
X1996223D01*
Y1674049D01*
X1997472Y1675299D01*
X1999971D01*
X2001221Y1674049D01*
Y1670300D01*
Y1672799D02*
X2003720Y1675299D01*
X1996223Y1682796D02*
X1997472Y1680297D01*
X1999971Y1677798D01*
X2002471D01*
X2003720Y1679047D01*
Y1681547D01*
X2002471Y1682796D01*
X2001221D01*
X1999971Y1681547D01*
Y1677798D01*
X2003720Y1689044D02*
X1996223D01*
X1999971Y1685295D01*
Y1690294D01*
X1573720Y1655300D02*
X1566223D01*
Y1659049D01*
X1567472Y1660299D01*
X1569971D01*
X1571221Y1659049D01*
Y1655300D01*
Y1657799D02*
X1573720Y1660299D01*
X1566223Y1667796D02*
Y1662798D01*
X1569971D01*
X1568722Y1665297D01*
Y1666547D01*
X1569971Y1667796D01*
X1572471D01*
X1573720Y1666547D01*
Y1664047D01*
X1572471Y1662798D01*
Y1670295D02*
X1573720Y1671545D01*
Y1674044D01*
X1572471Y1675294D01*
X1567472D01*
X1566223Y1674044D01*
Y1671545D01*
X1567472Y1670295D01*
X1568722D01*
X1569971Y1671545D01*
Y1675294D01*
X1579719Y1539048D02*
X1578469Y1540298D01*
X1575970D01*
X1574720Y1539048D01*
Y1534050D01*
X1575970Y1532800D01*
X1578469D01*
X1579719Y1534050D01*
X1585967Y1532800D02*
Y1540298D01*
X1582218Y1536549D01*
X1587216D01*
X1594714Y1540298D02*
X1589716D01*
Y1536549D01*
X1592215Y1537799D01*
X1593464D01*
X1594714Y1536549D01*
Y1534050D01*
X1593464Y1532800D01*
X1590965D01*
X1589716Y1534050D01*
X1587472Y1662799D02*
X1586223Y1661549D01*
Y1659050D01*
X1587472Y1657800D01*
X1592471D01*
X1593720Y1659050D01*
Y1661549D01*
X1592471Y1662799D01*
X1587472Y1665298D02*
X1586223Y1666547D01*
Y1669047D01*
X1587472Y1670296D01*
X1588722D01*
X1589971Y1669047D01*
Y1667797D01*
Y1669047D01*
X1591221Y1670296D01*
X1592471D01*
X1593720Y1669047D01*
Y1666547D01*
X1592471Y1665298D01*
X1587472Y1672795D02*
X1586223Y1674045D01*
Y1676544D01*
X1587472Y1677794D01*
X1588722D01*
X1589971Y1676544D01*
X1591221Y1677794D01*
X1592471D01*
X1593720Y1676544D01*
Y1674045D01*
X1592471Y1672795D01*
X1591221D01*
X1589971Y1674045D01*
X1588722Y1672795D01*
X1587472D01*
X1589971Y1674045D02*
Y1676544D01*
X1377218Y1787548D02*
X1375969Y1788798D01*
X1373470D01*
X1372220Y1787548D01*
Y1786299D01*
X1373470Y1785049D01*
X1375969D01*
X1377218Y1783799D01*
Y1782550D01*
X1375969Y1781300D01*
X1373470D01*
X1372220Y1782550D01*
X1384716Y1781300D02*
X1379718D01*
X1384716Y1786299D01*
Y1787548D01*
X1383466Y1788798D01*
X1380967D01*
X1379718Y1787548D01*
X1876720Y1447300D02*
X1869223D01*
Y1451049D01*
X1870472Y1452299D01*
X1872971D01*
X1874221Y1451049D01*
Y1447300D01*
Y1449799D02*
X1876720Y1452299D01*
X1870472Y1454798D02*
X1869223Y1456047D01*
Y1458547D01*
X1870472Y1459796D01*
X1871722D01*
X1872971Y1458547D01*
X1874221Y1459796D01*
X1875471D01*
X1876720Y1458547D01*
Y1456047D01*
X1875471Y1454798D01*
X1874221D01*
X1872971Y1456047D01*
X1871722Y1454798D01*
X1870472D01*
X1872971Y1456047D02*
Y1458547D01*
X1876720Y1466044D02*
X1869223D01*
X1872971Y1462295D01*
Y1467294D01*
X1873220Y1174300D02*
X1865723D01*
Y1178049D01*
X1866972Y1179299D01*
X1869471D01*
X1870721Y1178049D01*
Y1174300D01*
Y1176799D02*
X1873220Y1179299D01*
X1865723Y1186796D02*
Y1181798D01*
X1869471D01*
X1868222Y1184297D01*
Y1185547D01*
X1869471Y1186796D01*
X1871971D01*
X1873220Y1185547D01*
Y1183047D01*
X1871971Y1181798D01*
X1873220Y1193044D02*
X1865723D01*
X1869471Y1189295D01*
Y1194294D01*
X1648720Y1172550D02*
X1641223D01*
Y1176299D01*
X1642472Y1177549D01*
X1644971D01*
X1646221Y1176299D01*
Y1172550D01*
Y1175049D02*
X1648720Y1177549D01*
X1641223Y1185046D02*
Y1180048D01*
X1644971D01*
X1643722Y1182547D01*
Y1183797D01*
X1644971Y1185046D01*
X1647471D01*
X1648720Y1183797D01*
Y1181297D01*
X1647471Y1180048D01*
X1642472Y1187545D02*
X1641223Y1188795D01*
Y1191294D01*
X1642472Y1192544D01*
X1643722D01*
X1644971Y1191294D01*
Y1190045D01*
Y1191294D01*
X1646221Y1192544D01*
X1647471D01*
X1648720Y1191294D01*
Y1188795D01*
X1647471Y1187545D01*
X1977770Y1222200D02*
X1970273D01*
Y1225949D01*
X1971522Y1227199D01*
X1974021D01*
X1975271Y1225949D01*
Y1222200D01*
Y1224700D02*
X1977770Y1227199D01*
X1970273Y1234696D02*
Y1229698D01*
X1974021D01*
X1972772Y1232197D01*
Y1233447D01*
X1974021Y1234696D01*
X1976521D01*
X1977770Y1233447D01*
Y1230948D01*
X1976521Y1229698D01*
X1970273Y1237196D02*
Y1242194D01*
X1971522D01*
X1976521Y1237196D01*
X1977770D01*
X1753220Y1222300D02*
X1745723D01*
Y1226049D01*
X1746972Y1227299D01*
X1749471D01*
X1750721Y1226049D01*
Y1222300D01*
Y1224799D02*
X1753220Y1227299D01*
X1745723Y1234796D02*
Y1229798D01*
X1749471D01*
X1748222Y1232297D01*
Y1233547D01*
X1749471Y1234796D01*
X1751971D01*
X1753220Y1233547D01*
Y1231047D01*
X1751971Y1229798D01*
X1745723Y1242294D02*
Y1237295D01*
X1749471D01*
X1748222Y1239795D01*
Y1241044D01*
X1749471Y1242294D01*
X1751971D01*
X1753220Y1241044D01*
Y1238545D01*
X1751971Y1237295D01*
X1261220Y1342800D02*
Y1350298D01*
X1264969D01*
X1266218Y1349048D01*
Y1346549D01*
X1264969Y1345299D01*
X1261220D01*
X1263719D02*
X1266218Y1342800D01*
X1268718Y1344050D02*
X1269967Y1342800D01*
X1272467D01*
X1273716Y1344050D01*
Y1349048D01*
X1272467Y1350298D01*
X1269967D01*
X1268718Y1349048D01*
Y1347799D01*
X1269967Y1346549D01*
X1273716D01*
X1276215Y1342800D02*
X1278715D01*
X1277465D01*
Y1350298D01*
X1276215Y1349048D01*
X1258720Y1370300D02*
Y1377798D01*
X1262469D01*
X1263718Y1376548D01*
Y1374049D01*
X1262469Y1372799D01*
X1258720D01*
X1261219D02*
X1263718Y1370300D01*
X1266218Y1371550D02*
X1267467Y1370300D01*
X1269967D01*
X1271216Y1371550D01*
Y1376548D01*
X1269967Y1377798D01*
X1267467D01*
X1266218Y1376548D01*
Y1375299D01*
X1267467Y1374049D01*
X1271216D01*
X1273715Y1376548D02*
X1274965Y1377798D01*
X1277464D01*
X1278714Y1376548D01*
Y1371550D01*
X1277464Y1370300D01*
X1274965D01*
X1273715Y1371550D01*
Y1376548D01*
X1273720Y1422800D02*
Y1430298D01*
X1277469D01*
X1278718Y1429048D01*
Y1426549D01*
X1277469Y1425299D01*
X1273720D01*
X1276219D02*
X1278718Y1422800D01*
X1281218Y1429048D02*
X1282467Y1430298D01*
X1284966D01*
X1286216Y1429048D01*
Y1427799D01*
X1284966Y1426549D01*
X1286216Y1425299D01*
Y1424050D01*
X1284966Y1422800D01*
X1282467D01*
X1281218Y1424050D01*
Y1425299D01*
X1282467Y1426549D01*
X1281218Y1427799D01*
Y1429048D01*
X1282467Y1426549D02*
X1284966D01*
X1288715Y1424050D02*
X1289965Y1422800D01*
X1292464D01*
X1293714Y1424050D01*
Y1429048D01*
X1292464Y1430298D01*
X1289965D01*
X1288715Y1429048D01*
Y1427799D01*
X1289965Y1426549D01*
X1293714D01*
X1278720Y1312800D02*
X1271223D01*
Y1316549D01*
X1272472Y1317799D01*
X1274971D01*
X1276221Y1316549D01*
Y1312800D01*
Y1315299D02*
X1278720Y1317799D01*
X1272472Y1320298D02*
X1271223Y1321547D01*
Y1324047D01*
X1272472Y1325296D01*
X1273722D01*
X1274971Y1324047D01*
X1276221Y1325296D01*
X1277470D01*
X1278720Y1324047D01*
Y1321547D01*
X1277470Y1320298D01*
X1276221D01*
X1274971Y1321547D01*
X1273722Y1320298D01*
X1272472D01*
X1274971Y1321547D02*
Y1324047D01*
X1271223Y1327795D02*
Y1332794D01*
X1272472D01*
X1277470Y1327795D01*
X1278720D01*
X1311970Y1637050D02*
X1304473D01*
Y1640799D01*
X1305722Y1642049D01*
X1308221D01*
X1309471Y1640799D01*
Y1637050D01*
Y1639549D02*
X1311970Y1642049D01*
X1305722Y1644548D02*
X1304473Y1645797D01*
Y1648297D01*
X1305722Y1649546D01*
X1306972D01*
X1308221Y1648297D01*
X1309471Y1649546D01*
X1310721D01*
X1311970Y1648297D01*
Y1645797D01*
X1310721Y1644548D01*
X1309471D01*
X1308221Y1645797D01*
X1306972Y1644548D01*
X1305722D01*
X1308221Y1645797D02*
Y1648297D01*
X1304473Y1657044D02*
X1305722Y1654545D01*
X1308221Y1652045D01*
X1310721D01*
X1311970Y1653295D01*
Y1655794D01*
X1310721Y1657044D01*
X1309471D01*
X1308221Y1655794D01*
Y1652045D01*
X1311470Y1601550D02*
X1303972D01*
Y1605299D01*
X1305222Y1606549D01*
X1307721D01*
X1308971Y1605299D01*
Y1601550D01*
Y1604049D02*
X1311470Y1606549D01*
X1305222Y1609048D02*
X1303972Y1610297D01*
Y1612797D01*
X1305222Y1614046D01*
X1306472D01*
X1307721Y1612797D01*
X1308971Y1614046D01*
X1310220D01*
X1311470Y1612797D01*
Y1610297D01*
X1310220Y1609048D01*
X1308971D01*
X1307721Y1610297D01*
X1306472Y1609048D01*
X1305222D01*
X1307721Y1610297D02*
Y1612797D01*
X1305222Y1616545D02*
X1303972Y1617795D01*
Y1620294D01*
X1305222Y1621544D01*
X1306472D01*
X1307721Y1620294D01*
Y1619045D01*
Y1620294D01*
X1308971Y1621544D01*
X1310220D01*
X1311470Y1620294D01*
Y1617795D01*
X1310220Y1616545D01*
X1311220Y1567050D02*
X1303723D01*
Y1570799D01*
X1304972Y1572049D01*
X1307471D01*
X1308721Y1570799D01*
Y1567050D01*
Y1569549D02*
X1311220Y1572049D01*
X1303723Y1574548D02*
Y1579546D01*
X1304972D01*
X1309971Y1574548D01*
X1311220D01*
X1303723Y1582045D02*
Y1587044D01*
X1304972D01*
X1309971Y1582045D01*
X1311220D01*
X1278720Y1275300D02*
X1271223D01*
Y1279049D01*
X1272472Y1280299D01*
X1274971D01*
X1276221Y1279049D01*
Y1275300D01*
Y1277799D02*
X1278720Y1280299D01*
X1271223Y1282798D02*
Y1287796D01*
X1272472D01*
X1277470Y1282798D01*
X1278720D01*
X1271223Y1295294D02*
X1272472Y1292795D01*
X1274971Y1290295D01*
X1277470D01*
X1278720Y1291545D01*
Y1294044D01*
X1277470Y1295294D01*
X1276221D01*
X1274971Y1294044D01*
Y1290295D01*
X1310970Y1530800D02*
X1303472D01*
Y1534549D01*
X1304722Y1535799D01*
X1307221D01*
X1308471Y1534549D01*
Y1530800D01*
Y1533299D02*
X1310970Y1535799D01*
X1303472Y1538298D02*
Y1543296D01*
X1304722D01*
X1309720Y1538298D01*
X1310970D01*
X1303472Y1550794D02*
Y1545795D01*
X1307221D01*
X1305972Y1548295D01*
Y1549544D01*
X1307221Y1550794D01*
X1309720D01*
X1310970Y1549544D01*
Y1547045D01*
X1309720Y1545795D01*
X1311470Y1493800D02*
X1303972D01*
Y1497549D01*
X1305222Y1498799D01*
X1307721D01*
X1308971Y1497549D01*
Y1493800D01*
Y1496299D02*
X1311470Y1498799D01*
X1303972Y1501298D02*
Y1506296D01*
X1305222D01*
X1310220Y1501298D01*
X1311470D01*
Y1513794D02*
Y1508795D01*
X1306472Y1513794D01*
X1305222D01*
X1303972Y1512544D01*
Y1510045D01*
X1305222Y1508795D01*
X1301220Y1820300D02*
X1293723D01*
Y1824049D01*
X1294972Y1825299D01*
X1297471D01*
X1298721Y1824049D01*
Y1820300D01*
Y1822799D02*
X1301220Y1825299D01*
X1293723Y1827798D02*
Y1832796D01*
X1294972D01*
X1299971Y1827798D01*
X1301220D01*
Y1839044D02*
X1293723D01*
X1297471Y1835295D01*
Y1840294D01*
X2036620Y1195959D02*
Y1203457D01*
X2040369D01*
X2041618Y1202207D01*
Y1199708D01*
X2040369Y1198458D01*
X2036620D01*
X2039119D02*
X2041618Y1195959D01*
X2049116Y1203457D02*
X2044118D01*
Y1199708D01*
X2046617Y1200957D01*
X2047867D01*
X2049116Y1199708D01*
Y1197209D01*
X2047867Y1195959D01*
X2045367D01*
X2044118Y1197209D01*
X2051615Y1202207D02*
X2052865Y1203457D01*
X2055364D01*
X2056614Y1202207D01*
Y1200957D01*
X2055364Y1199708D01*
X2056614Y1198458D01*
Y1197209D01*
X2055364Y1195959D01*
X2052865D01*
X2051615Y1197209D01*
Y1198458D01*
X2052865Y1199708D01*
X2051615Y1200957D01*
Y1202207D01*
X2052865Y1199708D02*
X2055364D01*
X1817220Y1194300D02*
Y1201798D01*
X1820969D01*
X1822218Y1200548D01*
Y1198049D01*
X1820969Y1196799D01*
X1817220D01*
X1819719D02*
X1822218Y1194300D01*
X1829716Y1201798D02*
X1824718D01*
Y1198049D01*
X1827217Y1199299D01*
X1828466D01*
X1829716Y1198049D01*
Y1195550D01*
X1828466Y1194300D01*
X1825967D01*
X1824718Y1195550D01*
X1837214Y1201798D02*
X1834715Y1200548D01*
X1832215Y1198049D01*
Y1195550D01*
X1833465Y1194300D01*
X1835964D01*
X1837214Y1195550D01*
Y1196799D01*
X1835964Y1198049D01*
X1832215D01*
X1917220Y1154300D02*
X1909722D01*
Y1158049D01*
X1910972Y1159299D01*
X1913471D01*
X1914721Y1158049D01*
Y1154300D01*
Y1156799D02*
X1917220Y1159299D01*
Y1165547D02*
X1909722D01*
X1913471Y1161798D01*
Y1166796D01*
X1910972Y1169295D02*
X1909722Y1170545D01*
Y1173044D01*
X1910972Y1174294D01*
X1912222D01*
X1913471Y1173044D01*
X1914721Y1174294D01*
X1915970D01*
X1917220Y1173044D01*
Y1170545D01*
X1915970Y1169295D01*
X1914721D01*
X1913471Y1170545D01*
X1912222Y1169295D01*
X1910972D01*
X1913471Y1170545D02*
Y1173044D01*
X1692220Y1155550D02*
X1684722D01*
Y1159299D01*
X1685972Y1160549D01*
X1688471D01*
X1689721Y1159299D01*
Y1155550D01*
Y1158049D02*
X1692220Y1160549D01*
Y1166797D02*
X1684722D01*
X1688471Y1163048D01*
Y1168046D01*
X1684722Y1170545D02*
Y1175544D01*
X1685972D01*
X1690970Y1170545D01*
X1692220D01*
X1961670Y1220300D02*
X1954173D01*
Y1224049D01*
X1955422Y1225299D01*
X1957921D01*
X1959171Y1224049D01*
Y1220300D01*
Y1222800D02*
X1961670Y1225299D01*
Y1231547D02*
X1954173D01*
X1957921Y1227798D01*
Y1232796D01*
X1961670Y1235296D02*
Y1237795D01*
Y1236545D01*
X1954173D01*
X1955422Y1235296D01*
X1993670Y1221300D02*
X1986173D01*
Y1225049D01*
X1987422Y1226299D01*
X1989921D01*
X1991171Y1225049D01*
Y1221300D01*
Y1223800D02*
X1993670Y1226299D01*
X1987422Y1228798D02*
X1986173Y1230048D01*
Y1232547D01*
X1987422Y1233796D01*
X1988672D01*
X1989921Y1232547D01*
Y1231297D01*
Y1232547D01*
X1991171Y1233796D01*
X1992421D01*
X1993670Y1232547D01*
Y1230048D01*
X1992421Y1228798D01*
X1987422Y1236296D02*
X1986173Y1237545D01*
Y1240044D01*
X1987422Y1241294D01*
X1988672D01*
X1989921Y1240044D01*
X1991171Y1241294D01*
X1992421D01*
X1993670Y1240044D01*
Y1237545D01*
X1992421Y1236296D01*
X1991171D01*
X1989921Y1237545D01*
X1988672Y1236296D01*
X1987422D01*
X1989921Y1237545D02*
Y1240044D01*
X2009770Y1221200D02*
X2002273D01*
Y1224949D01*
X2003522Y1226199D01*
X2006021D01*
X2007271Y1224949D01*
Y1221200D01*
Y1223700D02*
X2009770Y1226199D01*
X2003522Y1228698D02*
X2002273Y1229948D01*
Y1232447D01*
X2003522Y1233696D01*
X2004772D01*
X2006021Y1232447D01*
Y1231197D01*
Y1232447D01*
X2007271Y1233696D01*
X2008521D01*
X2009770Y1232447D01*
Y1229948D01*
X2008521Y1228698D01*
X2002273Y1236196D02*
Y1241194D01*
X2003522D01*
X2008521Y1236196D01*
X2009770D01*
X2025670Y1221300D02*
X2018173D01*
Y1225049D01*
X2019422Y1226299D01*
X2021921D01*
X2023171Y1225049D01*
Y1221300D01*
Y1223800D02*
X2025670Y1226299D01*
X2019422Y1228798D02*
X2018173Y1230048D01*
Y1232547D01*
X2019422Y1233796D01*
X2020672D01*
X2021921Y1232547D01*
Y1231297D01*
Y1232547D01*
X2023171Y1233796D01*
X2024421D01*
X2025670Y1232547D01*
Y1230048D01*
X2024421Y1228798D01*
X2018173Y1241294D02*
X2019422Y1238795D01*
X2021921Y1236296D01*
X2024421D01*
X2025670Y1237545D01*
Y1240044D01*
X2024421Y1241294D01*
X2023171D01*
X2021921Y1240044D01*
Y1236296D01*
X1737220Y1220300D02*
X1729722D01*
Y1224049D01*
X1730972Y1225299D01*
X1733471D01*
X1734721Y1224049D01*
Y1220300D01*
Y1222799D02*
X1737220Y1225299D01*
X1730972Y1227798D02*
X1729722Y1229047D01*
Y1231547D01*
X1730972Y1232796D01*
X1732222D01*
X1733471Y1231547D01*
Y1230297D01*
Y1231547D01*
X1734721Y1232796D01*
X1735970D01*
X1737220Y1231547D01*
Y1229047D01*
X1735970Y1227798D01*
X1729722Y1240294D02*
Y1235295D01*
X1733471D01*
X1732222Y1237795D01*
Y1239044D01*
X1733471Y1240294D01*
X1735970D01*
X1737220Y1239044D01*
Y1236545D01*
X1735970Y1235295D01*
X1403220Y1176300D02*
Y1183798D01*
X1406969D01*
X1408219Y1182548D01*
Y1180049D01*
X1406969Y1178799D01*
X1403220D01*
X1405719D02*
X1408219Y1176300D01*
X1415716D02*
X1410718D01*
X1415716Y1181299D01*
Y1182548D01*
X1414467Y1183798D01*
X1411967D01*
X1410718Y1182548D01*
X1423214Y1183798D02*
X1418215D01*
Y1180049D01*
X1420715Y1181299D01*
X1421964D01*
X1423214Y1180049D01*
Y1177550D01*
X1421964Y1176300D01*
X1419465D01*
X1418215Y1177550D01*
X1198720Y1197800D02*
X1191223D01*
Y1201549D01*
X1192472Y1202799D01*
X1194971D01*
X1196221Y1201549D01*
Y1197800D01*
Y1200299D02*
X1198720Y1202799D01*
Y1210296D02*
Y1205298D01*
X1193722Y1210296D01*
X1192472D01*
X1191223Y1209047D01*
Y1206547D01*
X1192472Y1205298D01*
X1198720Y1216544D02*
X1191223D01*
X1194971Y1212795D01*
Y1217794D01*
X1528720Y1221800D02*
X1521223D01*
Y1225549D01*
X1522472Y1226799D01*
X1524971D01*
X1526221Y1225549D01*
Y1221800D01*
Y1224299D02*
X1528720Y1226799D01*
Y1234296D02*
Y1229298D01*
X1523722Y1234296D01*
X1522472D01*
X1521223Y1233047D01*
Y1230547D01*
X1522472Y1229298D01*
X1521223Y1236795D02*
Y1241794D01*
X1522472D01*
X1527471Y1236795D01*
X1528720D01*
X1302720Y1223300D02*
X1295222D01*
Y1227049D01*
X1296472Y1228299D01*
X1298971D01*
X1300221Y1227049D01*
Y1223300D01*
Y1225799D02*
X1302720Y1228299D01*
Y1235796D02*
Y1230798D01*
X1297722Y1235796D01*
X1296472D01*
X1295222Y1234547D01*
Y1232047D01*
X1296472Y1230798D01*
X1295222Y1243294D02*
X1296472Y1240795D01*
X1298971Y1238295D01*
X1301470D01*
X1302720Y1239545D01*
Y1242044D01*
X1301470Y1243294D01*
X1300221D01*
X1298971Y1242044D01*
Y1238295D01*
X1527970Y1025800D02*
X1520473D01*
Y1029549D01*
X1521722Y1030799D01*
X1524221D01*
X1525471Y1029549D01*
Y1025800D01*
Y1028299D02*
X1527970Y1030799D01*
Y1038296D02*
Y1033298D01*
X1522972Y1038296D01*
X1521722D01*
X1520473Y1037047D01*
Y1034547D01*
X1521722Y1033298D01*
Y1040795D02*
X1520473Y1042045D01*
Y1044544D01*
X1521722Y1045794D01*
X1522972D01*
X1524221Y1044544D01*
Y1043295D01*
Y1044544D01*
X1525471Y1045794D01*
X1526720D01*
X1527970Y1044544D01*
Y1042045D01*
X1526720Y1040795D01*
X1605470Y1025550D02*
X1597973D01*
Y1029299D01*
X1599222Y1030549D01*
X1601721D01*
X1602971Y1029299D01*
Y1025550D01*
Y1028049D02*
X1605470Y1030549D01*
Y1038046D02*
Y1033048D01*
X1600472Y1038046D01*
X1599222D01*
X1597973Y1036797D01*
Y1034297D01*
X1599222Y1033048D01*
X1605470Y1045544D02*
Y1040545D01*
X1600472Y1045544D01*
X1599222D01*
X1597973Y1044294D01*
Y1041795D01*
X1599222Y1040545D01*
X1302720Y1025800D02*
X1295222D01*
Y1029549D01*
X1296472Y1030799D01*
X1298971D01*
X1300221Y1029549D01*
Y1025800D01*
Y1028299D02*
X1302720Y1030799D01*
Y1038296D02*
Y1033298D01*
X1297722Y1038296D01*
X1296472D01*
X1295222Y1037047D01*
Y1034547D01*
X1296472Y1033298D01*
X1302720Y1040795D02*
Y1043295D01*
Y1042045D01*
X1295222D01*
X1296472Y1040795D01*
X1381220Y1024800D02*
X1373723D01*
Y1028549D01*
X1374972Y1029799D01*
X1377471D01*
X1378721Y1028549D01*
Y1024800D01*
Y1027299D02*
X1381220Y1029799D01*
Y1037296D02*
Y1032298D01*
X1376222Y1037296D01*
X1374972D01*
X1373723Y1036047D01*
Y1033547D01*
X1374972Y1032298D01*
Y1039795D02*
X1373723Y1041045D01*
Y1043544D01*
X1374972Y1044794D01*
X1379971D01*
X1381220Y1043544D01*
Y1041045D01*
X1379971Y1039795D01*
X1374972D01*
X1359970Y1195050D02*
Y1202548D01*
X1363719D01*
X1364969Y1201298D01*
Y1198799D01*
X1363719Y1197549D01*
X1359970D01*
X1362469D02*
X1364969Y1195050D01*
X1372466D02*
X1367468D01*
X1372466Y1200049D01*
Y1201298D01*
X1371216Y1202548D01*
X1368717D01*
X1367468Y1201298D01*
X1374965D02*
X1376215Y1202548D01*
X1378714D01*
X1379964Y1201298D01*
Y1200049D01*
X1378714Y1198799D01*
X1379964Y1197549D01*
Y1196300D01*
X1378714Y1195050D01*
X1376215D01*
X1374965Y1196300D01*
Y1197549D01*
X1376215Y1198799D01*
X1374965Y1200049D01*
Y1201298D01*
X1376215Y1198799D02*
X1378714D01*
X1467101Y1154047D02*
X1459603D01*
Y1157796D01*
X1460853Y1159046D01*
X1463352D01*
X1464602Y1157796D01*
Y1154047D01*
Y1156547D02*
X1467101Y1159046D01*
Y1161545D02*
Y1164044D01*
Y1162795D01*
X1459603D01*
X1460853Y1161545D01*
X1465851Y1167793D02*
X1467101Y1169043D01*
Y1171542D01*
X1465851Y1172791D01*
X1460853D01*
X1459603Y1171542D01*
Y1169043D01*
X1460853Y1167793D01*
X1462103D01*
X1463352Y1169043D01*
Y1172791D01*
X1245220Y1173300D02*
X1237722D01*
Y1177049D01*
X1238972Y1178299D01*
X1241471D01*
X1242721Y1177049D01*
Y1173300D01*
Y1175799D02*
X1245220Y1178299D01*
Y1180798D02*
Y1183297D01*
Y1182047D01*
X1237722D01*
X1238972Y1180798D01*
Y1187046D02*
X1237722Y1188295D01*
Y1190795D01*
X1238972Y1192044D01*
X1240222D01*
X1241471Y1190795D01*
X1242721Y1192044D01*
X1243970D01*
X1245220Y1190795D01*
Y1188295D01*
X1243970Y1187046D01*
X1242721D01*
X1241471Y1188295D01*
X1240222Y1187046D01*
X1238972D01*
X1241471Y1188295D02*
Y1190795D01*
X1510970Y1220550D02*
X1503472D01*
Y1224299D01*
X1504722Y1225549D01*
X1507221D01*
X1508471Y1224299D01*
Y1220550D01*
Y1223049D02*
X1510970Y1225549D01*
Y1228048D02*
Y1230547D01*
Y1229297D01*
X1503472D01*
X1504722Y1228048D01*
X1510970Y1239294D02*
Y1234296D01*
X1505972Y1239294D01*
X1504722D01*
X1503472Y1238045D01*
Y1235545D01*
X1504722Y1234296D01*
X1543720Y1220550D02*
X1536223D01*
Y1224299D01*
X1537472Y1225549D01*
X1539971D01*
X1541221Y1224299D01*
Y1220550D01*
Y1223049D02*
X1543720Y1225549D01*
X1542471Y1228048D02*
X1543720Y1229297D01*
Y1231797D01*
X1542471Y1233046D01*
X1537472D01*
X1536223Y1231797D01*
Y1229297D01*
X1537472Y1228048D01*
X1538722D01*
X1539971Y1229297D01*
Y1233046D01*
X1559720Y1220800D02*
X1552222D01*
Y1224549D01*
X1553472Y1225799D01*
X1555971D01*
X1557221Y1224549D01*
Y1220800D01*
Y1223299D02*
X1559720Y1225799D01*
X1553472Y1228298D02*
X1552222Y1229547D01*
Y1232047D01*
X1553472Y1233296D01*
X1554722D01*
X1555971Y1232047D01*
X1557221Y1233296D01*
X1558470D01*
X1559720Y1232047D01*
Y1229547D01*
X1558470Y1228298D01*
X1557221D01*
X1555971Y1229547D01*
X1554722Y1228298D01*
X1553472D01*
X1555971Y1229547D02*
Y1232047D01*
X1575720Y1221050D02*
X1568223D01*
Y1224799D01*
X1569472Y1226049D01*
X1571971D01*
X1573221Y1224799D01*
Y1221050D01*
Y1223549D02*
X1575720Y1226049D01*
X1568223Y1228548D02*
Y1233546D01*
X1569472D01*
X1574471Y1228548D01*
X1575720D01*
X1287220Y1222300D02*
X1279723D01*
Y1226049D01*
X1280972Y1227299D01*
X1283471D01*
X1284721Y1226049D01*
Y1222300D01*
Y1224799D02*
X1287220Y1227299D01*
X1279723Y1234796D02*
X1280972Y1232297D01*
X1283471Y1229798D01*
X1285970D01*
X1287220Y1231047D01*
Y1233547D01*
X1285970Y1234796D01*
X1284721D01*
X1283471Y1233547D01*
Y1229798D01*
X1318470Y1222300D02*
X1310972D01*
Y1226049D01*
X1312222Y1227299D01*
X1314721D01*
X1315971Y1226049D01*
Y1222300D01*
Y1224799D02*
X1318470Y1227299D01*
X1312222Y1229798D02*
X1310972Y1231047D01*
Y1233547D01*
X1312222Y1234796D01*
X1313472D01*
X1314721Y1233547D01*
Y1232297D01*
Y1233547D01*
X1315971Y1234796D01*
X1317220D01*
X1318470Y1233547D01*
Y1231047D01*
X1317220Y1229798D01*
X1336720Y1221550D02*
X1329223D01*
Y1225299D01*
X1330472Y1226549D01*
X1332971D01*
X1334221Y1225299D01*
Y1221550D01*
Y1224049D02*
X1336720Y1226549D01*
Y1234046D02*
Y1229048D01*
X1331722Y1234046D01*
X1330472D01*
X1329223Y1232797D01*
Y1230297D01*
X1330472Y1229048D01*
X1841219Y1451550D02*
Y1456548D01*
X1839969Y1457798D01*
X1837470D01*
X1836220Y1456548D01*
Y1451550D01*
X1837470Y1450300D01*
X1839969D01*
X1838719Y1452799D02*
X1841219Y1450300D01*
X1839969D02*
X1841219Y1451550D01*
X1843718Y1456548D02*
X1844967Y1457798D01*
X1847466D01*
X1848716Y1456548D01*
Y1455299D01*
X1847466Y1454049D01*
X1848716Y1452799D01*
Y1451550D01*
X1847466Y1450300D01*
X1844967D01*
X1843718Y1451550D01*
Y1452799D01*
X1844967Y1454049D01*
X1843718Y1455299D01*
Y1456548D01*
X1844967Y1454049D02*
X1847466D01*
X1871718Y1231050D02*
Y1236048D01*
X1870469Y1237298D01*
X1867970D01*
X1866720Y1236048D01*
Y1231050D01*
X1867970Y1229800D01*
X1870469D01*
X1869219Y1232299D02*
X1871718Y1229800D01*
X1870469D02*
X1871718Y1231050D01*
X1877966Y1229800D02*
Y1237298D01*
X1874218Y1233549D01*
X1879216D01*
X1646718Y1230050D02*
Y1235048D01*
X1645469Y1236298D01*
X1642970D01*
X1641720Y1235048D01*
Y1230050D01*
X1642970Y1228800D01*
X1645469D01*
X1644219Y1231299D02*
X1646718Y1228800D01*
X1645469D02*
X1646718Y1230050D01*
X1649218Y1235048D02*
X1650467Y1236298D01*
X1652966D01*
X1654216Y1235048D01*
Y1233799D01*
X1652966Y1232549D01*
X1651717D01*
X1652966D01*
X1654216Y1231299D01*
Y1230050D01*
X1652966Y1228800D01*
X1650467D01*
X1649218Y1230050D01*
X1420968Y1230800D02*
Y1235798D01*
X1419719Y1237048D01*
X1417220D01*
X1415970Y1235798D01*
Y1230800D01*
X1417220Y1229550D01*
X1419719D01*
X1418469Y1232049D02*
X1420968Y1229550D01*
X1419719D02*
X1420968Y1230800D01*
X1428466Y1229550D02*
X1423468D01*
X1428466Y1234549D01*
Y1235798D01*
X1427216Y1237048D01*
X1424717D01*
X1423468Y1235798D01*
X1197470Y1235299D02*
X1192472D01*
X1191223Y1234049D01*
Y1231550D01*
X1192472Y1230300D01*
X1197470D01*
X1198720Y1231550D01*
Y1234049D01*
X1196221Y1232799D02*
X1198720Y1235299D01*
Y1234049D02*
X1197470Y1235299D01*
X1198720Y1237798D02*
Y1240297D01*
Y1239047D01*
X1191223D01*
X1192472Y1237798D01*
X1947970Y1095300D02*
Y1102798D01*
X1951719D01*
X1952968Y1101548D01*
Y1099049D01*
X1951719Y1097799D01*
X1947970D01*
X1959216Y1095300D02*
Y1102798D01*
X1955468Y1099049D01*
X1960466D01*
X1723220Y1092550D02*
Y1100048D01*
X1726969D01*
X1728219Y1098798D01*
Y1096299D01*
X1726969Y1095049D01*
X1723220D01*
X1730718Y1098798D02*
X1731967Y1100048D01*
X1734467D01*
X1735716Y1098798D01*
Y1097549D01*
X1734467Y1096299D01*
X1733217D01*
X1734467D01*
X1735716Y1095049D01*
Y1093800D01*
X1734467Y1092550D01*
X1731967D01*
X1730718Y1093800D01*
X1498220Y1097550D02*
Y1105048D01*
X1501969D01*
X1503219Y1103798D01*
Y1101299D01*
X1501969Y1100049D01*
X1498220D01*
X1510716Y1097550D02*
X1505718D01*
X1510716Y1102549D01*
Y1103798D01*
X1509467Y1105048D01*
X1506967D01*
X1505718Y1103798D01*
X1456473Y1570800D02*
X1463970D01*
Y1575799D01*
X1457722Y1578298D02*
X1456473Y1579547D01*
Y1582047D01*
X1457722Y1583296D01*
X1458972D01*
X1460222Y1582047D01*
X1461471Y1583296D01*
X1462721D01*
X1463970Y1582047D01*
Y1579547D01*
X1462721Y1578298D01*
X1461471D01*
X1460222Y1579547D01*
X1458972Y1578298D01*
X1457722D01*
X1460222Y1579547D02*
Y1582047D01*
X1508723Y1570300D02*
X1516220D01*
Y1575299D01*
X1508723Y1577798D02*
Y1582796D01*
X1509972D01*
X1514971Y1577798D01*
X1516220D01*
X1445970Y1452798D02*
Y1445300D01*
X1450969D01*
X1458466Y1452798D02*
X1455967Y1451548D01*
X1453468Y1449049D01*
Y1446550D01*
X1454718Y1445300D01*
X1457217D01*
X1458466Y1446550D01*
Y1447799D01*
X1457217Y1449049D01*
X1453468D01*
X1433670Y1530798D02*
Y1523300D01*
X1438669D01*
X1446166Y1530798D02*
X1441168D01*
Y1527049D01*
X1443667Y1528299D01*
X1444917D01*
X1446166Y1527049D01*
Y1524550D01*
X1444917Y1523300D01*
X1442417D01*
X1441168Y1524550D01*
X1659220Y1574798D02*
Y1567300D01*
X1664218D01*
X1670466D02*
Y1574798D01*
X1666718Y1571049D01*
X1671716D01*
X1658720Y1647798D02*
Y1640300D01*
X1663719D01*
X1666218Y1646548D02*
X1667467Y1647798D01*
X1669966D01*
X1671216Y1646548D01*
Y1645299D01*
X1669966Y1644049D01*
X1668717D01*
X1669966D01*
X1671216Y1642799D01*
Y1641550D01*
X1669966Y1640300D01*
X1667467D01*
X1666218Y1641550D01*
X1658220Y1608798D02*
Y1601300D01*
X1663219D01*
X1670716D02*
X1665718D01*
X1670716Y1606299D01*
Y1607548D01*
X1669467Y1608798D01*
X1666967D01*
X1665718Y1607548D01*
X1776219Y1804798D02*
X1773719D01*
X1774969D01*
Y1798550D01*
X1773719Y1797300D01*
X1772470D01*
X1771220Y1798550D01*
X1778718Y1803548D02*
X1779967Y1804798D01*
X1782466D01*
X1783716Y1803548D01*
Y1802299D01*
X1782466Y1801049D01*
X1783716Y1799799D01*
Y1798550D01*
X1782466Y1797300D01*
X1779967D01*
X1778718Y1798550D01*
Y1799799D01*
X1779967Y1801049D01*
X1778718Y1802299D01*
Y1803548D01*
X1779967Y1801049D02*
X1782466D01*
X1976219Y977798D02*
X1973719D01*
X1974969D01*
Y971550D01*
X1973719Y970300D01*
X1972470D01*
X1971220Y971550D01*
X1983716Y977798D02*
X1978718D01*
Y974049D01*
X1981217Y975299D01*
X1982466D01*
X1983716Y974049D01*
Y971550D01*
X1982466Y970300D01*
X1979967D01*
X1978718Y971550D01*
X1754218Y977798D02*
X1751719D01*
X1752969D01*
Y971550D01*
X1751719Y970300D01*
X1750470D01*
X1749220Y971550D01*
X1760466Y970300D02*
Y977798D01*
X1756718Y974049D01*
X1761716D01*
X1528219Y977798D02*
X1525719D01*
X1526969D01*
Y971550D01*
X1525719Y970300D01*
X1524470D01*
X1523220Y971550D01*
X1535716Y970300D02*
X1530718D01*
X1535716Y975299D01*
Y976548D01*
X1534467Y977798D01*
X1531967D01*
X1530718Y976548D01*
X1418220Y1668798D02*
Y1661300D01*
X1421969D01*
X1423219Y1662550D01*
Y1667548D01*
X1421969Y1668798D01*
X1418220D01*
X1425718Y1662550D02*
X1426967Y1661300D01*
X1429467D01*
X1430716Y1662550D01*
Y1667548D01*
X1429467Y1668798D01*
X1426967D01*
X1425718Y1667548D01*
Y1666299D01*
X1426967Y1665049D01*
X1430716D01*
X1714220Y1682798D02*
Y1675300D01*
X1717969D01*
X1719218Y1676550D01*
Y1681548D01*
X1717969Y1682798D01*
X1714220D01*
X1721718Y1681548D02*
X1722967Y1682798D01*
X1725466D01*
X1726716Y1681548D01*
Y1680299D01*
X1725466Y1679049D01*
X1726716Y1677799D01*
Y1676550D01*
X1725466Y1675300D01*
X1722967D01*
X1721718Y1676550D01*
Y1677799D01*
X1722967Y1679049D01*
X1721718Y1680299D01*
Y1681548D01*
X1722967Y1679049D02*
X1725466D01*
X2010723Y1446300D02*
X2018220D01*
Y1450049D01*
X2016971Y1451299D01*
X2011972D01*
X2010723Y1450049D01*
Y1446300D01*
Y1453798D02*
Y1458796D01*
X2011972D01*
X2016971Y1453798D01*
X2018220D01*
X1926670Y1244798D02*
Y1237300D01*
X1930419D01*
X1931669Y1238550D01*
Y1243548D01*
X1930419Y1244798D01*
X1926670D01*
X1939166D02*
X1936667Y1243548D01*
X1934168Y1241049D01*
Y1238550D01*
X1935417Y1237300D01*
X1937917D01*
X1939166Y1238550D01*
Y1239800D01*
X1937917Y1241049D01*
X1934168D01*
X1702220Y1244798D02*
Y1237300D01*
X1705969D01*
X1707218Y1238550D01*
Y1243548D01*
X1705969Y1244798D01*
X1702220D01*
X1714716D02*
X1709718D01*
Y1241049D01*
X1712217Y1242299D01*
X1713466D01*
X1714716Y1241049D01*
Y1238550D01*
X1713466Y1237300D01*
X1710967D01*
X1709718Y1238550D01*
X2011223Y1580300D02*
X2018720D01*
Y1584049D01*
X2017471Y1585299D01*
X2012472D01*
X2011223Y1584049D01*
Y1580300D01*
X2018720Y1591547D02*
X2011223D01*
X2014971Y1587798D01*
Y1592796D01*
X1476970Y1246548D02*
Y1239050D01*
X1480719D01*
X1481969Y1240300D01*
Y1245298D01*
X1480719Y1246548D01*
X1476970D01*
X1484468Y1245298D02*
X1485717Y1246548D01*
X1488217D01*
X1489466Y1245298D01*
Y1244049D01*
X1488217Y1242799D01*
X1486967D01*
X1488217D01*
X1489466Y1241549D01*
Y1240300D01*
X1488217Y1239050D01*
X1485717D01*
X1484468Y1240300D01*
X1270641Y1244382D02*
X1278139D01*
Y1248130D01*
X1276889Y1249380D01*
X1271891D01*
X1270641Y1248130D01*
Y1244382D01*
X1278139Y1256878D02*
Y1251879D01*
X1273140Y1256878D01*
X1271891D01*
X1270641Y1255628D01*
Y1253129D01*
X1271891Y1251879D01*
X1295972Y1863299D02*
X1294722Y1862049D01*
Y1859550D01*
X1295972Y1858300D01*
X1300970D01*
X1302220Y1859550D01*
Y1862049D01*
X1300970Y1863299D01*
X1294722Y1870796D02*
X1295972Y1868297D01*
X1298471Y1865798D01*
X1300970D01*
X1302220Y1867047D01*
Y1869547D01*
X1300970Y1870796D01*
X1299721D01*
X1298471Y1869547D01*
Y1865798D01*
X1295972Y1873295D02*
X1294722Y1874545D01*
Y1877044D01*
X1295972Y1878294D01*
X1300970D01*
X1302220Y1877044D01*
Y1874545D01*
X1300970Y1873295D01*
X1295972D01*
X1324972Y1607799D02*
X1323723Y1606549D01*
Y1604050D01*
X1324972Y1602800D01*
X1329971D01*
X1331220Y1604050D01*
Y1606549D01*
X1329971Y1607799D01*
X1323723Y1615296D02*
Y1610298D01*
X1327471D01*
X1326222Y1612797D01*
Y1614047D01*
X1327471Y1615296D01*
X1329971D01*
X1331220Y1614047D01*
Y1611547D01*
X1329971Y1610298D01*
Y1617795D02*
X1331220Y1619045D01*
Y1621544D01*
X1329971Y1622794D01*
X1324972D01*
X1323723Y1621544D01*
Y1619045D01*
X1324972Y1617795D01*
X1326222D01*
X1327471Y1619045D01*
Y1622794D01*
X1887218Y1136548D02*
X1885969Y1137798D01*
X1883470D01*
X1882220Y1136548D01*
Y1131550D01*
X1883470Y1130300D01*
X1885969D01*
X1887218Y1131550D01*
X1889718Y1136548D02*
X1890967Y1137798D01*
X1893466D01*
X1894716Y1136548D01*
Y1135299D01*
X1893466Y1134049D01*
X1892217D01*
X1893466D01*
X1894716Y1132799D01*
Y1131550D01*
X1893466Y1130300D01*
X1890967D01*
X1889718Y1131550D01*
X1902214Y1137798D02*
X1899715Y1136548D01*
X1897215Y1134049D01*
Y1131550D01*
X1898465Y1130300D01*
X1900964D01*
X1902214Y1131550D01*
Y1132799D01*
X1900964Y1134049D01*
X1897215D01*
X1663969Y1136548D02*
X1662719Y1137798D01*
X1660220D01*
X1658970Y1136548D01*
Y1131550D01*
X1660220Y1130300D01*
X1662719D01*
X1663969Y1131550D01*
X1666468Y1136548D02*
X1667717Y1137798D01*
X1670217D01*
X1671466Y1136548D01*
Y1135299D01*
X1670217Y1134049D01*
X1668967D01*
X1670217D01*
X1671466Y1132799D01*
Y1131550D01*
X1670217Y1130300D01*
X1667717D01*
X1666468Y1131550D01*
X1678964Y1137798D02*
X1673965D01*
Y1134049D01*
X1676465Y1135299D01*
X1677714D01*
X1678964Y1134049D01*
Y1131550D01*
X1677714Y1130300D01*
X1675215D01*
X1673965Y1131550D01*
X1481219Y1521548D02*
X1479969Y1522798D01*
X1477470D01*
X1476220Y1521548D01*
Y1516550D01*
X1477470Y1515300D01*
X1479969D01*
X1481219Y1516550D01*
X1488716Y1522798D02*
X1483718D01*
Y1519049D01*
X1486217Y1520299D01*
X1487466D01*
X1488716Y1519049D01*
Y1516550D01*
X1487466Y1515300D01*
X1484967D01*
X1483718Y1516550D01*
X1494964Y1515300D02*
Y1522798D01*
X1491215Y1519049D01*
X1496214D01*
X1788719Y1164048D02*
X1787469Y1165298D01*
X1784970D01*
X1783720Y1164048D01*
Y1159050D01*
X1784970Y1157800D01*
X1787469D01*
X1788719Y1159050D01*
X1791218Y1164048D02*
X1792467Y1165298D01*
X1794966D01*
X1796216Y1164048D01*
Y1162799D01*
X1794966Y1161549D01*
X1793717D01*
X1794966D01*
X1796216Y1160299D01*
Y1159050D01*
X1794966Y1157800D01*
X1792467D01*
X1791218Y1159050D01*
X1798715Y1164048D02*
X1799965Y1165298D01*
X1802464D01*
X1803714Y1164048D01*
Y1162799D01*
X1802464Y1161549D01*
X1801214D01*
X1802464D01*
X1803714Y1160299D01*
Y1159050D01*
X1802464Y1157800D01*
X1799965D01*
X1798715Y1159050D01*
X1424473Y1487049D02*
X1423223Y1485799D01*
Y1483300D01*
X1424473Y1482050D01*
X1429471D01*
X1430721Y1483300D01*
Y1485799D01*
X1429471Y1487049D01*
X1423223Y1494546D02*
Y1489548D01*
X1426972D01*
X1425722Y1492047D01*
Y1493297D01*
X1426972Y1494546D01*
X1429471D01*
X1430721Y1493297D01*
Y1490797D01*
X1429471Y1489548D01*
X1430721Y1497045D02*
Y1499545D01*
Y1498295D01*
X1423223D01*
X1424473Y1497045D01*
X1470972Y1486299D02*
X1469723Y1485049D01*
Y1482550D01*
X1470972Y1481300D01*
X1475971D01*
X1477220Y1482550D01*
Y1485049D01*
X1475971Y1486299D01*
X1469723Y1493796D02*
Y1488798D01*
X1473472D01*
X1472222Y1491297D01*
Y1492547D01*
X1473472Y1493796D01*
X1475971D01*
X1477220Y1492547D01*
Y1490047D01*
X1475971Y1488798D01*
X1470972Y1496295D02*
X1469723Y1497545D01*
Y1500044D01*
X1470972Y1501294D01*
X1475971D01*
X1477220Y1500044D01*
Y1497545D01*
X1475971Y1496295D01*
X1470972D01*
X2069218Y1074548D02*
X2067969Y1075798D01*
X2065470D01*
X2064220Y1074548D01*
Y1069550D01*
X2065470Y1068300D01*
X2067969D01*
X2069218Y1069550D01*
X2076716Y1068300D02*
X2071718D01*
X2076716Y1073299D01*
Y1074548D01*
X2075466Y1075798D01*
X2072967D01*
X2071718Y1074548D01*
X2079215D02*
X2080465Y1075798D01*
X2082964D01*
X2084214Y1074548D01*
Y1073299D01*
X2082964Y1072049D01*
X2084214Y1070799D01*
Y1069550D01*
X2082964Y1068300D01*
X2080465D01*
X2079215Y1069550D01*
Y1070799D01*
X2080465Y1072049D01*
X2079215Y1073299D01*
Y1074548D01*
X2080465Y1072049D02*
X2082964D01*
X1701469Y1410798D02*
X1700219Y1412048D01*
X1697720D01*
X1696470Y1410798D01*
Y1405800D01*
X1697720Y1404550D01*
X1700219D01*
X1701469Y1405800D01*
X1707717Y1404550D02*
Y1412048D01*
X1703968Y1408299D01*
X1708967D01*
X1711466Y1412048D02*
X1716464D01*
Y1410798D01*
X1711466Y1405800D01*
Y1404550D01*
X1511219Y1326548D02*
X1509969Y1327798D01*
X1507470D01*
X1506220Y1326548D01*
Y1321550D01*
X1507470Y1320300D01*
X1509969D01*
X1511219Y1321550D01*
X1517466Y1320300D02*
Y1327798D01*
X1513718Y1324049D01*
X1518716D01*
X1526214Y1327798D02*
X1523714Y1326548D01*
X1521215Y1324049D01*
Y1321550D01*
X1522465Y1320300D01*
X1524964D01*
X1526214Y1321550D01*
Y1322799D01*
X1524964Y1324049D01*
X1521215D01*
X1651719Y1335798D02*
X1650469Y1337048D01*
X1647970D01*
X1646720Y1335798D01*
Y1330800D01*
X1647970Y1329550D01*
X1650469D01*
X1651719Y1330800D01*
X1657967Y1329550D02*
Y1337048D01*
X1654218Y1333299D01*
X1659216D01*
X1665464Y1329550D02*
Y1337048D01*
X1661716Y1333299D01*
X1666714D01*
X1702734Y1484782D02*
X1701485Y1486032D01*
X1698986D01*
X1697736Y1484782D01*
Y1479784D01*
X1698986Y1478534D01*
X1701485D01*
X1702734Y1479784D01*
X1708982Y1478534D02*
Y1486032D01*
X1705234Y1482283D01*
X1710232D01*
X1712731Y1484782D02*
X1713981Y1486032D01*
X1716480D01*
X1717730Y1484782D01*
Y1483532D01*
X1716480Y1482283D01*
X1715230D01*
X1716480D01*
X1717730Y1481033D01*
Y1479784D01*
X1716480Y1478534D01*
X1713981D01*
X1712731Y1479784D01*
X1189472Y1155799D02*
X1188223Y1154549D01*
Y1152050D01*
X1189472Y1150800D01*
X1194471D01*
X1195720Y1152050D01*
Y1154549D01*
X1194471Y1155799D01*
X1195720Y1158298D02*
Y1160797D01*
Y1159547D01*
X1188223D01*
X1189472Y1158298D01*
X1188223Y1164546D02*
Y1169544D01*
X1189472D01*
X1194471Y1164546D01*
X1195720D01*
X2013719Y1169048D02*
X2012469Y1170298D01*
X2009970D01*
X2008720Y1169048D01*
Y1164050D01*
X2009970Y1162800D01*
X2012469D01*
X2013719Y1164050D01*
X2016218Y1169048D02*
X2017467Y1170298D01*
X2019966D01*
X2021216Y1169048D01*
Y1167799D01*
X2019966Y1166549D01*
X2018717D01*
X2019966D01*
X2021216Y1165299D01*
Y1164050D01*
X2019966Y1162800D01*
X2017467D01*
X2016218Y1164050D01*
X2027464Y1162800D02*
Y1170298D01*
X2023715Y1166549D01*
X2028714D01*
X1516219Y1086548D02*
X1514969Y1087798D01*
X1512470D01*
X1511220Y1086548D01*
Y1081550D01*
X1512470Y1080300D01*
X1514969D01*
X1516219Y1081550D01*
X1518718D02*
X1519967Y1080300D01*
X1522466D01*
X1523716Y1081550D01*
Y1086548D01*
X1522466Y1087798D01*
X1519967D01*
X1518718Y1086548D01*
Y1085299D01*
X1519967Y1084049D01*
X1523716D01*
X1383719Y1086548D02*
X1382469Y1087798D01*
X1379970D01*
X1378720Y1086548D01*
Y1081550D01*
X1379970Y1080300D01*
X1382469D01*
X1383719Y1081550D01*
X1386218Y1087798D02*
X1391216D01*
Y1086548D01*
X1386218Y1081550D01*
Y1080300D01*
X1566219Y1171548D02*
X1564969Y1172798D01*
X1562470D01*
X1561220Y1171548D01*
Y1166550D01*
X1562470Y1165300D01*
X1564969D01*
X1566219Y1166550D01*
X1568718Y1165300D02*
X1571217D01*
X1569967D01*
Y1172798D01*
X1568718Y1171548D01*
X1579964Y1172798D02*
X1577465Y1171548D01*
X1574966Y1169049D01*
Y1166550D01*
X1576215Y1165300D01*
X1578714D01*
X1579964Y1166550D01*
Y1167799D01*
X1578714Y1169049D01*
X1574966D01*
X1338719Y1169048D02*
X1337469Y1170298D01*
X1334970D01*
X1333720Y1169048D01*
Y1164050D01*
X1334970Y1162800D01*
X1337469D01*
X1338719Y1164050D01*
X1341218Y1162800D02*
X1343717D01*
X1342467D01*
Y1170298D01*
X1341218Y1169048D01*
X1352464Y1170298D02*
X1347466D01*
Y1166549D01*
X1349965Y1167799D01*
X1351214D01*
X1352464Y1166549D01*
Y1164050D01*
X1351214Y1162800D01*
X1348715D01*
X1347466Y1164050D01*
X1617218Y1116298D02*
X1615969Y1117548D01*
X1613470D01*
X1612220Y1116298D01*
Y1111300D01*
X1613470Y1110050D01*
X1615969D01*
X1617218Y1111300D01*
X1624716Y1110050D02*
X1619718D01*
X1624716Y1115049D01*
Y1116298D01*
X1623466Y1117548D01*
X1620967D01*
X1619718Y1116298D01*
X1395719D02*
X1394469Y1117548D01*
X1391970D01*
X1390720Y1116298D01*
Y1111300D01*
X1391970Y1110050D01*
X1394469D01*
X1395719Y1111300D01*
X1398218Y1110050D02*
X1400717D01*
X1399467D01*
Y1117548D01*
X1398218Y1116298D01*
X1830220Y1025300D02*
X1822722D01*
Y1029049D01*
X1823972Y1030299D01*
X1826471D01*
X1827721Y1029049D01*
Y1025300D01*
Y1027799D02*
X1830220Y1030299D01*
Y1036547D02*
X1822722D01*
X1826471Y1032798D01*
Y1037796D01*
X1828970Y1040295D02*
X1830220Y1041545D01*
Y1044044D01*
X1828970Y1045294D01*
X1823972D01*
X1822722Y1044044D01*
Y1041545D01*
X1823972Y1040295D01*
X1825222D01*
X1826471Y1041545D01*
Y1045294D01*
X1754220Y1024300D02*
X1746723D01*
Y1028049D01*
X1747972Y1029299D01*
X1750471D01*
X1751721Y1028049D01*
Y1024300D01*
Y1026799D02*
X1754220Y1029299D01*
X1746723Y1036796D02*
Y1031798D01*
X1750471D01*
X1749222Y1034297D01*
Y1035547D01*
X1750471Y1036796D01*
X1752970D01*
X1754220Y1035547D01*
Y1033047D01*
X1752970Y1031798D01*
X1747972Y1039295D02*
X1746723Y1040545D01*
Y1043044D01*
X1747972Y1044294D01*
X1752970D01*
X1754220Y1043044D01*
Y1040545D01*
X1752970Y1039295D01*
X1747972D01*
X2054770Y1025200D02*
X2047273D01*
Y1028949D01*
X2048522Y1030199D01*
X2051021D01*
X2052271Y1028949D01*
Y1025200D01*
Y1027700D02*
X2054770Y1030199D01*
X2047273Y1037696D02*
Y1032698D01*
X2051021D01*
X2049772Y1035197D01*
Y1036447D01*
X2051021Y1037696D01*
X2053521D01*
X2054770Y1036447D01*
Y1033948D01*
X2053521Y1032698D01*
X2054770Y1040195D02*
Y1042695D01*
Y1041445D01*
X2047273D01*
X2048522Y1040195D01*
X1289972Y1125299D02*
X1288723Y1124049D01*
Y1121550D01*
X1289972Y1120300D01*
X1294971D01*
X1296220Y1121550D01*
Y1124049D01*
X1294971Y1125299D01*
X1289972Y1127798D02*
X1288723Y1129047D01*
Y1131547D01*
X1289972Y1132796D01*
X1291222D01*
X1292471Y1131547D01*
Y1130297D01*
Y1131547D01*
X1293721Y1132796D01*
X1294971D01*
X1296220Y1131547D01*
Y1129047D01*
X1294971Y1127798D01*
X1247472Y1167549D02*
X1246223Y1166299D01*
Y1163800D01*
X1247472Y1162550D01*
X1252470D01*
X1253720Y1163800D01*
Y1166299D01*
X1252470Y1167549D01*
X1253720Y1173797D02*
X1246223D01*
X1249971Y1170048D01*
Y1175046D01*
X1508719Y1129048D02*
X1507469Y1130298D01*
X1504970D01*
X1503720Y1129048D01*
Y1124050D01*
X1504970Y1122800D01*
X1507469D01*
X1508719Y1124050D01*
X1516216Y1130298D02*
X1511218D01*
Y1126549D01*
X1513717Y1127799D01*
X1514966D01*
X1516216Y1126549D01*
Y1124050D01*
X1514966Y1122800D01*
X1512467D01*
X1511218Y1124050D01*
X1538719Y1161548D02*
X1537469Y1162798D01*
X1534970D01*
X1533720Y1161548D01*
Y1156550D01*
X1534970Y1155300D01*
X1537469D01*
X1538719Y1156550D01*
X1546216Y1162798D02*
X1543717Y1161548D01*
X1541218Y1159049D01*
Y1156550D01*
X1542467Y1155300D01*
X1544966D01*
X1546216Y1156550D01*
Y1157799D01*
X1544966Y1159049D01*
X1541218D01*
X1732719Y1131548D02*
X1731469Y1132798D01*
X1728970D01*
X1727720Y1131548D01*
Y1126550D01*
X1728970Y1125300D01*
X1731469D01*
X1732719Y1126550D01*
X1740216Y1125300D02*
X1735218D01*
X1740216Y1130299D01*
Y1131548D01*
X1738967Y1132798D01*
X1736467D01*
X1735218Y1131548D01*
X1742715Y1125300D02*
X1745215D01*
X1743965D01*
Y1132798D01*
X1742715Y1131548D01*
X1758719Y1171548D02*
X1757469Y1172798D01*
X1754970D01*
X1753720Y1171548D01*
Y1166550D01*
X1754970Y1165300D01*
X1757469D01*
X1758719Y1166550D01*
X1766216Y1165300D02*
X1761218D01*
X1766216Y1170299D01*
Y1171548D01*
X1764966Y1172798D01*
X1762467D01*
X1761218Y1171548D01*
X1773714Y1165300D02*
X1768715D01*
X1773714Y1170299D01*
Y1171548D01*
X1772464Y1172798D01*
X1769965D01*
X1768715Y1171548D01*
X1961219Y1129048D02*
X1959969Y1130298D01*
X1957470D01*
X1956220Y1129048D01*
Y1124050D01*
X1957470Y1122800D01*
X1959969D01*
X1961219Y1124050D01*
X1968716Y1122800D02*
X1963718D01*
X1968716Y1127799D01*
Y1129048D01*
X1967466Y1130298D01*
X1964967D01*
X1963718Y1129048D01*
X1971215D02*
X1972465Y1130298D01*
X1974964D01*
X1976214Y1129048D01*
Y1127799D01*
X1974964Y1126549D01*
X1973714D01*
X1974964D01*
X1976214Y1125299D01*
Y1124050D01*
X1974964Y1122800D01*
X1972465D01*
X1971215Y1124050D01*
X1983719Y1171548D02*
X1982469Y1172798D01*
X1979970D01*
X1978720Y1171548D01*
Y1166550D01*
X1979970Y1165300D01*
X1982469D01*
X1983719Y1166550D01*
X1991216Y1165300D02*
X1986218D01*
X1991216Y1170299D01*
Y1171548D01*
X1989966Y1172798D01*
X1987467D01*
X1986218Y1171548D01*
X1997464Y1165300D02*
Y1172798D01*
X1993715Y1169049D01*
X1998714D01*
X1294969Y1086298D02*
X1293719Y1087548D01*
X1291220D01*
X1289970Y1086298D01*
Y1081300D01*
X1291220Y1080050D01*
X1293719D01*
X1294969Y1081300D01*
X1297468Y1086298D02*
X1298717Y1087548D01*
X1301216D01*
X1302466Y1086298D01*
Y1085049D01*
X1301216Y1083799D01*
X1302466Y1082549D01*
Y1081300D01*
X1301216Y1080050D01*
X1298717D01*
X1297468Y1081300D01*
Y1082549D01*
X1298717Y1083799D01*
X1297468Y1085049D01*
Y1086298D01*
X1298717Y1083799D02*
X1301216D01*
X1619469Y1072548D02*
X1618219Y1073798D01*
X1615720D01*
X1614470Y1072548D01*
Y1067550D01*
X1615720Y1066300D01*
X1618219D01*
X1619469Y1067550D01*
X1621968Y1066300D02*
X1624467D01*
X1623217D01*
Y1073798D01*
X1621968Y1072548D01*
X1628216D02*
X1629465Y1073798D01*
X1631965D01*
X1633214Y1072548D01*
Y1067550D01*
X1631965Y1066300D01*
X1629465D01*
X1628216Y1067550D01*
Y1072548D01*
X1844969Y1073048D02*
X1843719Y1074298D01*
X1841220D01*
X1839970Y1073048D01*
Y1068050D01*
X1841220Y1066800D01*
X1843719D01*
X1844969Y1068050D01*
X1852466Y1066800D02*
X1847468D01*
X1852466Y1071799D01*
Y1073048D01*
X1851216Y1074298D01*
X1848717D01*
X1847468Y1073048D01*
X1859964Y1074298D02*
X1857464Y1073048D01*
X1854965Y1070549D01*
Y1068050D01*
X1856215Y1066800D01*
X1858714D01*
X1859964Y1068050D01*
Y1069299D01*
X1858714Y1070549D01*
X1854965D01*
X1956219Y1086548D02*
X1954969Y1087798D01*
X1952470D01*
X1951220Y1086548D01*
Y1081550D01*
X1952470Y1080300D01*
X1954969D01*
X1956219Y1081550D01*
X1963716Y1080300D02*
X1958718D01*
X1963716Y1085299D01*
Y1086548D01*
X1962466Y1087798D01*
X1959967D01*
X1958718Y1086548D01*
X1966215Y1081550D02*
X1967465Y1080300D01*
X1969964D01*
X1971214Y1081550D01*
Y1086548D01*
X1969964Y1087798D01*
X1967465D01*
X1966215Y1086548D01*
Y1085299D01*
X1967465Y1084049D01*
X1971214D01*
X1406972Y1111299D02*
X1405723Y1110049D01*
Y1107550D01*
X1406972Y1106300D01*
X1411971D01*
X1413220Y1107550D01*
Y1110049D01*
X1411971Y1111299D01*
X1413220Y1113798D02*
Y1116297D01*
Y1115047D01*
X1405723D01*
X1406972Y1113798D01*
Y1120046D02*
X1405723Y1121295D01*
Y1123795D01*
X1406972Y1125044D01*
X1408222D01*
X1409471Y1123795D01*
Y1122545D01*
Y1123795D01*
X1410721Y1125044D01*
X1411971D01*
X1413220Y1123795D01*
Y1121295D01*
X1411971Y1120046D01*
X1630222Y1178799D02*
X1628972Y1177549D01*
Y1175050D01*
X1630222Y1173800D01*
X1635220D01*
X1636470Y1175050D01*
Y1177549D01*
X1635220Y1178799D01*
X1636470Y1181298D02*
Y1183797D01*
Y1182547D01*
X1628972D01*
X1630222Y1181298D01*
X1636470Y1191295D02*
X1628972D01*
X1632721Y1187546D01*
Y1192544D01*
X1854972Y1179299D02*
X1853723Y1178049D01*
Y1175550D01*
X1854972Y1174300D01*
X1859971D01*
X1861220Y1175550D01*
Y1178049D01*
X1859971Y1179299D01*
X1854972Y1181798D02*
X1853723Y1183047D01*
Y1185547D01*
X1854972Y1186796D01*
X1856222D01*
X1857471Y1185547D01*
Y1184297D01*
Y1185547D01*
X1858721Y1186796D01*
X1859971D01*
X1861220Y1185547D01*
Y1183047D01*
X1859971Y1181798D01*
X1854972Y1189295D02*
X1853723Y1190545D01*
Y1193044D01*
X1854972Y1194294D01*
X1859971D01*
X1861220Y1193044D01*
Y1190545D01*
X1859971Y1189295D01*
X1854972D01*
X2092972Y1151299D02*
X2091723Y1150049D01*
Y1147550D01*
X2092972Y1146300D01*
X2097970D01*
X2099220Y1147550D01*
Y1150049D01*
X2097970Y1151299D01*
X2092972Y1153798D02*
X2091723Y1155047D01*
Y1157547D01*
X2092972Y1158796D01*
X2094222D01*
X2095471Y1157547D01*
Y1156297D01*
Y1157547D01*
X2096721Y1158796D01*
X2097970D01*
X2099220Y1157547D01*
Y1155047D01*
X2097970Y1153798D01*
X2099220Y1166294D02*
Y1161295D01*
X2094222Y1166294D01*
X2092972D01*
X2091723Y1165044D01*
Y1162545D01*
X2092972Y1161295D01*
X1763720Y1435300D02*
Y1442798D01*
X1767469D01*
X1768719Y1441548D01*
Y1439049D01*
X1767469Y1437799D01*
X1763720D01*
X1766219D02*
X1768719Y1435300D01*
X1771218Y1436550D02*
X1772467Y1435300D01*
X1774966D01*
X1776216Y1436550D01*
Y1441548D01*
X1774966Y1442798D01*
X1772467D01*
X1771218Y1441548D01*
Y1440299D01*
X1772467Y1439049D01*
X1776216D01*
X1778715Y1436550D02*
X1779965Y1435300D01*
X1782464D01*
X1783714Y1436550D01*
Y1441548D01*
X1782464Y1442798D01*
X1779965D01*
X1778715Y1441548D01*
Y1440299D01*
X1779965Y1439049D01*
X1783714D01*
X1758720Y1415300D02*
Y1422798D01*
X1762469D01*
X1763719Y1421548D01*
Y1419049D01*
X1762469Y1417799D01*
X1758720D01*
X1761219D02*
X1763719Y1415300D01*
X1766218D02*
X1768717D01*
X1767467D01*
Y1422798D01*
X1766218Y1421548D01*
X1772466D02*
X1773715Y1422798D01*
X1776214D01*
X1777464Y1421548D01*
Y1416550D01*
X1776214Y1415300D01*
X1773715D01*
X1772466Y1416550D01*
Y1421548D01*
X1779963D02*
X1781213Y1422798D01*
X1783712D01*
X1784962Y1421548D01*
Y1416550D01*
X1783712Y1415300D01*
X1781213D01*
X1779963Y1416550D01*
Y1421548D01*
X1241220Y1287300D02*
Y1294798D01*
X1244969D01*
X1246218Y1293548D01*
Y1291049D01*
X1244969Y1289799D01*
X1241220D01*
X1243719D02*
X1246218Y1287300D01*
X1248718Y1288550D02*
X1249967Y1287300D01*
X1252467D01*
X1253716Y1288550D01*
Y1293548D01*
X1252467Y1294798D01*
X1249967D01*
X1248718Y1293548D01*
Y1292299D01*
X1249967Y1291049D01*
X1253716D01*
X1256215Y1293548D02*
X1257465Y1294798D01*
X1259964D01*
X1261214Y1293548D01*
Y1292299D01*
X1259964Y1291049D01*
X1258715D01*
X1259964D01*
X1261214Y1289799D01*
Y1288550D01*
X1259964Y1287300D01*
X1257465D01*
X1256215Y1288550D01*
X2002220Y1728300D02*
X1994722D01*
Y1732049D01*
X1995972Y1733299D01*
X1998471D01*
X1999721Y1732049D01*
Y1728300D01*
Y1730799D02*
X2002220Y1733299D01*
Y1735798D02*
Y1738297D01*
Y1737047D01*
X1994722D01*
X1995972Y1735798D01*
Y1742046D02*
X1994722Y1743295D01*
Y1745795D01*
X1995972Y1747044D01*
X1997222D01*
X1998471Y1745795D01*
Y1744545D01*
Y1745795D01*
X1999721Y1747044D01*
X2000970D01*
X2002220Y1745795D01*
Y1743295D01*
X2000970Y1742046D01*
X1688027Y1225133D02*
X1680529D01*
Y1228882D01*
X1681779Y1230131D01*
X1684278D01*
X1685528Y1228882D01*
Y1225133D01*
Y1227632D02*
X1688027Y1230131D01*
Y1236379D02*
X1680529D01*
X1684278Y1232630D01*
Y1237629D01*
X1680529Y1245126D02*
X1681779Y1242627D01*
X1684278Y1240128D01*
X1686777D01*
X1688027Y1241378D01*
Y1243877D01*
X1686777Y1245126D01*
X1685528D01*
X1684278Y1243877D01*
Y1240128D01*
X1913220Y1225300D02*
X1905723D01*
Y1229049D01*
X1906972Y1230299D01*
X1909471D01*
X1910721Y1229049D01*
Y1225300D01*
Y1227799D02*
X1913220Y1230299D01*
X1905723Y1237796D02*
X1906972Y1235297D01*
X1909471Y1232798D01*
X1911971D01*
X1913220Y1234047D01*
Y1236547D01*
X1911971Y1237796D01*
X1910721D01*
X1909471Y1236547D01*
Y1232798D01*
X1913220Y1240295D02*
Y1242795D01*
Y1241545D01*
X1905723D01*
X1906972Y1240295D01*
X1463220Y1233300D02*
X1455723D01*
Y1237049D01*
X1456972Y1238299D01*
X1459471D01*
X1460721Y1237049D01*
Y1233300D01*
Y1235799D02*
X1463220Y1238299D01*
Y1240798D02*
Y1243297D01*
Y1242047D01*
X1455723D01*
X1456972Y1240798D01*
X1455723Y1247046D02*
Y1252044D01*
X1456972D01*
X1461971Y1247046D01*
X1463220D01*
X1243720Y1200300D02*
X1236223D01*
Y1204049D01*
X1237472Y1205299D01*
X1239971D01*
X1241221Y1204049D01*
Y1200300D01*
Y1202799D02*
X1243720Y1205299D01*
Y1207798D02*
Y1210297D01*
Y1209047D01*
X1236223D01*
X1237472Y1207798D01*
X1236223Y1219044D02*
X1237472Y1216545D01*
X1239971Y1214046D01*
X1242470D01*
X1243720Y1215295D01*
Y1217795D01*
X1242470Y1219044D01*
X1241221D01*
X1239971Y1217795D01*
Y1214046D01*
X1893470Y1447800D02*
X1885973D01*
Y1451549D01*
X1887222Y1452799D01*
X1889721D01*
X1890971Y1451549D01*
Y1447800D01*
Y1450299D02*
X1893470Y1452799D01*
X1887222Y1455298D02*
X1885973Y1456547D01*
Y1459047D01*
X1887222Y1460296D01*
X1888472D01*
X1889721Y1459047D01*
X1890971Y1460296D01*
X1892221D01*
X1893470Y1459047D01*
Y1456547D01*
X1892221Y1455298D01*
X1890971D01*
X1889721Y1456547D01*
X1888472Y1455298D01*
X1887222D01*
X1889721Y1456547D02*
Y1459047D01*
X1885973Y1467794D02*
Y1462795D01*
X1889721D01*
X1888472Y1465295D01*
Y1466544D01*
X1889721Y1467794D01*
X1892221D01*
X1893470Y1466544D01*
Y1464045D01*
X1892221Y1462795D01*
X1433719Y1137048D02*
X1432469Y1138298D01*
X1429970D01*
X1428720Y1137048D01*
Y1132050D01*
X1429970Y1130800D01*
X1432469D01*
X1433719Y1132050D01*
X1436218Y1130800D02*
X1438717D01*
X1437467D01*
Y1138298D01*
X1436218Y1137048D01*
X1442466D02*
X1443715Y1138298D01*
X1446214D01*
X1447464Y1137048D01*
Y1135799D01*
X1446214Y1134549D01*
X1447464Y1133299D01*
Y1132050D01*
X1446214Y1130800D01*
X1443715D01*
X1442466Y1132050D01*
Y1133299D01*
X1443715Y1134549D01*
X1442466Y1135799D01*
Y1137048D01*
X1443715Y1134549D02*
X1446214D01*
X2095972Y1026299D02*
X2094722Y1025049D01*
Y1022550D01*
X2095972Y1021300D01*
X2100970D01*
X2102220Y1022550D01*
Y1025049D01*
X2100970Y1026299D01*
X2094722Y1033796D02*
X2095972Y1031297D01*
X2098471Y1028798D01*
X2100970D01*
X2102220Y1030047D01*
Y1032547D01*
X2100970Y1033796D01*
X2099721D01*
X2098471Y1032547D01*
Y1028798D01*
X2102220Y1041294D02*
Y1036295D01*
X2097222Y1041294D01*
X2095972D01*
X2094722Y1040044D01*
Y1037545D01*
X2095972Y1036295D01*
X1375385Y1322797D02*
X1372052D01*
X1373719D01*
Y1314466D01*
X1372052Y1312800D01*
X1370386D01*
X1368720Y1314466D01*
X1378717Y1312800D02*
X1382049D01*
X1380383D01*
Y1322797D01*
X1378717Y1321131D01*
X1387047D02*
X1388714Y1322797D01*
X1392046D01*
X1393712Y1321131D01*
Y1319465D01*
X1392046Y1317799D01*
X1393712Y1316132D01*
Y1314466D01*
X1392046Y1312800D01*
X1388714D01*
X1387047Y1314466D01*
Y1316132D01*
X1388714Y1317799D01*
X1387047Y1319465D01*
Y1321131D01*
X1388714Y1317799D02*
X1392046D01*
X2108723Y995299D02*
Y992799D01*
Y994049D01*
X2114971D01*
X2116220Y992799D01*
Y991550D01*
X2114971Y990300D01*
X2116220Y1002796D02*
Y997798D01*
X2111222Y1002796D01*
X2109972D01*
X2108723Y1001547D01*
Y999047D01*
X2109972Y997798D01*
X2116220Y1005295D02*
Y1007795D01*
Y1006545D01*
X2108723D01*
X2109972Y1005295D01*
X2089972Y1091299D02*
X2088723Y1090049D01*
Y1087550D01*
X2089972Y1086300D01*
X2094971D01*
X2096220Y1087550D01*
Y1090049D01*
X2094971Y1091299D01*
X2096220Y1097547D02*
X2088723D01*
X2092471Y1093798D01*
Y1098796D01*
X2096220Y1101295D02*
Y1103795D01*
Y1102545D01*
X2088723D01*
X2089972Y1101295D01*
X2143720Y1157798D02*
Y1150300D01*
X2147469D01*
X2148719Y1151550D01*
Y1156548D01*
X2147469Y1157798D01*
X2143720D01*
X2156216Y1150300D02*
X2151218D01*
X2156216Y1155299D01*
Y1156548D01*
X2154966Y1157798D01*
X2152467D01*
X2151218Y1156548D01*
X2158715D02*
X2159965Y1157798D01*
X2162464D01*
X2163714Y1156548D01*
Y1151550D01*
X2162464Y1150300D01*
X2159965D01*
X2158715Y1151550D01*
Y1156548D01*
X2128719Y1186550D02*
Y1191548D01*
X2127469Y1192798D01*
X2124970D01*
X2123720Y1191548D01*
Y1186550D01*
X2124970Y1185300D01*
X2127469D01*
X2126219Y1187799D02*
X2128719Y1185300D01*
X2127469D02*
X2128719Y1186550D01*
X2131218Y1185300D02*
X2133717D01*
X2132467D01*
Y1192798D01*
X2131218Y1191548D01*
X2137466D02*
X2138715Y1192798D01*
X2141214D01*
X2142464Y1191548D01*
Y1190299D01*
X2141214Y1189049D01*
X2139965D01*
X2141214D01*
X2142464Y1187799D01*
Y1186550D01*
X2141214Y1185300D01*
X2138715D01*
X2137466Y1186550D01*
X2121220Y1207800D02*
Y1215298D01*
X2124969D01*
X2126219Y1214048D01*
Y1211549D01*
X2124969Y1210299D01*
X2121220D01*
X2123719D02*
X2126219Y1207800D01*
X2128718D02*
X2131217D01*
X2129967D01*
Y1215298D01*
X2128718Y1214048D01*
X2134966Y1207800D02*
X2137465D01*
X2136215D01*
Y1215298D01*
X2134966Y1214048D01*
X2128220Y1222300D02*
Y1229798D01*
X2131969D01*
X2133219Y1228548D01*
Y1226049D01*
X2131969Y1224799D01*
X2128220D01*
X2130719D02*
X2133219Y1222300D01*
X2135718Y1228548D02*
X2136967Y1229798D01*
X2139467D01*
X2140716Y1228548D01*
Y1227299D01*
X2139467Y1226049D01*
X2138217D01*
X2139467D01*
X2140716Y1224799D01*
Y1223550D01*
X2139467Y1222300D01*
X2136967D01*
X2135718Y1223550D01*
X2143215Y1228548D02*
X2144465Y1229798D01*
X2146964D01*
X2148214Y1228548D01*
Y1227299D01*
X2146964Y1226049D01*
X2145715D01*
X2146964D01*
X2148214Y1224799D01*
Y1223550D01*
X2146964Y1222300D01*
X2144465D01*
X2143215Y1223550D01*
X1369972Y1335299D02*
X1368723Y1334049D01*
Y1331550D01*
X1369972Y1330300D01*
X1374971D01*
X1376220Y1331550D01*
Y1334049D01*
X1374971Y1335299D01*
X1368723Y1342796D02*
X1369972Y1340297D01*
X1372471Y1337798D01*
X1374971D01*
X1376220Y1339047D01*
Y1341547D01*
X1374971Y1342796D01*
X1373721D01*
X1372471Y1341547D01*
Y1337798D01*
X1369972Y1345295D02*
X1368723Y1346545D01*
Y1349044D01*
X1369972Y1350294D01*
X1371222D01*
X1372471Y1349044D01*
X1373721Y1350294D01*
X1374971D01*
X1376220Y1349044D01*
Y1346545D01*
X1374971Y1345295D01*
X1373721D01*
X1372471Y1346545D01*
X1371222Y1345295D01*
X1369972D01*
X1372471Y1346545D02*
Y1349044D01*
X1319972Y1405299D02*
X1318723Y1404049D01*
Y1401550D01*
X1319972Y1400300D01*
X1324971D01*
X1326220Y1401550D01*
Y1404049D01*
X1324971Y1405299D01*
X1326220Y1411547D02*
X1318723D01*
X1322471Y1407798D01*
Y1412796D01*
X1326220Y1420294D02*
Y1415295D01*
X1321222Y1420294D01*
X1319972D01*
X1318723Y1419044D01*
Y1416545D01*
X1319972Y1415295D01*
X1278718Y1446548D02*
X1277469Y1447798D01*
X1274970D01*
X1273720Y1446548D01*
Y1441550D01*
X1274970Y1440300D01*
X1277469D01*
X1278718Y1441550D01*
X1281218Y1447798D02*
X1286216D01*
Y1446548D01*
X1281218Y1441550D01*
Y1440300D01*
X1288715Y1446548D02*
X1289965Y1447798D01*
X1292464D01*
X1293714Y1446548D01*
Y1441550D01*
X1292464Y1440300D01*
X1289965D01*
X1288715Y1441550D01*
Y1446548D01*
X1997472Y1700299D02*
X1996223Y1699049D01*
Y1696550D01*
X1997472Y1695300D01*
X2002471D01*
X2003720Y1696550D01*
Y1699049D01*
X2002471Y1700299D01*
X1996223Y1702798D02*
Y1707796D01*
X1997472D01*
X2002471Y1702798D01*
X2003720D01*
Y1710295D02*
Y1712795D01*
Y1711545D01*
X1996223D01*
X1997472Y1710295D01*
X2014972Y1552799D02*
X2013723Y1551549D01*
Y1549050D01*
X2014972Y1547800D01*
X2019971D01*
X2021220Y1549050D01*
Y1551549D01*
X2019971Y1552799D01*
X2013723Y1555298D02*
Y1560296D01*
X2014972D01*
X2019971Y1555298D01*
X2021220D01*
Y1567794D02*
Y1562795D01*
X2016222Y1567794D01*
X2014972D01*
X2013723Y1566544D01*
Y1564045D01*
X2014972Y1562795D01*
X2016222Y1419549D02*
X2014973Y1418299D01*
Y1415800D01*
X2016222Y1414550D01*
X2021221D01*
X2022470Y1415800D01*
Y1418299D01*
X2021221Y1419549D01*
X2014973Y1422048D02*
Y1427046D01*
X2016222D01*
X2021221Y1422048D01*
X2022470D01*
X2016222Y1429545D02*
X2014973Y1430795D01*
Y1433294D01*
X2016222Y1434544D01*
X2017472D01*
X2018721Y1433294D01*
Y1432045D01*
Y1433294D01*
X2019971Y1434544D01*
X2021221D01*
X2022470Y1433294D01*
Y1430795D01*
X2021221Y1429545D01*
X1586470Y1194550D02*
Y1202048D01*
X1590219D01*
X1591469Y1200798D01*
Y1198299D01*
X1590219Y1197049D01*
X1586470D01*
X1588969D02*
X1591469Y1194550D01*
X1598966D02*
X1593968D01*
X1598966Y1199549D01*
Y1200798D01*
X1597717Y1202048D01*
X1595217D01*
X1593968Y1200798D01*
X1601465Y1195800D02*
X1602715Y1194550D01*
X1605214D01*
X1606464Y1195800D01*
Y1200798D01*
X1605214Y1202048D01*
X1602715D01*
X1601465Y1200798D01*
Y1199549D01*
X1602715Y1198299D01*
X1606464D01*
X1478719Y1331548D02*
X1477469Y1332798D01*
X1474970D01*
X1473720Y1331548D01*
Y1326550D01*
X1474970Y1325300D01*
X1477469D01*
X1478719Y1326550D01*
X1486216Y1332798D02*
X1481218D01*
Y1329049D01*
X1483717Y1330299D01*
X1484966D01*
X1486216Y1329049D01*
Y1326550D01*
X1484966Y1325300D01*
X1482467D01*
X1481218Y1326550D01*
X1493714Y1332798D02*
X1491214Y1331548D01*
X1488715Y1329049D01*
Y1326550D01*
X1489965Y1325300D01*
X1492464D01*
X1493714Y1326550D01*
Y1327799D01*
X1492464Y1329049D01*
X1488715D01*
X1478719Y1439048D02*
X1477469Y1440298D01*
X1474970D01*
X1473720Y1439048D01*
Y1434050D01*
X1474970Y1432800D01*
X1477469D01*
X1478719Y1434050D01*
X1486216Y1440298D02*
X1481218D01*
Y1436549D01*
X1483717Y1437799D01*
X1484966D01*
X1486216Y1436549D01*
Y1434050D01*
X1484966Y1432800D01*
X1482467D01*
X1481218Y1434050D01*
X1493714Y1440298D02*
X1488715D01*
Y1436549D01*
X1491214Y1437799D01*
X1492464D01*
X1493714Y1436549D01*
Y1434050D01*
X1492464Y1432800D01*
X1489965D01*
X1488715Y1434050D01*
X1486969Y1577798D02*
X1485719Y1579048D01*
X1483220D01*
X1481971Y1577798D01*
Y1572800D01*
X1483220Y1571550D01*
X1485719D01*
X1486969Y1572800D01*
X1494467Y1579048D02*
X1489468D01*
Y1575299D01*
X1491967Y1576549D01*
X1493217D01*
X1494467Y1575299D01*
Y1572800D01*
X1493217Y1571550D01*
X1490718D01*
X1489468Y1572800D01*
X1496966Y1577798D02*
X1498215Y1579048D01*
X1500714D01*
X1501964Y1577798D01*
Y1576549D01*
X1500714Y1575299D01*
X1499465D01*
X1500714D01*
X1501964Y1574049D01*
Y1572800D01*
X1500714Y1571550D01*
X1498215D01*
X1496966Y1572800D01*
X1656469Y1519298D02*
X1655219Y1520548D01*
X1652720D01*
X1651470Y1519298D01*
Y1514300D01*
X1652720Y1513050D01*
X1655219D01*
X1656469Y1514300D01*
X1662717Y1513050D02*
Y1520548D01*
X1658968Y1516799D01*
X1663966D01*
X1666466Y1519298D02*
X1667715Y1520548D01*
X1670214D01*
X1671464Y1519298D01*
Y1518049D01*
X1670214Y1516799D01*
X1671464Y1515549D01*
Y1514300D01*
X1670214Y1513050D01*
X1667715D01*
X1666466Y1514300D01*
Y1515549D01*
X1667715Y1516799D01*
X1666466Y1518049D01*
Y1519298D01*
X1667715Y1516799D02*
X1670214D01*
X1607972Y1549299D02*
X1606723Y1548049D01*
Y1545550D01*
X1607972Y1544300D01*
X1612970D01*
X1614220Y1545550D01*
Y1548049D01*
X1612970Y1549299D01*
X1607972Y1551798D02*
X1606723Y1553047D01*
Y1555547D01*
X1607972Y1556796D01*
X1609222D01*
X1610471Y1555547D01*
Y1554297D01*
Y1555547D01*
X1611721Y1556796D01*
X1612970D01*
X1614220Y1555547D01*
Y1553047D01*
X1612970Y1551798D01*
Y1559295D02*
X1614220Y1560545D01*
Y1563044D01*
X1612970Y1564294D01*
X1607972D01*
X1606723Y1563044D01*
Y1560545D01*
X1607972Y1559295D01*
X1609222D01*
X1610471Y1560545D01*
Y1564294D01*
X1607472Y1660299D02*
X1606223Y1659049D01*
Y1656550D01*
X1607472Y1655300D01*
X1612471D01*
X1613720Y1656550D01*
Y1659049D01*
X1612471Y1660299D01*
X1607472Y1662798D02*
X1606223Y1664047D01*
Y1666547D01*
X1607472Y1667796D01*
X1608722D01*
X1609971Y1666547D01*
Y1665297D01*
Y1666547D01*
X1611221Y1667796D01*
X1612471D01*
X1613720Y1666547D01*
Y1664047D01*
X1612471Y1662798D01*
X1606223Y1670295D02*
Y1675294D01*
X1607472D01*
X1612471Y1670295D01*
X1613720D01*
X1198718Y994048D02*
X1197469Y995298D01*
X1194970D01*
X1193720Y994048D01*
Y989050D01*
X1194970Y987800D01*
X1197469D01*
X1198718Y989050D01*
X1201218Y987800D02*
X1203717D01*
X1202467D01*
Y995298D01*
X1201218Y994048D01*
X1207466Y987800D02*
X1209965D01*
X1208715D01*
Y995298D01*
X1207466Y994048D01*
X1898219Y950548D02*
X1896969Y951798D01*
X1894470D01*
X1893220Y950548D01*
Y945550D01*
X1894470Y944300D01*
X1896969D01*
X1898219Y945550D01*
X1900718Y944300D02*
X1903217D01*
X1901967D01*
Y951798D01*
X1900718Y950548D01*
X1911964Y944300D02*
X1906966D01*
X1911964Y949299D01*
Y950548D01*
X1910715Y951798D01*
X1908215D01*
X1906966Y950548D01*
X1683719Y946548D02*
X1682469Y947798D01*
X1679970D01*
X1678720Y946548D01*
Y941550D01*
X1679970Y940300D01*
X1682469D01*
X1683719Y941550D01*
X1691216Y940300D02*
X1686218D01*
X1691216Y945299D01*
Y946548D01*
X1689966Y947798D01*
X1687467D01*
X1686218Y946548D01*
X1693715Y947798D02*
X1698714D01*
Y946548D01*
X1693715Y941550D01*
Y940300D01*
X1912220Y1613300D02*
Y1620798D01*
X1915969D01*
X1917218Y1619548D01*
Y1617049D01*
X1915969Y1615799D01*
X1912220D01*
X1914719D02*
X1917218Y1613300D01*
X1919718Y1614550D02*
X1920967Y1613300D01*
X1923466D01*
X1924716Y1614550D01*
Y1619548D01*
X1923466Y1620798D01*
X1920967D01*
X1919718Y1619548D01*
Y1618299D01*
X1920967Y1617049D01*
X1924716D01*
X1932214Y1620798D02*
X1927215D01*
Y1617049D01*
X1929715Y1618299D01*
X1930964D01*
X1932214Y1617049D01*
Y1614550D01*
X1930964Y1613300D01*
X1928465D01*
X1927215Y1614550D01*
X1882972Y1638299D02*
X1881723Y1637049D01*
Y1634550D01*
X1882972Y1633300D01*
X1887970D01*
X1889220Y1634550D01*
Y1637049D01*
X1887970Y1638299D01*
X1881723Y1645796D02*
X1882972Y1643297D01*
X1885471Y1640798D01*
X1887970D01*
X1889220Y1642047D01*
Y1644547D01*
X1887970Y1645796D01*
X1886721D01*
X1885471Y1644547D01*
Y1640798D01*
X1889220Y1648295D02*
Y1650795D01*
Y1649545D01*
X1881723D01*
X1882972Y1648295D01*
X1976220Y1733300D02*
X1971222D01*
Y1735799D01*
X1972055Y1736632D01*
X1973721D01*
X1974554Y1735799D01*
Y1733300D01*
Y1734966D02*
X1976220Y1736632D01*
Y1738299D02*
Y1739965D01*
Y1739132D01*
X1971222D01*
X1972055Y1738299D01*
Y1742464D02*
X1971222Y1743297D01*
Y1744963D01*
X1972055Y1745796D01*
X1975387D01*
X1976220Y1744963D01*
Y1743297D01*
X1975387Y1742464D01*
X1972055D01*
X1976220Y1747462D02*
Y1749128D01*
Y1748295D01*
X1971222D01*
X1972055Y1747462D01*
X1963720Y1592800D02*
X1956223D01*
Y1596549D01*
X1957472Y1597799D01*
X1959971D01*
X1961221Y1596549D01*
Y1592800D01*
Y1595299D02*
X1963720Y1597799D01*
Y1600298D02*
Y1602797D01*
Y1601547D01*
X1956223D01*
X1957472Y1600298D01*
Y1606546D02*
X1956223Y1607795D01*
Y1610295D01*
X1957472Y1611544D01*
X1962471D01*
X1963720Y1610295D01*
Y1607795D01*
X1962471Y1606546D01*
X1957472D01*
X1963720Y1619042D02*
Y1614043D01*
X1958722Y1619042D01*
X1957472D01*
X1956223Y1617792D01*
Y1615293D01*
X1957472Y1614043D01*
X1435219Y1629550D02*
Y1634548D01*
X1433969Y1635798D01*
X1431470D01*
X1430220Y1634548D01*
Y1629550D01*
X1431470Y1628300D01*
X1433969D01*
X1432719Y1630799D02*
X1435219Y1628300D01*
X1433969D02*
X1435219Y1629550D01*
X1442716Y1635798D02*
X1437718D01*
Y1632049D01*
X1440217Y1633299D01*
X1441467D01*
X1442716Y1632049D01*
Y1629550D01*
X1441467Y1628300D01*
X1438967D01*
X1437718Y1629550D01*
X1692220Y1638300D02*
Y1645798D01*
X1695969D01*
X1697218Y1644548D01*
Y1642049D01*
X1695969Y1640799D01*
X1692220D01*
X1694719D02*
X1697218Y1638300D01*
X1699718Y1644548D02*
X1700967Y1645798D01*
X1703466D01*
X1704716Y1644548D01*
Y1643299D01*
X1703466Y1642049D01*
X1704716Y1640799D01*
Y1639550D01*
X1703466Y1638300D01*
X1700967D01*
X1699718Y1639550D01*
Y1640799D01*
X1700967Y1642049D01*
X1699718Y1643299D01*
Y1644548D01*
X1700967Y1642049D02*
X1703466D01*
X1707215Y1644548D02*
X1708465Y1645798D01*
X1710964D01*
X1712214Y1644548D01*
Y1639550D01*
X1710964Y1638300D01*
X1708465D01*
X1707215Y1639550D01*
Y1644548D01*
X1426220Y1642300D02*
Y1649798D01*
X1429969D01*
X1431219Y1648548D01*
Y1646049D01*
X1429969Y1644799D01*
X1426220D01*
X1428719D02*
X1431219Y1642300D01*
X1433718Y1648548D02*
X1434967Y1649798D01*
X1437466D01*
X1438716Y1648548D01*
Y1647299D01*
X1437466Y1646049D01*
X1438716Y1644799D01*
Y1643550D01*
X1437466Y1642300D01*
X1434967D01*
X1433718Y1643550D01*
Y1644799D01*
X1434967Y1646049D01*
X1433718Y1647299D01*
Y1648548D01*
X1434967Y1646049D02*
X1437466D01*
X1441215Y1642300D02*
X1443714D01*
X1442465D01*
Y1649798D01*
X1441215Y1648548D01*
X1693220Y1594300D02*
Y1601798D01*
X1696969D01*
X1698219Y1600548D01*
Y1598049D01*
X1696969Y1596799D01*
X1693220D01*
X1695719D02*
X1698219Y1594300D01*
X1700718Y1600548D02*
X1701967Y1601798D01*
X1704467D01*
X1705716Y1600548D01*
Y1599299D01*
X1704467Y1598049D01*
X1705716Y1596799D01*
Y1595550D01*
X1704467Y1594300D01*
X1701967D01*
X1700718Y1595550D01*
Y1596799D01*
X1701967Y1598049D01*
X1700718Y1599299D01*
Y1600548D01*
X1701967Y1598049D02*
X1704467D01*
X1713214Y1594300D02*
X1708215D01*
X1713214Y1599299D01*
Y1600548D01*
X1711964Y1601798D01*
X1709465D01*
X1708215Y1600548D01*
X1425220Y1598300D02*
Y1605798D01*
X1428969D01*
X1430219Y1604548D01*
Y1602049D01*
X1428969Y1600799D01*
X1425220D01*
X1427719D02*
X1430219Y1598300D01*
X1432718Y1599550D02*
X1433967Y1598300D01*
X1436467D01*
X1437716Y1599550D01*
Y1604548D01*
X1436467Y1605798D01*
X1433967D01*
X1432718Y1604548D01*
Y1603299D01*
X1433967Y1602049D01*
X1437716D01*
X1445214Y1598300D02*
X1440215D01*
X1445214Y1603299D01*
Y1604548D01*
X1443964Y1605798D01*
X1441465D01*
X1440215Y1604548D01*
X1770220Y1646300D02*
Y1653798D01*
X1773969D01*
X1775219Y1652548D01*
Y1650049D01*
X1773969Y1648799D01*
X1770220D01*
X1772719D02*
X1775219Y1646300D01*
X1777718Y1647550D02*
X1778967Y1646300D01*
X1781467D01*
X1782716Y1647550D01*
Y1652548D01*
X1781467Y1653798D01*
X1778967D01*
X1777718Y1652548D01*
Y1651299D01*
X1778967Y1650049D01*
X1782716D01*
X1788964Y1646300D02*
Y1653798D01*
X1785215Y1650049D01*
X1790214D01*
D53*
X1387189Y1256814D02*
Y1276808D01*
X1397185D01*
X1400518Y1273475D01*
Y1266811D01*
X1397185Y1263479D01*
X1387189D01*
X1393853D02*
X1400518Y1256814D01*
X1420511D02*
X1407182D01*
X1420511Y1270143D01*
Y1273475D01*
X1417179Y1276808D01*
X1410514D01*
X1407182Y1273475D01*
X1440505D02*
X1437173Y1276808D01*
X1430508D01*
X1427176Y1273475D01*
Y1260146D01*
X1430508Y1256814D01*
X1437173D01*
X1440505Y1260146D01*
X1460498Y1256814D02*
X1447169D01*
X1460498Y1270143D01*
Y1273475D01*
X1457166Y1276808D01*
X1450502D01*
X1447169Y1273475D01*
X1487156Y1256814D02*
Y1276808D01*
X1493821Y1270143D01*
X1500485Y1276808D01*
Y1256814D01*
X1507150Y1276808D02*
X1513814D01*
X1510482D01*
Y1256814D01*
X1507150D01*
X1513814D01*
X1523811D02*
Y1276808D01*
X1537140Y1256814D01*
Y1276808D01*
X1543805D02*
X1550469D01*
X1547137D01*
Y1256814D01*
X1543805D01*
X1550469D01*
X1526220Y1799296D02*
Y1785300D01*
X1533218D01*
X1535550Y1787633D01*
Y1789965D01*
X1533218Y1792298D01*
X1526220D01*
X1533218D01*
X1535550Y1794630D01*
Y1796963D01*
X1533218Y1799296D01*
X1526220D01*
X1547213Y1785300D02*
X1542548D01*
X1540216Y1787633D01*
Y1792298D01*
X1542548Y1794630D01*
X1547213D01*
X1549546Y1792298D01*
Y1789965D01*
X1540216D01*
X1563541Y1799296D02*
Y1785300D01*
X1556544D01*
X1554211Y1787633D01*
Y1792298D01*
X1556544Y1794630D01*
X1563541D01*
X1744550Y1788296D02*
X1735220D01*
Y1774300D01*
X1744550D01*
X1735220Y1781298D02*
X1739885D01*
X1749216Y1783631D02*
X1758546Y1774300D01*
X1753881Y1778965D01*
X1758546Y1783631D01*
X1749216Y1774300D01*
X1765544Y1785963D02*
Y1783631D01*
X1763211D01*
X1767876D01*
X1765544D01*
Y1776633D01*
X1767876Y1774300D01*
X1774874Y1783631D02*
Y1774300D01*
Y1778965D01*
X1777207Y1781298D01*
X1779539Y1783631D01*
X1781872D01*
X1788869D02*
Y1776633D01*
X1791202Y1774300D01*
X1798200D01*
Y1783631D01*
X1812195Y1788296D02*
Y1774300D01*
X1805197D01*
X1802865Y1776633D01*
Y1781298D01*
X1805197Y1783631D01*
X1812195D01*
X1823858Y1774300D02*
X1819193D01*
X1816860Y1776633D01*
Y1781298D01*
X1819193Y1783631D01*
X1823858D01*
X1826191Y1781298D01*
Y1778965D01*
X1816860D01*
X1830856Y1783631D02*
Y1774300D01*
Y1778965D01*
X1833188Y1781298D01*
X1835521Y1783631D01*
X1837854D01*
X1938220Y1803302D02*
X1928890D01*
X2039220Y1800302D02*
X2029890D01*
X2034555Y1795637D02*
Y1804968D01*
X2014220Y1800302D02*
X2004890D01*
X2009555Y1795637D02*
Y1804968D01*
X1910220Y1803302D02*
X1900890D01*
X1962220D02*
X1952890D01*
X1991220Y1800302D02*
X1981890D01*
X1986555Y1795637D02*
Y1804968D01*
D54*
X1911347Y1311300D02*
G03*
X1911347Y1311300I-63127J0D01*
G01*
X1508634Y1704714D02*
G03*
X1508634Y1704714I-1414J0D01*
G01*
X1772634Y1690714D02*
G03*
X1772634Y1690714I-1414J0D01*
G01*
X1127970Y739041D02*
X1147964D01*
X1137967D01*
Y709050D01*
X1162959D02*
X1172955D01*
X1177954Y714049D01*
Y724045D01*
X1172955Y729044D01*
X1162959D01*
X1157960Y724045D01*
Y714049D01*
X1162959Y709050D01*
X1187951Y699053D02*
Y729044D01*
X1202946D01*
X1207944Y724045D01*
Y714049D01*
X1202946Y709050D01*
X1187951D01*
X1262926Y739041D02*
X1252930D01*
X1247931Y734042D01*
Y714049D01*
X1252930Y709050D01*
X1262926D01*
X1267925Y714049D01*
Y734042D01*
X1262926Y739041D01*
X1277922Y729044D02*
X1287918Y709050D01*
X1297915Y729044D01*
X1322907Y709050D02*
X1312910D01*
X1307912Y714049D01*
Y724045D01*
X1312910Y729044D01*
X1322907D01*
X1327905Y724045D01*
Y719047D01*
X1307912D01*
X1337902Y729044D02*
Y709050D01*
Y719047D01*
X1342901Y724045D01*
X1347899Y729044D01*
X1352897D01*
X1367892Y709050D02*
X1377889D01*
X1372891D01*
Y739041D01*
X1367892D01*
X1397883Y729044D02*
X1407879D01*
X1412878Y724045D01*
Y709050D01*
X1397883D01*
X1392884Y714049D01*
X1397883Y719047D01*
X1412878D01*
X1422875Y729044D02*
Y714049D01*
X1427873Y709050D01*
X1442868D01*
Y704052D01*
X1437870Y699053D01*
X1432871D01*
X1442868Y709050D02*
Y729044D01*
X1456220Y1800299D02*
X1462885D01*
X1476214Y1795300D02*
Y1805297D01*
X1481212D01*
X1482878Y1803631D01*
Y1800299D01*
X1481212Y1798632D01*
X1476214D01*
X1479546D02*
X1482878Y1795300D01*
X1486210Y1805297D02*
Y1795300D01*
X1492875D01*
X1506204Y1800299D02*
X1512868D01*
X1509536Y1803631D02*
Y1796966D01*
X1586178Y1795300D02*
Y1805297D01*
X1592843Y1795300D01*
Y1805297D01*
X1596175D02*
X1602840D01*
X1599507D01*
Y1795300D01*
X1612836Y1803631D02*
X1611170Y1805297D01*
X1607838D01*
X1606172Y1803631D01*
Y1796966D01*
X1607838Y1795300D01*
X1611170D01*
X1612836Y1796966D01*
X1681220Y1800299D02*
X1687885D01*
X1701214Y1795300D02*
Y1805297D01*
X1706212D01*
X1707878Y1803631D01*
Y1800299D01*
X1706212Y1798632D01*
X1701214D01*
X1704546D02*
X1707878Y1795300D01*
X1711210Y1805297D02*
Y1795300D01*
X1717875D01*
X1731204Y1800299D02*
X1737868D01*
X1734536Y1803631D02*
Y1796966D01*
X1821175Y1795300D02*
Y1805297D01*
X1827840Y1795300D01*
Y1805297D01*
X1831172D02*
X1837836D01*
X1834504D01*
Y1795300D01*
X1847833Y1803631D02*
X1846167Y1805297D01*
X1842835D01*
X1841169Y1803631D01*
Y1796966D01*
X1842835Y1795300D01*
X1846167D01*
X1847833Y1796966D01*
X2003725Y1467800D02*
Y1477797D01*
X2006224D01*
X2016221Y1467800D01*
X2018720D01*
Y1477797D01*
X2001225Y1605300D02*
X2003724D01*
X2008723Y1610299D01*
X2003724Y1615297D01*
X2001225D01*
X2008723Y1610299D02*
X2016220D01*
X2030225Y1774300D02*
X2045220Y1784297D01*
X2030225D02*
X2045220Y1774300D01*
D55*
X949335Y602598D02*
G03*
X1025535Y526398I76200J0D01*
G01*
Y831198D02*
G03*
X949335Y754998I0J-76200D01*
G01*
X2473335D02*
G03*
X2397135Y831198I-76200J0D01*
G01*
Y526398D02*
G03*
X2473335Y602598I0J76200D01*
G01*
X949335D02*
G03*
X1025535Y526398I76200J0D01*
G01*
Y831198D02*
G03*
X949335Y754998I0J-76200D01*
G01*
X2473335D02*
G03*
X2397135Y831198I-76200J0D01*
G01*
Y526398D02*
G03*
X2473335Y602598I0J76200D01*
G01*
X1673235Y526398D02*
Y678798D01*
X949334D02*
X2473335D01*
X949334Y602598D02*
Y754998D01*
X1025535Y831198D02*
X2397135D01*
X2473335Y602598D02*
Y754998D01*
X1025535Y526398D02*
X2397135D01*
X1673235Y602598D02*
X2473335D01*
X2079635Y526398D02*
Y602598D01*
X949334Y754998D02*
X2473335D01*
X1539884D02*
Y831198D01*
X2028835Y678798D02*
Y754998D01*
X2352684Y678798D02*
Y754998D01*
X1673235Y526398D02*
Y678798D01*
X949334D02*
X2473335D01*
X949334Y602598D02*
Y754998D01*
X1025535Y831198D02*
X2397135D01*
X2473335Y602598D02*
Y754998D01*
X1025535Y526398D02*
X2397135D01*
X1673235Y602598D02*
X2473335D01*
X2079635Y526398D02*
Y602598D01*
X949334Y754998D02*
X2473335D01*
X1539884D02*
Y831198D01*
X2028835Y678798D02*
Y754998D01*
X2352684Y678798D02*
Y754998D01*
D56*
X2106220Y716795D02*
Y692800D01*
Y716795D02*
X2116504D01*
X2119931Y715652D01*
X2121074Y714510D01*
X2122217Y712225D01*
Y709939D01*
X2121074Y707654D01*
X2119931Y706512D01*
X2116504Y705369D01*
X2106220D01*
X2114218D02*
X2122217Y692800D01*
X2128730Y711082D02*
Y712225D01*
X2129872Y714510D01*
X2131015Y715652D01*
X2133300Y716795D01*
X2137870D01*
X2140156Y715652D01*
X2141298Y714510D01*
X2142441Y712225D01*
Y709939D01*
X2141298Y707654D01*
X2139013Y704226D01*
X2127587Y692800D01*
X2143584D01*
X2166093Y711082D02*
X2164950Y713367D01*
X2162665Y715652D01*
X2160380Y716795D01*
X2155809D01*
X2153524Y715652D01*
X2151239Y713367D01*
X2150096Y711082D01*
X2148954Y707654D01*
Y701941D01*
X2150096Y698513D01*
X2151239Y696228D01*
X2153524Y693943D01*
X2155809Y692800D01*
X2160380D01*
X2162665Y693943D01*
X2164950Y696228D01*
X2166093Y698513D01*
X2173977Y711082D02*
Y712225D01*
X2175120Y714510D01*
X2176262Y715652D01*
X2178548Y716795D01*
X2183118D01*
X2185403Y715652D01*
X2186546Y714510D01*
X2187688Y712225D01*
Y709939D01*
X2186546Y707654D01*
X2184261Y704226D01*
X2172834Y692800D01*
X2188831D01*
X2213054Y716795D02*
Y692800D01*
Y716795D02*
X2222195Y692800D01*
X2231336Y716795D02*
X2222195Y692800D01*
X2231336Y716795D02*
Y692800D01*
X2238192Y716795D02*
Y692800D01*
X2243219Y716795D02*
Y692800D01*
Y716795D02*
X2259216Y692800D01*
Y716795D02*
Y692800D01*
X2265843Y716795D02*
Y692800D01*
X1826315Y793694D02*
X1839169D01*
X1843454Y795122D01*
X1844882Y796550D01*
X1846310Y799407D01*
Y803691D01*
X1844882Y806548D01*
X1843454Y807976D01*
X1839169Y809405D01*
X1826315D01*
Y779411D01*
X1853023Y809405D02*
X1860164Y779411D01*
X1867306Y809405D02*
X1860164Y779411D01*
X1867306Y809405D02*
X1874447Y779411D01*
X1881588Y809405D02*
X1874447Y779411D01*
X1887587Y809405D02*
Y779411D01*
Y809405D02*
X1900441D01*
X1904726Y807976D01*
X1906155Y806548D01*
X1907583Y803691D01*
Y800835D01*
X1906155Y797979D01*
X1904726Y796550D01*
X1900441Y795122D01*
X1887587D02*
X1900441D01*
X1904726Y793694D01*
X1906155Y792265D01*
X1907583Y789409D01*
Y785124D01*
X1906155Y782268D01*
X1904726Y780839D01*
X1900441Y779411D01*
X1887587D01*
X1917152Y780839D02*
X1915724Y779411D01*
X1914296Y780839D01*
X1915724Y782268D01*
X1917152Y780839D01*
Y777983D01*
X1915724Y775126D01*
X1914296Y773698D01*
X1947289Y809405D02*
Y779411D01*
Y809405D02*
X1960143D01*
X1964428Y807976D01*
X1965856Y806548D01*
X1967284Y803691D01*
Y800835D01*
X1965856Y797979D01*
X1964428Y796550D01*
X1960143Y795122D01*
X1947289D01*
X1957287D02*
X1967284Y779411D01*
X1975426Y802263D02*
Y803691D01*
X1976854Y806548D01*
X1978282Y807976D01*
X1981138Y809405D01*
X1986852D01*
X1989708Y807976D01*
X1991136Y806548D01*
X1992565Y803691D01*
Y800835D01*
X1991136Y797979D01*
X1988280Y793694D01*
X1973997Y779411D01*
X1993993D01*
X2022130Y802263D02*
X2020701Y805120D01*
X2017845Y807976D01*
X2014988Y809405D01*
X2009275D01*
X2006419Y807976D01*
X2003562Y805120D01*
X2002134Y802263D01*
X2000706Y797979D01*
Y790837D01*
X2002134Y786552D01*
X2003562Y783696D01*
X2006419Y780839D01*
X2009275Y779411D01*
X2014988D01*
X2017845Y780839D01*
X2020701Y783696D01*
X2022130Y786552D01*
X2031985Y802263D02*
Y803691D01*
X2033413Y806548D01*
X2034841Y807976D01*
X2037698Y809405D01*
X2043411D01*
X2046267Y807976D01*
X2047696Y806548D01*
X2049124Y803691D01*
Y800835D01*
X2047696Y797979D01*
X2044839Y793694D01*
X2030556Y779411D01*
X2050552D01*
X2080831Y809405D02*
Y779411D01*
Y809405D02*
X2092258Y779411D01*
X2103684Y809405D02*
X2092258Y779411D01*
X2103684Y809405D02*
Y779411D01*
X2112253Y809405D02*
Y779411D01*
X2118538Y809405D02*
Y779411D01*
Y809405D02*
X2138533Y779411D01*
Y809405D02*
Y779411D01*
X2146817Y809405D02*
Y779411D01*
X2420039Y695011D02*
X2410365Y720406D01*
X2400691Y695011D01*
X2404318Y703476D02*
X2416411D01*
X2174581Y564493D02*
X2170953Y563284D01*
X2169744Y560865D01*
Y558447D01*
X2170953Y556028D01*
X2173372Y554819D01*
X2178209Y553609D01*
X2181837Y552400D01*
X2184255Y549982D01*
X2185464Y547563D01*
Y543935D01*
X2184255Y541517D01*
X2183046Y540308D01*
X2179418Y539098D01*
X2174581D01*
X2170953Y540308D01*
X2169744Y541517D01*
X2168535Y543935D01*
Y547563D01*
X2169744Y549982D01*
X2172162Y552400D01*
X2175790Y553609D01*
X2180627Y554819D01*
X2183046Y556028D01*
X2184255Y558447D01*
Y560865D01*
X2183046Y563284D01*
X2179418Y564493D01*
X2174581D01*
X2191148Y535470D02*
X2208078Y564493D01*
X2210980Y558447D02*
Y559656D01*
X2212189Y562074D01*
X2213398Y563284D01*
X2215817Y564493D01*
X2220654D01*
X2223072Y563284D01*
X2224282Y562074D01*
X2225491Y559656D01*
Y557237D01*
X2224282Y554819D01*
X2221863Y551191D01*
X2209771Y539098D01*
X2226700D01*
X2233593Y558447D02*
Y559656D01*
X2234802Y562074D01*
X2236012Y563284D01*
X2238430Y564493D01*
X2243267D01*
X2245686Y563284D01*
X2246895Y562074D01*
X2248104Y559656D01*
Y557237D01*
X2246895Y554819D01*
X2244476Y551191D01*
X2232384Y539098D01*
X2249314D01*
X2254997Y535470D02*
X2271927Y564493D01*
X2274829Y558447D02*
Y559656D01*
X2276038Y562074D01*
X2277247Y563284D01*
X2279666Y564493D01*
X2284503D01*
X2286922Y563284D01*
X2288131Y562074D01*
X2289340Y559656D01*
Y557237D01*
X2288131Y554819D01*
X2285712Y551191D01*
X2273620Y539098D01*
X2290549D01*
X2303488Y564493D02*
X2299861Y563284D01*
X2297442Y559656D01*
X2296233Y553609D01*
Y549982D01*
X2297442Y543935D01*
X2299861Y540308D01*
X2303488Y539098D01*
X2305907D01*
X2309535Y540308D01*
X2311953Y543935D01*
X2313163Y549982D01*
Y553609D01*
X2311953Y559656D01*
X2309535Y563284D01*
X2305907Y564493D01*
X2303488D01*
X2318846Y559656D02*
X2321265Y560865D01*
X2324892Y564493D01*
Y539098D01*
X2351980Y564493D02*
X2339887D01*
X2338678Y553609D01*
X2339887Y554819D01*
X2343515Y556028D01*
X2347143D01*
X2350771Y554819D01*
X2353189Y552400D01*
X2354398Y548772D01*
Y546354D01*
X2353189Y542726D01*
X2350771Y540308D01*
X2347143Y539098D01*
X2343515D01*
X2339887Y540308D01*
X2338678Y541517D01*
X2337469Y543935D01*
X968385Y729593D02*
Y704198D01*
X982896D01*
X1005025D02*
X995351Y729593D01*
X985677Y704198D01*
X989305Y712663D02*
X1001397D01*
X1010951Y729593D02*
X1020625Y717500D01*
Y704198D01*
X1030299Y729593D02*
X1020625Y717500D01*
X1049284Y729593D02*
X1033564D01*
Y704198D01*
X1049284D01*
X1033564Y717500D02*
X1043238D01*
X1053517Y729593D02*
Y704198D01*
Y729593D02*
X1064400D01*
X1068028Y728383D01*
X1069237Y727174D01*
X1070447Y724756D01*
Y722337D01*
X1069237Y719919D01*
X1068028Y718709D01*
X1064400Y717500D01*
X1053517D01*
X1061982D02*
X1070447Y704198D01*
X1077339Y721128D02*
X1076130Y719919D01*
X1077339Y718709D01*
X1078549Y719919D01*
X1077339Y721128D01*
Y706617D02*
X1076130Y705407D01*
X1077339Y704198D01*
X1078549Y705407D01*
X1077339Y706617D01*
D57*
X2090264Y744326D02*
X2089502Y745849D01*
X2087979Y747373D01*
X2086455Y748134D01*
X2083408D01*
X2081885Y747373D01*
X2080361Y745849D01*
X2079600Y744326D01*
X2078838Y742040D01*
Y738232D01*
X2079600Y735947D01*
X2080361Y734423D01*
X2081885Y732900D01*
X2083408Y732138D01*
X2086455D01*
X2087979Y732900D01*
X2089502Y734423D01*
X2090264Y735947D01*
X2094758Y748134D02*
Y736709D01*
X2095520Y734423D01*
X2097043Y732900D01*
X2099328Y732138D01*
X2100852D01*
X2103137Y732900D01*
X2104660Y734423D01*
X2105422Y736709D01*
Y748134D01*
X2120504Y745849D02*
X2118981Y747373D01*
X2116695Y748134D01*
X2113649D01*
X2111363Y747373D01*
X2109840Y745849D01*
Y744326D01*
X2110602Y742802D01*
X2111363Y742040D01*
X2112887Y741279D01*
X2117457Y739755D01*
X2118981Y738994D01*
X2119742Y738232D01*
X2120504Y736709D01*
Y734423D01*
X2118981Y732900D01*
X2116695Y732138D01*
X2113649D01*
X2111363Y732900D01*
X2109840Y734423D01*
X2129416Y748134D02*
Y732138D01*
X2124084Y748134D02*
X2134748D01*
X2149221Y739755D02*
X2156076D01*
X2158361Y740517D01*
X2159123Y741279D01*
X2159885Y742802D01*
Y745087D01*
X2159123Y746611D01*
X2158361Y747373D01*
X2156076Y748134D01*
X2149221D01*
Y732138D01*
X2175652D02*
X2169558Y748134D01*
X2163465Y732138D01*
X2165750Y737470D02*
X2173367D01*
X2179384Y748134D02*
Y732138D01*
Y748134D02*
X2186240D01*
X2188525Y747373D01*
X2189287Y746611D01*
X2190049Y745087D01*
Y743564D01*
X2189287Y742040D01*
X2188525Y741279D01*
X2186240Y740517D01*
X2179384D01*
X2184716D02*
X2190049Y732138D01*
X2198961Y748134D02*
Y732138D01*
X2193629Y748134D02*
X2204293D01*
X2218765D02*
Y732138D01*
Y748134D02*
X2229429Y732138D01*
Y748134D02*
Y732138D01*
X2233847Y748134D02*
Y736709D01*
X2234609Y734423D01*
X2236132Y732900D01*
X2238418Y732138D01*
X2239941D01*
X2242226Y732900D01*
X2243750Y734423D01*
X2244511Y736709D01*
Y748134D01*
X2248929D02*
Y732138D01*
Y748134D02*
X2255023Y732138D01*
X2261117Y748134D02*
X2255023Y732138D01*
X2261117Y748134D02*
Y732138D01*
X2265687Y748134D02*
Y732138D01*
Y748134D02*
X2272542D01*
X2274828Y747373D01*
X2275589Y746611D01*
X2276351Y745087D01*
Y743564D01*
X2275589Y742040D01*
X2274828Y741279D01*
X2272542Y740517D01*
X2265687D02*
X2272542D01*
X2274828Y739755D01*
X2275589Y738994D01*
X2276351Y737470D01*
Y735185D01*
X2275589Y733662D01*
X2274828Y732900D01*
X2272542Y732138D01*
X2265687D01*
X2289833Y748134D02*
X2279931D01*
Y732138D01*
X2289833D01*
X2279931Y740517D02*
X2286025D01*
X2292499Y748134D02*
Y732138D01*
Y748134D02*
X2299355D01*
X2301640Y747373D01*
X2302402Y746611D01*
X2303163Y745087D01*
Y743564D01*
X2302402Y742040D01*
X2301640Y741279D01*
X2299355Y740517D01*
X2292499D01*
X2297831D02*
X2303163Y732138D01*
X2390635Y748134D02*
Y732138D01*
Y748134D02*
X2397491D01*
X2399776Y747373D01*
X2400538Y746611D01*
X2401299Y745087D01*
Y743564D01*
X2400538Y742040D01*
X2399776Y741279D01*
X2397491Y740517D01*
X2390635D01*
X2395967D02*
X2401299Y732138D01*
X2414782Y748134D02*
X2404879D01*
Y732138D01*
X2414782D01*
X2404879Y740517D02*
X2410973D01*
X2417448Y748134D02*
X2423541Y732138D01*
X2429635Y748134D02*
X2423541Y732138D01*
X2257236Y594464D02*
Y578468D01*
Y594464D02*
X2262567D01*
X2264853Y593703D01*
X2266376Y592179D01*
X2267138Y590656D01*
X2267899Y588371D01*
Y584562D01*
X2267138Y582277D01*
X2266376Y580753D01*
X2264853Y579230D01*
X2262567Y578468D01*
X2257236D01*
X2283667D02*
X2277573Y594464D01*
X2271480Y578468D01*
X2273765Y583800D02*
X2281382D01*
X2292731Y594464D02*
Y578468D01*
X2287399Y594464D02*
X2298063D01*
X2309870D02*
X2299968D01*
Y578468D01*
X2309870D01*
X2299968Y586847D02*
X2306061D01*
D68*
X1571720Y1466550D02*
G03*
X1571720Y1466550I-3000J0D01*
G01*
D69*
X1251220Y1394300D02*
X1255452D01*
X1253336D01*
Y1406996D01*
X1251220Y1404880D01*
X1259684Y1317996D02*
X1251220D01*
Y1311648D01*
X1255452Y1313764D01*
X1257568D01*
X1259684Y1311648D01*
Y1307416D01*
X1257568Y1305300D01*
X1253336D01*
X1251220Y1307416D01*
D70*
X1202220Y1813764D02*
Y1805300D01*
X1193756Y1813764D01*
X1191640D01*
X1189524Y1811648D01*
Y1807416D01*
X1191640Y1805300D01*
Y1817996D02*
X1189524Y1820112D01*
Y1824344D01*
X1191640Y1826460D01*
X1200104D01*
X1202220Y1824344D01*
Y1820112D01*
X1200104Y1817996D01*
X1191640D01*
X1300220Y1783300D02*
Y1787532D01*
Y1785416D01*
X1287524D01*
X1289640Y1783300D01*
X1298104Y1793880D02*
X1300220Y1795996D01*
Y1800228D01*
X1298104Y1802344D01*
X1289640D01*
X1287524Y1800228D01*
Y1795996D01*
X1289640Y1793880D01*
X1291756D01*
X1293872Y1795996D01*
Y1802344D01*
X1301220Y1458300D02*
Y1462532D01*
Y1460416D01*
X1288524D01*
X1290640Y1458300D01*
X1208220Y1460764D02*
Y1452300D01*
X1199756Y1460764D01*
X1197640D01*
X1195524Y1458648D01*
Y1454416D01*
X1197640Y1452300D01*
D71*
X1374227Y1690300D02*
X1394220D01*
Y1700297D01*
X1390888Y1703629D01*
X1387556D01*
X1384223Y1700297D01*
Y1690300D01*
Y1700297D01*
X1380891Y1703629D01*
X1377559D01*
X1374227Y1700297D01*
Y1690300D01*
X1394220Y1713626D02*
Y1720291D01*
X1390888Y1723623D01*
X1384223D01*
X1380891Y1720291D01*
Y1713626D01*
X1384223Y1710294D01*
X1390888D01*
X1394220Y1713626D01*
Y1733620D02*
Y1740284D01*
X1390888Y1743616D01*
X1384223D01*
X1380891Y1740284D01*
Y1733620D01*
X1384223Y1730287D01*
X1390888D01*
X1394220Y1733620D01*
X1377559Y1753613D02*
X1380891D01*
Y1750281D01*
Y1756945D01*
Y1753613D01*
X1390888D01*
X1394220Y1756945D01*
X1395220Y1798300D02*
X1375227D01*
Y1808297D01*
X1378559Y1811629D01*
X1385223D01*
X1388556Y1808297D01*
Y1798300D01*
Y1804965D02*
X1395220Y1811629D01*
Y1828291D02*
Y1821626D01*
X1391888Y1818294D01*
X1385223D01*
X1381891Y1821626D01*
Y1828291D01*
X1385223Y1831623D01*
X1388556D01*
Y1818294D01*
X1395220Y1838287D02*
Y1848284D01*
X1391888Y1851616D01*
X1388556Y1848284D01*
Y1841620D01*
X1385223Y1838287D01*
X1381891Y1841620D01*
Y1851616D01*
X1395220Y1868278D02*
Y1861613D01*
X1391888Y1858281D01*
X1385223D01*
X1381891Y1861613D01*
Y1868278D01*
X1385223Y1871610D01*
X1388556D01*
Y1858281D01*
X1378559Y1881607D02*
X1381891D01*
Y1878274D01*
Y1884939D01*
Y1881607D01*
X1391888D01*
X1395220Y1884939D01*
D72*
X1881986Y1753550D02*
D03*
D73*
X1419461Y1864547D02*
D03*
X1659962Y1863796D02*
D03*
M02*
