%FSLAX44Y44*%
%MOMM*%
G71*
G01*
G75*
G04 Layer_Color=128*
%ADD10C,0.2000*%
%ADD11R,1.5000X1.5000*%
%ADD12R,1.3500X0.4000*%
%ADD13R,1.2000X2.0000*%
%ADD14R,2.0500X0.2500*%
%ADD15R,0.2500X2.0500*%
%ADD16R,1.7500X2.2500*%
%ADD17R,1.4000X2.1000*%
%ADD18R,0.7000X0.8000*%
%ADD19C,0.1000*%
%ADD20R,1.5000X0.5000*%
%ADD21R,0.6000X1.8000*%
%ADD22R,3.3000X2.7000*%
%ADD23R,1.0000X2.7000*%
%ADD24R,2.5000X0.7000*%
%ADD25R,1.4500X0.5500*%
%ADD26R,1.7000X2.5000*%
%ADD27R,1.9000X1.5000*%
%ADD28R,1.1000X1.1000*%
%ADD29R,2.5000X2.5000*%
%ADD30R,0.2500X1.1500*%
%ADD31R,1.1500X0.2500*%
%ADD32R,1.8500X1.2500*%
%ADD33R,1.7500X6.0000*%
%ADD34R,1.2000X1.1000*%
%ADD35R,1.5000X1.9000*%
%ADD36R,1.6000X1.5000*%
%ADD37R,0.8500X3.3500*%
%ADD38R,1.6000X3.2000*%
%ADD39R,1.4000X1.9000*%
%ADD40R,1.9000X1.4000*%
%ADD41R,2.9000X0.8000*%
%ADD42R,1.1000X1.1000*%
%ADD43R,1.1000X1.2000*%
%ADD44R,1.2500X1.8500*%
%ADD45R,0.5000X1.5000*%
%ADD46R,1.5000X1.6000*%
%ADD47C,0.9000*%
%ADD48C,0.8000*%
%ADD49C,0.5000*%
%ADD50C,0.2500*%
%ADD51C,0.1500*%
%ADD52C,0.7500*%
%ADD53C,0.3000*%
%ADD54C,0.2540*%
%ADD55C,0.0254*%
%ADD56C,0.1905*%
%ADD57C,0.1194*%
%ADD58C,1.1000*%
%ADD59C,1.9000*%
%ADD60C,1.4000*%
%ADD61O,1.3500X2.3500*%
%ADD62C,1.6000*%
%ADD63C,2.9500*%
%ADD64R,1.6000X1.6000*%
%ADD65C,0.5500*%
%ADD66R,3.3000X1.1000*%
%ADD67R,9.0000X3.0000*%
%ADD68C,0.6000*%
%ADD69C,0.1778*%
%ADD70C,0.2032*%
%ADD71C,0.4000*%
%ADD72R,2.4000X0.5500*%
%ADD73R,2.4000X0.5500*%
%ADD74R,1.6016X1.6016*%
%ADD75R,1.4516X0.5016*%
%ADD76R,1.3016X2.1016*%
%ADD77R,2.1516X0.3516*%
%ADD78R,0.3516X2.1516*%
%ADD79R,1.8516X2.3516*%
%ADD80R,1.5016X2.2016*%
%ADD81R,0.8016X0.9016*%
%ADD82C,0.2016*%
%ADD83R,1.6016X0.6016*%
%ADD84R,0.7016X1.9016*%
%ADD85R,3.4016X2.8016*%
%ADD86R,1.1016X2.8016*%
%ADD87R,2.6016X0.8016*%
%ADD88R,1.5516X0.6516*%
%ADD89R,1.8016X2.6016*%
%ADD90R,2.0016X1.6016*%
%ADD91R,1.2016X1.2016*%
%ADD92R,2.6016X2.6016*%
%ADD93R,0.3516X1.2516*%
%ADD94R,1.2516X0.3516*%
%ADD95R,1.9516X1.3516*%
%ADD96R,1.8516X6.1016*%
%ADD97R,1.3016X1.2016*%
%ADD98R,1.6016X2.0016*%
%ADD99R,1.7016X1.6016*%
%ADD100R,0.9516X3.4516*%
%ADD101R,1.7016X3.3016*%
%ADD102R,1.5016X2.0016*%
%ADD103R,2.0016X1.5016*%
%ADD104R,3.0016X0.9016*%
%ADD105R,1.2016X1.2016*%
%ADD106R,1.2016X1.3016*%
%ADD107R,1.3516X1.9516*%
%ADD108R,0.6016X1.6016*%
%ADD109R,1.6016X1.7016*%
%ADD110C,2.8000*%
%ADD111C,1.2016*%
%ADD112C,2.0016*%
%ADD113C,1.5016*%
%ADD114O,1.4516X2.4516*%
%ADD115C,1.7016*%
%ADD116C,3.0516*%
%ADD117R,1.7016X1.7016*%
%ADD118C,0.1016*%
%ADD119C,0.6516*%
G36*
X1478806Y661497D02*
X1479639Y661404D01*
X1480565Y661312D01*
X1481676Y661219D01*
X1482787Y660941D01*
X1485194Y660386D01*
X1487694Y659460D01*
X1488898Y658905D01*
X1490009Y658257D01*
X1491120Y657516D01*
X1492138Y656590D01*
X1492231Y656497D01*
X1492323Y656405D01*
X1492601Y656127D01*
X1492971Y655757D01*
X1493342Y655201D01*
X1493712Y654646D01*
X1494175Y653998D01*
X1494731Y653257D01*
X1495656Y651405D01*
X1496397Y649369D01*
X1497045Y646962D01*
X1497138Y645665D01*
X1497230Y644277D01*
Y644184D01*
Y643999D01*
Y643721D01*
Y643258D01*
X1497138Y642795D01*
X1497045Y642147D01*
X1496860Y640666D01*
X1496582Y638907D01*
X1496027Y636870D01*
X1495379Y634740D01*
X1494453Y632426D01*
Y632333D01*
X1494268Y632148D01*
X1494082Y631778D01*
X1493805Y631130D01*
X1493434Y630389D01*
X1492879Y629463D01*
X1492231Y628352D01*
X1491398Y627056D01*
X1490472Y625482D01*
X1489361Y623631D01*
X1488065Y621686D01*
X1486491Y619372D01*
X1484824Y616872D01*
X1482972Y614095D01*
X1480843Y611039D01*
X1478436Y607706D01*
X1495842D01*
Y595300D01*
X1459271D01*
Y605392D01*
X1459364Y605484D01*
X1459456Y605670D01*
X1459642Y606040D01*
X1459919Y606503D01*
X1460290Y607058D01*
X1460753Y607799D01*
X1461215Y608540D01*
X1461771Y609465D01*
X1462975Y611502D01*
X1464363Y613724D01*
X1465845Y616224D01*
X1467419Y618816D01*
X1470566Y624186D01*
X1472140Y626778D01*
X1473622Y629278D01*
X1474918Y631593D01*
X1476121Y633629D01*
X1476584Y634555D01*
X1477047Y635389D01*
X1477417Y636037D01*
X1477695Y636685D01*
Y636777D01*
X1477788Y636963D01*
X1477973Y637240D01*
X1478158Y637703D01*
X1478621Y638722D01*
X1479176Y640018D01*
X1479732Y641499D01*
X1480195Y643073D01*
X1480565Y644554D01*
X1480658Y645851D01*
Y645943D01*
Y646221D01*
Y646684D01*
X1480565Y647147D01*
X1480380Y648258D01*
X1480195Y648721D01*
X1479917Y649184D01*
Y649276D01*
X1479825Y649369D01*
X1479454Y649739D01*
X1478806Y650017D01*
X1478343Y650202D01*
X1477695D01*
X1477140Y650017D01*
X1476492Y649739D01*
X1476121Y649369D01*
X1475844Y648998D01*
Y648906D01*
X1475751Y648813D01*
X1475658Y648443D01*
X1475566Y647980D01*
X1475381Y647332D01*
X1475288Y646406D01*
X1475195Y645295D01*
Y643999D01*
Y637148D01*
X1459271D01*
Y640295D01*
Y640388D01*
Y640573D01*
Y640851D01*
Y641221D01*
Y642147D01*
X1459364Y643443D01*
Y644740D01*
X1459549Y646221D01*
X1459642Y647610D01*
X1459827Y648813D01*
Y648998D01*
X1459919Y649369D01*
X1460104Y650017D01*
X1460382Y650757D01*
X1460753Y651776D01*
X1461215Y652794D01*
X1461864Y653905D01*
X1462604Y655109D01*
X1462697Y655294D01*
X1463067Y655664D01*
X1463530Y656220D01*
X1464178Y656868D01*
X1465104Y657701D01*
X1466122Y658442D01*
X1467233Y659275D01*
X1468530Y659923D01*
X1468715Y660016D01*
X1469178Y660201D01*
X1470011Y660479D01*
X1471029Y660756D01*
X1472325Y661034D01*
X1473807Y661312D01*
X1475381Y661497D01*
X1477232Y661590D01*
X1478158D01*
X1478806Y661497D01*
D02*
G37*
G36*
X1432700Y660293D02*
X1435107D01*
X1437792Y660108D01*
X1440477Y659923D01*
X1441773Y659830D01*
X1442884Y659738D01*
X1443902Y659553D01*
X1444828Y659368D01*
X1445013D01*
X1445569Y659183D01*
X1446310Y658905D01*
X1447328Y658442D01*
X1448439Y657794D01*
X1449643Y656868D01*
X1450846Y655850D01*
X1451957Y654461D01*
X1452050Y654276D01*
X1452235Y654090D01*
X1452420Y653720D01*
X1452605Y653350D01*
X1452883Y652794D01*
X1453068Y652146D01*
X1453346Y651498D01*
X1453624Y650665D01*
X1453901Y649832D01*
X1454087Y648813D01*
X1454272Y647702D01*
X1454457Y646499D01*
X1454642Y645202D01*
X1454735Y643814D01*
Y642332D01*
Y642240D01*
Y641962D01*
Y641592D01*
Y641129D01*
X1454642Y640481D01*
Y639740D01*
X1454457Y638166D01*
X1454179Y636407D01*
X1453809Y634648D01*
X1453346Y633074D01*
X1452976Y632333D01*
X1452605Y631778D01*
X1452513Y631685D01*
X1452235Y631315D01*
X1451679Y630852D01*
X1450939Y630389D01*
X1450013Y629834D01*
X1448809Y629371D01*
X1447328Y629093D01*
X1445569Y628908D01*
X1445754D01*
X1446310Y628815D01*
X1447143Y628723D01*
X1448069Y628537D01*
X1449087Y628260D01*
X1450198Y627797D01*
X1451124Y627241D01*
X1451957Y626501D01*
X1452050Y626408D01*
X1452235Y626130D01*
X1452605Y625667D01*
X1452976Y625205D01*
X1453716Y623816D01*
X1454087Y623168D01*
X1454272Y622427D01*
Y622334D01*
X1454364Y622057D01*
X1454457Y621501D01*
X1454550Y620575D01*
Y620020D01*
Y619372D01*
X1454642Y618539D01*
Y617705D01*
X1454735Y616687D01*
Y615576D01*
Y614280D01*
Y612891D01*
Y595300D01*
X1437699D01*
Y617242D01*
Y617335D01*
Y617427D01*
Y617983D01*
Y618816D01*
X1437607Y619742D01*
X1437514Y620760D01*
X1437422Y621686D01*
X1437236Y622427D01*
X1437051Y622982D01*
Y623075D01*
X1436959Y623168D01*
X1436774Y623353D01*
X1436496Y623538D01*
X1436125Y623723D01*
X1435663Y623816D01*
X1435107Y624001D01*
X1434366D01*
Y595300D01*
X1416220D01*
Y660386D01*
X1431589D01*
X1432700Y660293D01*
D02*
G37*
G36*
X1565464Y661497D02*
X1566297Y661404D01*
X1567223Y661312D01*
X1568334Y661219D01*
X1569445Y660941D01*
X1571852Y660386D01*
X1574352Y659460D01*
X1575555Y658905D01*
X1576666Y658257D01*
X1577777Y657516D01*
X1578796Y656590D01*
X1578888Y656497D01*
X1578981Y656405D01*
X1579259Y656127D01*
X1579629Y655757D01*
X1579999Y655201D01*
X1580370Y654646D01*
X1580833Y653998D01*
X1581388Y653257D01*
X1582314Y651405D01*
X1583055Y649369D01*
X1583703Y646962D01*
X1583795Y645665D01*
X1583888Y644277D01*
Y644184D01*
Y643999D01*
Y643721D01*
Y643258D01*
X1583795Y642795D01*
X1583703Y642147D01*
X1583518Y640666D01*
X1583240Y638907D01*
X1582684Y636870D01*
X1582036Y634740D01*
X1581110Y632426D01*
Y632333D01*
X1580925Y632148D01*
X1580740Y631778D01*
X1580462Y631130D01*
X1580092Y630389D01*
X1579536Y629463D01*
X1578888Y628352D01*
X1578055Y627056D01*
X1577129Y625482D01*
X1576018Y623631D01*
X1574722Y621686D01*
X1573148Y619372D01*
X1571482Y616872D01*
X1569630Y614095D01*
X1567501Y611039D01*
X1565094Y607706D01*
X1582499D01*
Y595300D01*
X1545929D01*
Y605392D01*
X1546022Y605484D01*
X1546114Y605670D01*
X1546299Y606040D01*
X1546577Y606503D01*
X1546947Y607058D01*
X1547410Y607799D01*
X1547873Y608540D01*
X1548429Y609465D01*
X1549632Y611502D01*
X1551021Y613724D01*
X1552502Y616224D01*
X1554076Y618816D01*
X1557224Y624186D01*
X1558798Y626778D01*
X1560279Y629278D01*
X1561575Y631593D01*
X1562779Y633629D01*
X1563242Y634555D01*
X1563705Y635389D01*
X1564075Y636037D01*
X1564353Y636685D01*
Y636777D01*
X1564445Y636963D01*
X1564631Y637240D01*
X1564816Y637703D01*
X1565279Y638722D01*
X1565834Y640018D01*
X1566390Y641499D01*
X1566853Y643073D01*
X1567223Y644554D01*
X1567316Y645851D01*
Y645943D01*
Y646221D01*
Y646684D01*
X1567223Y647147D01*
X1567038Y648258D01*
X1566853Y648721D01*
X1566575Y649184D01*
Y649276D01*
X1566482Y649369D01*
X1566112Y649739D01*
X1565464Y650017D01*
X1565001Y650202D01*
X1564353D01*
X1563797Y650017D01*
X1563149Y649739D01*
X1562779Y649369D01*
X1562501Y648998D01*
Y648906D01*
X1562409Y648813D01*
X1562316Y648443D01*
X1562224Y647980D01*
X1562038Y647332D01*
X1561946Y646406D01*
X1561853Y645295D01*
Y643999D01*
Y637148D01*
X1545929D01*
Y640295D01*
Y640388D01*
Y640573D01*
Y640851D01*
Y641221D01*
Y642147D01*
X1546022Y643443D01*
Y644740D01*
X1546207Y646221D01*
X1546299Y647610D01*
X1546484Y648813D01*
Y648998D01*
X1546577Y649369D01*
X1546762Y650017D01*
X1547040Y650757D01*
X1547410Y651776D01*
X1547873Y652794D01*
X1548521Y653905D01*
X1549262Y655109D01*
X1549355Y655294D01*
X1549725Y655664D01*
X1550188Y656220D01*
X1550836Y656868D01*
X1551762Y657701D01*
X1552780Y658442D01*
X1553891Y659275D01*
X1555187Y659923D01*
X1555372Y660016D01*
X1555835Y660201D01*
X1556669Y660479D01*
X1557687Y660756D01*
X1558983Y661034D01*
X1560464Y661312D01*
X1562038Y661497D01*
X1563890Y661590D01*
X1564816D01*
X1565464Y661497D01*
D02*
G37*
G36*
X1523154Y661682D02*
X1523987Y661590D01*
X1525653Y661404D01*
X1527690Y661034D01*
X1529727Y660571D01*
X1531856Y659830D01*
X1533801Y658812D01*
X1533893D01*
X1533986Y658719D01*
X1534634Y658257D01*
X1535467Y657608D01*
X1536485Y656775D01*
X1537596Y655664D01*
X1538707Y654461D01*
X1539633Y652979D01*
X1540374Y651405D01*
Y651313D01*
X1540466Y651220D01*
X1540559Y650943D01*
X1540652Y650572D01*
X1540744Y650109D01*
X1540837Y649554D01*
X1541022Y648906D01*
X1541207Y648073D01*
X1541300Y647239D01*
X1541485Y646221D01*
X1541577Y645110D01*
X1541670Y643906D01*
X1541763Y642610D01*
X1541855Y641221D01*
X1541948Y639740D01*
Y638074D01*
Y631222D01*
X1523802D01*
Y643073D01*
Y643166D01*
Y643258D01*
Y643814D01*
Y644554D01*
X1523709Y645480D01*
Y646406D01*
X1523616Y647332D01*
X1523524Y648073D01*
X1523339Y648535D01*
X1523246Y648721D01*
X1522968Y648998D01*
X1522505Y649276D01*
X1521672Y649461D01*
X1521394D01*
X1520839Y649369D01*
X1520191Y648998D01*
X1519913Y648721D01*
X1519728Y648350D01*
Y648258D01*
X1519635Y648073D01*
Y647795D01*
X1519543Y647239D01*
X1519450Y646406D01*
Y645388D01*
X1519358Y644091D01*
Y642517D01*
Y612984D01*
Y612891D01*
Y612798D01*
Y612243D01*
Y611502D01*
X1519450Y610576D01*
Y609650D01*
X1519543Y608725D01*
X1519635Y607892D01*
X1519728Y607336D01*
X1519821Y607151D01*
X1520098Y606873D01*
X1520746Y606503D01*
X1521117Y606410D01*
X1521580Y606318D01*
X1521765D01*
X1522320Y606503D01*
X1522876Y606781D01*
X1523154Y607058D01*
X1523339Y607429D01*
Y607521D01*
X1523431Y607706D01*
X1523524Y608077D01*
X1523616Y608632D01*
Y609465D01*
X1523709Y610484D01*
X1523802Y611872D01*
Y612706D01*
Y613632D01*
Y622427D01*
X1541948D01*
Y619187D01*
Y619094D01*
Y618724D01*
Y618261D01*
Y617520D01*
Y616779D01*
X1541855Y615761D01*
Y614743D01*
X1541763Y613632D01*
X1541577Y611317D01*
X1541300Y608910D01*
X1540929Y606688D01*
X1540744Y605762D01*
X1540466Y604836D01*
Y604744D01*
X1540374Y604651D01*
X1540189Y604096D01*
X1539726Y603262D01*
X1539078Y602244D01*
X1538244Y601040D01*
X1537133Y599837D01*
X1535745Y598541D01*
X1533986Y597244D01*
X1533893D01*
X1533801Y597152D01*
X1533523Y596967D01*
X1533060Y596782D01*
X1532597Y596504D01*
X1532041Y596226D01*
X1531393Y595948D01*
X1530560Y595671D01*
X1528801Y595022D01*
X1526764Y594560D01*
X1524357Y594189D01*
X1521765Y594004D01*
X1520561D01*
X1519913Y594097D01*
X1519172Y594189D01*
X1517413Y594374D01*
X1515376Y594652D01*
X1513340Y595115D01*
X1511210Y595763D01*
X1509266Y596689D01*
X1509173D01*
X1509081Y596782D01*
X1508433Y597244D01*
X1507599Y597800D01*
X1506581Y598726D01*
X1505563Y599744D01*
X1504452Y601040D01*
X1503526Y602614D01*
X1502785Y604281D01*
Y604373D01*
X1502693Y604558D01*
X1502600Y604836D01*
X1502507Y605207D01*
X1502415Y605670D01*
X1502322Y606318D01*
X1502137Y607058D01*
X1502045Y607892D01*
X1501859Y608910D01*
X1501674Y609928D01*
X1501582Y611132D01*
X1501489Y612428D01*
X1501396Y613817D01*
X1501304Y615391D01*
X1501211Y616965D01*
Y618724D01*
Y637240D01*
Y637333D01*
Y637518D01*
Y637888D01*
Y638351D01*
Y638999D01*
Y639647D01*
X1501304Y641129D01*
Y642888D01*
X1501396Y644554D01*
X1501489Y646221D01*
X1501674Y647702D01*
Y647887D01*
X1501767Y648350D01*
X1501952Y648998D01*
X1502230Y649924D01*
X1502600Y650943D01*
X1503063Y652054D01*
X1503711Y653350D01*
X1504544Y654553D01*
X1504637Y654738D01*
X1505007Y655109D01*
X1505563Y655757D01*
X1506303Y656497D01*
X1507322Y657331D01*
X1508525Y658164D01*
X1509821Y659090D01*
X1511395Y659830D01*
X1511488D01*
X1511581Y659923D01*
X1511858Y660016D01*
X1512136Y660108D01*
X1513062Y660479D01*
X1514265Y660849D01*
X1515747Y661127D01*
X1517413Y661497D01*
X1519265Y661682D01*
X1521302Y661775D01*
X1522598D01*
X1523154Y661682D01*
D02*
G37*
%LPC*%
G36*
X1434366Y647980D02*
Y635481D01*
X1434922D01*
X1435292Y635574D01*
X1436033Y635759D01*
X1436774Y636037D01*
X1436959Y636222D01*
X1437051Y636407D01*
X1437236Y636777D01*
X1437422Y637333D01*
X1437514Y638074D01*
X1437699Y639092D01*
Y640388D01*
Y643906D01*
Y643999D01*
Y644369D01*
Y644740D01*
X1437607Y645295D01*
X1437329Y646406D01*
X1437144Y646869D01*
X1436866Y647239D01*
X1436681Y647332D01*
X1436218Y647610D01*
X1435477Y647887D01*
X1434366Y647980D01*
D02*
G37*
%LPD*%
D54*
X1126970Y740041D02*
Y710050D01*
X1141965D01*
X1146964Y715049D01*
Y720047D01*
X1141965Y725045D01*
X1126970D01*
X1141965D01*
X1146964Y730044D01*
Y735042D01*
X1141965Y740041D01*
X1126970D01*
X1161959Y710050D02*
X1171955D01*
X1176954Y715049D01*
Y725045D01*
X1171955Y730044D01*
X1161959D01*
X1156960Y725045D01*
Y715049D01*
X1161959Y710050D01*
X1191949Y735042D02*
Y730044D01*
X1186951D01*
X1196947D01*
X1191949D01*
Y715049D01*
X1196947Y710050D01*
X1216941Y735042D02*
Y730044D01*
X1211943D01*
X1221939D01*
X1216941D01*
Y715049D01*
X1221939Y710050D01*
X1241933D02*
X1251930D01*
X1256928Y715049D01*
Y725045D01*
X1251930Y730044D01*
X1241933D01*
X1236935Y725045D01*
Y715049D01*
X1241933Y710050D01*
X1266925D02*
Y730044D01*
X1271923D01*
X1276922Y725045D01*
Y710050D01*
Y725045D01*
X1281920Y730044D01*
X1286918Y725045D01*
Y710050D01*
X1326905D02*
Y740041D01*
X1341900D01*
X1346899Y735042D01*
Y725045D01*
X1341900Y720047D01*
X1326905D01*
X1361894Y730044D02*
X1371891D01*
X1376889Y725045D01*
Y710050D01*
X1361894D01*
X1356896Y715049D01*
X1361894Y720047D01*
X1376889D01*
X1386886Y710050D02*
X1401881D01*
X1406879Y715049D01*
X1401881Y720047D01*
X1391884D01*
X1386886Y725045D01*
X1391884Y730044D01*
X1406879D01*
X1421875Y735042D02*
Y730044D01*
X1416876D01*
X1426873D01*
X1421875D01*
Y715049D01*
X1426873Y710050D01*
X1456863D02*
X1446867D01*
X1441868Y715049D01*
Y725045D01*
X1446867Y730044D01*
X1456863D01*
X1461862Y725045D01*
Y720047D01*
X1441868D01*
D55*
X949335Y602598D02*
G03*
X1025535Y526398I76200J0D01*
G01*
Y831198D02*
G03*
X949335Y754998I0J-76200D01*
G01*
X2473335D02*
G03*
X2397135Y831198I-76200J0D01*
G01*
Y526398D02*
G03*
X2473335Y602598I0J76200D01*
G01*
X949335D02*
G03*
X1025535Y526398I76200J0D01*
G01*
Y831198D02*
G03*
X949335Y754998I0J-76200D01*
G01*
X2473335D02*
G03*
X2397135Y831198I-76200J0D01*
G01*
Y526398D02*
G03*
X2473335Y602598I0J76200D01*
G01*
X1673235Y526398D02*
Y678798D01*
X949334D02*
X2473335D01*
X949334Y602598D02*
Y754998D01*
X1025535Y831198D02*
X2397135D01*
X2473335Y602598D02*
Y754998D01*
X1025535Y526398D02*
X2397135D01*
X1673235Y602598D02*
X2473335D01*
X2079635Y526398D02*
Y602598D01*
X949334Y754998D02*
X2473335D01*
X1539884D02*
Y831198D01*
X2028835Y678798D02*
Y754998D01*
X2352684Y678798D02*
Y754998D01*
X1673235Y526398D02*
Y678798D01*
X949334D02*
X2473335D01*
X949334Y602598D02*
Y754998D01*
X1025535Y831198D02*
X2397135D01*
X2473335Y602598D02*
Y754998D01*
X1025535Y526398D02*
X2397135D01*
X1673235Y602598D02*
X2473335D01*
X2079635Y526398D02*
Y602598D01*
X949334Y754998D02*
X2473335D01*
X1539884D02*
Y831198D01*
X2028835Y678798D02*
Y754998D01*
X2352684Y678798D02*
Y754998D01*
D56*
X2106220Y716795D02*
Y692800D01*
Y716795D02*
X2116504D01*
X2119931Y715652D01*
X2121074Y714510D01*
X2122217Y712225D01*
Y709939D01*
X2121074Y707654D01*
X2119931Y706512D01*
X2116504Y705369D01*
X2106220D01*
X2114218D02*
X2122217Y692800D01*
X2128730Y711082D02*
Y712225D01*
X2129872Y714510D01*
X2131015Y715652D01*
X2133300Y716795D01*
X2137870D01*
X2140156Y715652D01*
X2141298Y714510D01*
X2142441Y712225D01*
Y709939D01*
X2141298Y707654D01*
X2139013Y704226D01*
X2127587Y692800D01*
X2143584D01*
X2166093Y711082D02*
X2164950Y713367D01*
X2162665Y715652D01*
X2160380Y716795D01*
X2155809D01*
X2153524Y715652D01*
X2151239Y713367D01*
X2150096Y711082D01*
X2148954Y707654D01*
Y701941D01*
X2150096Y698513D01*
X2151239Y696228D01*
X2153524Y693943D01*
X2155809Y692800D01*
X2160380D01*
X2162665Y693943D01*
X2164950Y696228D01*
X2166093Y698513D01*
X2173977Y711082D02*
Y712225D01*
X2175120Y714510D01*
X2176262Y715652D01*
X2178548Y716795D01*
X2183118D01*
X2185403Y715652D01*
X2186546Y714510D01*
X2187688Y712225D01*
Y709939D01*
X2186546Y707654D01*
X2184261Y704226D01*
X2172834Y692800D01*
X2188831D01*
X2213054Y716795D02*
Y692800D01*
Y716795D02*
X2222195Y692800D01*
X2231336Y716795D02*
X2222195Y692800D01*
X2231336Y716795D02*
Y692800D01*
X2238192Y716795D02*
Y692800D01*
X2243219Y716795D02*
Y692800D01*
Y716795D02*
X2259216Y692800D01*
Y716795D02*
Y692800D01*
X2265843Y716795D02*
Y692800D01*
X1826315Y793694D02*
X1839169D01*
X1843454Y795122D01*
X1844882Y796550D01*
X1846310Y799407D01*
Y803691D01*
X1844882Y806548D01*
X1843454Y807976D01*
X1839169Y809405D01*
X1826315D01*
Y779411D01*
X1853023Y809405D02*
X1860164Y779411D01*
X1867306Y809405D02*
X1860164Y779411D01*
X1867306Y809405D02*
X1874447Y779411D01*
X1881588Y809405D02*
X1874447Y779411D01*
X1887587Y809405D02*
Y779411D01*
Y809405D02*
X1900441D01*
X1904726Y807976D01*
X1906155Y806548D01*
X1907583Y803691D01*
Y800835D01*
X1906155Y797979D01*
X1904726Y796550D01*
X1900441Y795122D01*
X1887587D02*
X1900441D01*
X1904726Y793694D01*
X1906155Y792265D01*
X1907583Y789409D01*
Y785124D01*
X1906155Y782268D01*
X1904726Y780839D01*
X1900441Y779411D01*
X1887587D01*
X1917152Y780839D02*
X1915724Y779411D01*
X1914296Y780839D01*
X1915724Y782268D01*
X1917152Y780839D01*
Y777983D01*
X1915724Y775126D01*
X1914296Y773698D01*
X1947289Y809405D02*
Y779411D01*
Y809405D02*
X1960143D01*
X1964428Y807976D01*
X1965856Y806548D01*
X1967284Y803691D01*
Y800835D01*
X1965856Y797979D01*
X1964428Y796550D01*
X1960143Y795122D01*
X1947289D01*
X1957287D02*
X1967284Y779411D01*
X1975426Y802263D02*
Y803691D01*
X1976854Y806548D01*
X1978282Y807976D01*
X1981138Y809405D01*
X1986852D01*
X1989708Y807976D01*
X1991136Y806548D01*
X1992565Y803691D01*
Y800835D01*
X1991136Y797979D01*
X1988280Y793694D01*
X1973997Y779411D01*
X1993993D01*
X2022130Y802263D02*
X2020701Y805120D01*
X2017845Y807976D01*
X2014988Y809405D01*
X2009275D01*
X2006419Y807976D01*
X2003562Y805120D01*
X2002134Y802263D01*
X2000706Y797979D01*
Y790837D01*
X2002134Y786552D01*
X2003562Y783696D01*
X2006419Y780839D01*
X2009275Y779411D01*
X2014988D01*
X2017845Y780839D01*
X2020701Y783696D01*
X2022130Y786552D01*
X2031985Y802263D02*
Y803691D01*
X2033413Y806548D01*
X2034841Y807976D01*
X2037698Y809405D01*
X2043411D01*
X2046267Y807976D01*
X2047696Y806548D01*
X2049124Y803691D01*
Y800835D01*
X2047696Y797979D01*
X2044839Y793694D01*
X2030556Y779411D01*
X2050552D01*
X2080831Y809405D02*
Y779411D01*
Y809405D02*
X2092258Y779411D01*
X2103684Y809405D02*
X2092258Y779411D01*
X2103684Y809405D02*
Y779411D01*
X2112253Y809405D02*
Y779411D01*
X2118538Y809405D02*
Y779411D01*
Y809405D02*
X2138533Y779411D01*
Y809405D02*
Y779411D01*
X2146817Y809405D02*
Y779411D01*
X2420039Y695011D02*
X2410365Y720406D01*
X2400691Y695011D01*
X2404318Y703476D02*
X2416411D01*
X2174581Y564493D02*
X2170953Y563284D01*
X2169744Y560865D01*
Y558447D01*
X2170953Y556028D01*
X2173372Y554819D01*
X2178209Y553609D01*
X2181837Y552400D01*
X2184255Y549982D01*
X2185464Y547563D01*
Y543935D01*
X2184255Y541517D01*
X2183046Y540308D01*
X2179418Y539098D01*
X2174581D01*
X2170953Y540308D01*
X2169744Y541517D01*
X2168535Y543935D01*
Y547563D01*
X2169744Y549982D01*
X2172162Y552400D01*
X2175790Y553609D01*
X2180627Y554819D01*
X2183046Y556028D01*
X2184255Y558447D01*
Y560865D01*
X2183046Y563284D01*
X2179418Y564493D01*
X2174581D01*
X2191148Y535470D02*
X2208078Y564493D01*
X2210980Y558447D02*
Y559656D01*
X2212189Y562074D01*
X2213398Y563284D01*
X2215817Y564493D01*
X2220654D01*
X2223072Y563284D01*
X2224282Y562074D01*
X2225491Y559656D01*
Y557237D01*
X2224282Y554819D01*
X2221863Y551191D01*
X2209771Y539098D01*
X2226700D01*
X2233593Y558447D02*
Y559656D01*
X2234802Y562074D01*
X2236012Y563284D01*
X2238430Y564493D01*
X2243267D01*
X2245686Y563284D01*
X2246895Y562074D01*
X2248104Y559656D01*
Y557237D01*
X2246895Y554819D01*
X2244476Y551191D01*
X2232384Y539098D01*
X2249314D01*
X2254997Y535470D02*
X2271927Y564493D01*
X2274829Y558447D02*
Y559656D01*
X2276038Y562074D01*
X2277247Y563284D01*
X2279666Y564493D01*
X2284503D01*
X2286922Y563284D01*
X2288131Y562074D01*
X2289340Y559656D01*
Y557237D01*
X2288131Y554819D01*
X2285712Y551191D01*
X2273620Y539098D01*
X2290549D01*
X2303488Y564493D02*
X2299861Y563284D01*
X2297442Y559656D01*
X2296233Y553609D01*
Y549982D01*
X2297442Y543935D01*
X2299861Y540308D01*
X2303488Y539098D01*
X2305907D01*
X2309535Y540308D01*
X2311953Y543935D01*
X2313163Y549982D01*
Y553609D01*
X2311953Y559656D01*
X2309535Y563284D01*
X2305907Y564493D01*
X2303488D01*
X2318846Y559656D02*
X2321265Y560865D01*
X2324892Y564493D01*
Y539098D01*
X2351980Y564493D02*
X2339887D01*
X2338678Y553609D01*
X2339887Y554819D01*
X2343515Y556028D01*
X2347143D01*
X2350771Y554819D01*
X2353189Y552400D01*
X2354398Y548772D01*
Y546354D01*
X2353189Y542726D01*
X2350771Y540308D01*
X2347143Y539098D01*
X2343515D01*
X2339887Y540308D01*
X2338678Y541517D01*
X2337469Y543935D01*
X968385Y729593D02*
Y704198D01*
X982896D01*
X1005025D02*
X995351Y729593D01*
X985677Y704198D01*
X989305Y712663D02*
X1001397D01*
X1010951Y729593D02*
X1020625Y717500D01*
Y704198D01*
X1030299Y729593D02*
X1020625Y717500D01*
X1049284Y729593D02*
X1033564D01*
Y704198D01*
X1049284D01*
X1033564Y717500D02*
X1043238D01*
X1053517Y729593D02*
Y704198D01*
Y729593D02*
X1064400D01*
X1068028Y728383D01*
X1069237Y727174D01*
X1070447Y724756D01*
Y722337D01*
X1069237Y719919D01*
X1068028Y718709D01*
X1064400Y717500D01*
X1053517D01*
X1061982D02*
X1070447Y704198D01*
X1077339Y721128D02*
X1076130Y719919D01*
X1077339Y718709D01*
X1078549Y719919D01*
X1077339Y721128D01*
Y706617D02*
X1076130Y705407D01*
X1077339Y704198D01*
X1078549Y705407D01*
X1077339Y706617D01*
D57*
X2090264Y744326D02*
X2089502Y745849D01*
X2087979Y747373D01*
X2086455Y748134D01*
X2083408D01*
X2081885Y747373D01*
X2080361Y745849D01*
X2079600Y744326D01*
X2078838Y742040D01*
Y738232D01*
X2079600Y735947D01*
X2080361Y734423D01*
X2081885Y732900D01*
X2083408Y732138D01*
X2086455D01*
X2087979Y732900D01*
X2089502Y734423D01*
X2090264Y735947D01*
X2094758Y748134D02*
Y736709D01*
X2095520Y734423D01*
X2097043Y732900D01*
X2099328Y732138D01*
X2100852D01*
X2103137Y732900D01*
X2104660Y734423D01*
X2105422Y736709D01*
Y748134D01*
X2120504Y745849D02*
X2118981Y747373D01*
X2116695Y748134D01*
X2113649D01*
X2111363Y747373D01*
X2109840Y745849D01*
Y744326D01*
X2110602Y742802D01*
X2111363Y742040D01*
X2112887Y741279D01*
X2117457Y739755D01*
X2118981Y738994D01*
X2119742Y738232D01*
X2120504Y736709D01*
Y734423D01*
X2118981Y732900D01*
X2116695Y732138D01*
X2113649D01*
X2111363Y732900D01*
X2109840Y734423D01*
X2129416Y748134D02*
Y732138D01*
X2124084Y748134D02*
X2134748D01*
X2149221Y739755D02*
X2156076D01*
X2158361Y740517D01*
X2159123Y741279D01*
X2159885Y742802D01*
Y745087D01*
X2159123Y746611D01*
X2158361Y747373D01*
X2156076Y748134D01*
X2149221D01*
Y732138D01*
X2175652D02*
X2169558Y748134D01*
X2163465Y732138D01*
X2165750Y737470D02*
X2173367D01*
X2179384Y748134D02*
Y732138D01*
Y748134D02*
X2186240D01*
X2188525Y747373D01*
X2189287Y746611D01*
X2190049Y745087D01*
Y743564D01*
X2189287Y742040D01*
X2188525Y741279D01*
X2186240Y740517D01*
X2179384D01*
X2184716D02*
X2190049Y732138D01*
X2198961Y748134D02*
Y732138D01*
X2193629Y748134D02*
X2204293D01*
X2218765D02*
Y732138D01*
Y748134D02*
X2229429Y732138D01*
Y748134D02*
Y732138D01*
X2233847Y748134D02*
Y736709D01*
X2234609Y734423D01*
X2236132Y732900D01*
X2238418Y732138D01*
X2239941D01*
X2242226Y732900D01*
X2243750Y734423D01*
X2244511Y736709D01*
Y748134D01*
X2248929D02*
Y732138D01*
Y748134D02*
X2255023Y732138D01*
X2261117Y748134D02*
X2255023Y732138D01*
X2261117Y748134D02*
Y732138D01*
X2265687Y748134D02*
Y732138D01*
Y748134D02*
X2272542D01*
X2274828Y747373D01*
X2275589Y746611D01*
X2276351Y745087D01*
Y743564D01*
X2275589Y742040D01*
X2274828Y741279D01*
X2272542Y740517D01*
X2265687D02*
X2272542D01*
X2274828Y739755D01*
X2275589Y738994D01*
X2276351Y737470D01*
Y735185D01*
X2275589Y733662D01*
X2274828Y732900D01*
X2272542Y732138D01*
X2265687D01*
X2289833Y748134D02*
X2279931D01*
Y732138D01*
X2289833D01*
X2279931Y740517D02*
X2286025D01*
X2292499Y748134D02*
Y732138D01*
Y748134D02*
X2299355D01*
X2301640Y747373D01*
X2302402Y746611D01*
X2303163Y745087D01*
Y743564D01*
X2302402Y742040D01*
X2301640Y741279D01*
X2299355Y740517D01*
X2292499D01*
X2297831D02*
X2303163Y732138D01*
X2390635Y748134D02*
Y732138D01*
Y748134D02*
X2397491D01*
X2399776Y747373D01*
X2400538Y746611D01*
X2401299Y745087D01*
Y743564D01*
X2400538Y742040D01*
X2399776Y741279D01*
X2397491Y740517D01*
X2390635D01*
X2395967D02*
X2401299Y732138D01*
X2414782Y748134D02*
X2404879D01*
Y732138D01*
X2414782D01*
X2404879Y740517D02*
X2410973D01*
X2417448Y748134D02*
X2423541Y732138D01*
X2429635Y748134D02*
X2423541Y732138D01*
X2257236Y594464D02*
Y578468D01*
Y594464D02*
X2262567D01*
X2264853Y593703D01*
X2266376Y592179D01*
X2267138Y590656D01*
X2267899Y588371D01*
Y584562D01*
X2267138Y582277D01*
X2266376Y580753D01*
X2264853Y579230D01*
X2262567Y578468D01*
X2257236D01*
X2283667D02*
X2277573Y594464D01*
X2271480Y578468D01*
X2273765Y583800D02*
X2281382D01*
X2292731Y594464D02*
Y578468D01*
X2287399Y594464D02*
X2298063D01*
X2309870D02*
X2299968D01*
Y578468D01*
X2309870D01*
X2299968Y586847D02*
X2306061D01*
M02*
